<?xml version="1.0" standalone="no"?>
<!DOCTYPE svg PUBLIC "-//W3C//DTD SVG 1.1//EN" "http://www.w3.org/Graphics/SVG/1.1/DTD/svg11.dtd" >
<svg xmlns="http://www.w3.org/2000/svg" xmlns:xlink="http://www.w3.org/1999/xlink" version="1.1">
<metadata>
Created by FontForge 20161116 at Fri May  5 13:18:43 2017
 By Jimmy Wärting
Copyright (c) 2014 Indian Type Foundry (info@indiantypefoundry.com)
</metadata>
<defs>
<font id="Hind-Medium" horiz-adv-x="270" >
  <font-face 
    font-family="Hind Medium"
    font-weight="500"
    font-stretch="normal"
    units-per-em="1000"
    panose-1="2 0 0 0 0 0 0 0 0 0"
    ascent="800"
    descent="-200"
    x-height="507"
    cap-height="674"
    bbox="-440 -463 2186 1016"
    underline-thickness="50"
    underline-position="-150"
    unicode-range="U+000D-FB02"
  />
<missing-glyph horiz-adv-x="753" 
d="M171 0v701h410v-701h-410zM237 640v-579h279v579h-279z" />
    <glyph glyph-name="fi" unicode="fi" horiz-adv-x="532" 
d="M470 507v-507h-98v431h-163v-431h-98v431h-81v76h81v39q0 80 43 125t122 45q81 0 153 -37v-85q-81 38 -144 38q-76 0 -76 -87v-38h261z" />
    <glyph glyph-name="fl" unicode="fl" horiz-adv-x="534" 
d="M111 507v39q0 80 43 125t121 45q91 0 190 -53v-663h-98v618q-40 14 -77 14q-81 0 -81 -87v-38h107v-76h-107v-431h-98v431h-81v76h81z" />
    <glyph glyph-name="f_f" unicode="ff" horiz-adv-x="595" 
d="M372 507v39q0 36 9 66q-51 20 -93 20q-79 0 -79 -87v-38h163zM590 708v-86q-23 10 -47 10q-73 0 -73 -87v-38h107v-76h-107v-431h-98v431h-163v-431h-98v431h-81v76h81v39q0 80 43.5 125t124.5 45q76 0 146 -35q41 35 109 35q29 0 56 -8z" />
    <glyph glyph-name="f_f_i" unicode="ffi" horiz-adv-x="839" 
d="M372 507v39q0 36 9 66q-51 20 -93 20q-79 0 -79 -87v-38h163zM731 507v-507h-98v431h-163v-431h-98v431h-163v-431h-98v431h-81v76h81v39q0 80 43.5 125t124.5 45q75 0 147 -35q43 35 111 35q79 0 153 -37v-85q-81 38 -144 38q-76 0 -76 -87v-38h261z" />
    <glyph glyph-name="f_f_l" unicode="ffl" horiz-adv-x="796" 
d="M373 507v39q0 36 9 66q-51 20 -94 20q-79 0 -79 -87v-38h164zM111 507v39q0 80 43.5 125t124.5 45q77 0 147 -36q40 36 111 36q89 0 190 -53v-663h-99v618q-40 14 -77 14q-38 0 -59 -19.5t-21 -67.5v-38h106v-76h-106v-431h-98v431h-164v-431h-98v431h-81v76h81z" />
    <glyph glyph-name=".notdef" horiz-adv-x="753" 
d="M171 0v701h410v-701h-410zM237 640v-579h279v579h-279z" />
    <glyph glyph-name=".null" horiz-adv-x="0" 
 />
    <glyph glyph-name="nonmarkingreturn" horiz-adv-x="333" 
 />
    <glyph glyph-name="NULL" horiz-adv-x="0" 
 />
    <glyph glyph-name="NULL" horiz-adv-x="0" 
 />
    <glyph glyph-name="CR" unicode="&#xd;" horiz-adv-x="0" 
 />
    <glyph glyph-name="space" unicode=" " horiz-adv-x="246" 
 />
    <glyph glyph-name="exclam" unicode="!" horiz-adv-x="262" 
d="M83 214v460h96v-460h-96zM62 60q0 29 19.5 49t48.5 20q28 0 48.5 -20.5t20.5 -48.5q0 -29 -20 -48.5t-49 -19.5t-48.5 19.5t-19.5 48.5z" />
    <glyph glyph-name="quotedbl" unicode="&#x22;" horiz-adv-x="322" 
d="M43 437v244h85v-244h-85zM194 437v244h85v-244h-85z" />
    <glyph glyph-name="numbersign" unicode="#" horiz-adv-x="723" 
d="M427 243l39 184h-166l-39 -184h166zM673 427h-121l-39 -184h113v-78h-129l-35 -165h-87l35 165h-166l-35 -165h-86l35 165h-107v78h123l38 184h-113v80h130l35 167h88l-35 -167h166l35 167h86l-35 -167h104v-80z" />
    <glyph glyph-name="dollar" unicode="$" horiz-adv-x="507" 
d="M426 647v-102q-66 42 -152 42q-55 0 -86 -24.5t-31 -64.5q0 -22 9.5 -39.5t33 -33t40 -23.5t52.5 -24q38 -17 62 -30.5t52 -36.5t41.5 -54.5t13.5 -72.5q0 -81 -51 -130.5t-136 -58.5v-107h-84v107q-82 8 -139 41v107q79 -59 183 -59q55 0 87.5 25.5t32.5 70.5
q0 11 -2 20.5t-8 18.5t-11 15.5t-16.5 14t-18 12t-22 12t-22.5 11t-26 11.5t-26 11q-73 33 -114 74t-41 113q0 79 53 128t140 57v107h85v-109q60 -9 101 -29z" />
    <glyph glyph-name="percent" unicode="%" horiz-adv-x="884" 
d="M212 -1l364 678h93l-365 -678h-92zM501 160q0 69 49 118.5t119 49.5q69 0 118 -49.5t49 -118.5q0 -70 -49 -118.5t-118 -48.5q-70 0 -119 48.5t-49 118.5zM48 520q0 69 49 118t118 49q70 0 119 -49t49 -118q0 -70 -49 -119t-119 -49q-69 0 -118 49t-49 119zM131 520
q0 -35 24.5 -60t59.5 -25t60 25t25 60t-25 59.5t-60 24.5t-59.5 -25t-24.5 -59zM584 160q0 -35 25 -60t60 -25t59.5 25t24.5 60t-24.5 60t-59.5 25t-60 -25t-25 -60z" />
    <glyph glyph-name="ampersand" unicode="&#x26;" horiz-adv-x="715" 
d="M276 290l-1 1q-59 -22 -86 -47.5t-27 -62.5q0 -47 45 -75t114 -28q79 0 138 39zM324 604q-41 0 -67 -23t-26 -64q0 -30 19 -60.5t61 -75.5q113 55 113 128q0 42 -26 68.5t-74 26.5zM712 0h-128l-59 55q-82 -63 -203 -63q-118 0 -189.5 53t-71.5 133q0 118 155 173
q-86 89 -86 166q0 79 54 126t141 47q90 0 144.5 -49.5t54.5 -128.5q0 -58 -35.5 -104t-118.5 -84l148 -142q23 42 26 95h92q-4 -88 -51 -158q29 -27 74.5 -70t52.5 -49z" />
    <glyph glyph-name="quotesingle" unicode="'" horiz-adv-x="171" 
d="M43 437v244h85v-244h-85z" />
    <glyph glyph-name="parenleft" unicode="(" horiz-adv-x="318" 
d="M331 -196h-107q-162 203 -162 457q0 250 155 446h106q-77 -100 -116.5 -217.5t-39.5 -233.5q0 -112 42 -231t122 -221z" />
    <glyph glyph-name="parenright" unicode=")" horiz-adv-x="318" 
d="M102 707q154 -195 154 -446q0 -253 -161 -457h-108q80 102 122.5 221.5t42.5 230.5q0 115 -40 232.5t-116 218.5h106z" />
    <glyph glyph-name="asterisk" unicode="*" horiz-adv-x="437" 
d="M276 471h-5q18 -11 33 -32l56 -79l-64 -47l-57 78q-12 17 -20 40q-4 -18 -20 -40l-58 -78l-65 47l58 78q14 19 33 32h-6q-22 0 -40 6l-92 31l24 76l93 -30q25 -9 41 -23q-9 23 -9 47v97h80v-97q0 -26 -8 -45q18 14 41 22l92 29l25 -76l-92 -30q-18 -6 -40 -6z" />
    <glyph glyph-name="plus" unicode="+" horiz-adv-x="564" 
d="M510 384v-89h-185v-186h-91v186h-181v89h181v187h91v-187h185z" />
    <glyph glyph-name="comma" unicode="," horiz-adv-x="245" 
d="M-8 -124l96 234h121l-131 -234h-86z" />
    <glyph glyph-name="hyphen" unicode="-" horiz-adv-x="350" 
d="M53 225v84h244v-84h-244z" />
    <glyph glyph-name="period" unicode="." horiz-adv-x="193" 
d="M29 60q0 28 19.5 47.5t48.5 19.5q28 0 47.5 -19.5t19.5 -47.5t-19.5 -48t-47.5 -20q-29 0 -48.5 20t-19.5 48z" />
    <glyph glyph-name="slash" unicode="/" horiz-adv-x="421" 
d="M-7 -102l363 809h101l-363 -809h-101z" />
    <glyph glyph-name="zero" unicode="0" horiz-adv-x="545" 
d="M41 329q0 154 61.5 244.5t168.5 90.5q109 0 171 -90t62 -245q0 -153 -60.5 -245t-172.5 -92q-107 0 -168.5 92t-61.5 245zM141 329q0 -117 36.5 -181.5t93.5 -64.5q62 0 97 64t35 182q0 119 -36.5 181.5t-95.5 62.5q-56 0 -93 -63.5t-37 -180.5z" />
    <glyph glyph-name="one" unicode="1" horiz-adv-x="340" 
d="M16 452v105l163 97h89v-654h-97v547z" />
    <glyph glyph-name="two" unicode="2" horiz-adv-x="496" 
d="M171 85h284v-85h-419v81q126 92 212.5 190.5t86.5 179.5q0 57 -33 87.5t-91 30.5q-80 0 -157 -60v97q72 55 171 55q92 0 152 -51.5t60 -146.5q0 -176 -266 -378z" />
    <glyph glyph-name="three" unicode="3" horiz-adv-x="471" 
d="M57 530v95q62 36 138 36q100 0 156.5 -49.5t56.5 -124.5q0 -54 -26.5 -94.5t-78.5 -61.5q57 -14 89 -53t32 -98q0 -81 -58 -133.5t-163 -52.5q-99 0 -167 34v96q74 -40 162 -40q59 0 92.5 29.5t33.5 75.5q0 48 -37 74t-111 26h-40v84h40q55 0 92.5 27.5t37.5 75.5
t-30.5 72t-83.5 24q-68 0 -135 -42z" />
    <glyph glyph-name="four" unicode="4" horiz-adv-x="546" 
d="M137 238h197v357zM524 238v-85h-92v-153h-98v153h-296v85l235 417h159v-417h92z" />
    <glyph glyph-name="five" unicode="5" horiz-adv-x="507" 
d="M180 570v-172q37 8 68 8q102 0 160 -53.5t58 -144.5q0 -98 -64.5 -156.5t-179.5 -58.5q-103 0 -170 34v95q64 -39 154 -39q158 0 158 128q0 51 -35.5 79.5t-95.5 28.5q-76 0 -150 -35v371h339v-85h-242z" />
    <glyph glyph-name="six" unicode="6" horiz-adv-x="529" 
d="M283 76q52 0 82 37.5t30 98.5q0 57 -30 90t-80 33q-78 0 -138 -65q4 -97 41.5 -145.5t94.5 -48.5zM449 656v-95q-39 20 -91 20q-88 0 -141 -62.5t-67 -160.5q65 63 154 63t140.5 -57t51.5 -151q0 -100 -58 -163t-156 -63q-114 0 -174.5 85t-60.5 225q0 164 83.5 269
t223.5 105q50 0 95 -15z" />
    <glyph glyph-name="seven" unicode="7" horiz-adv-x="459" 
d="M14 654h431v-85l-266 -569h-105l267 569h-327v85z" />
    <glyph glyph-name="eight" unicode="8" horiz-adv-x="538" 
d="M267 75q61 0 93.5 30t32.5 74t-32 74t-94 30q-60 -1 -90.5 -32.5t-30.5 -77.5q0 -42 31 -70t90 -28zM266 579q-51 0 -80 -30t-29 -73q0 -51 31.5 -77.5t81.5 -26.5q47 0 77.5 27.5t30.5 77.5q0 44 -27.5 73t-84.5 29zM380 329q112 -38 112 -155q0 -83 -64 -133t-162 -50
q-96 0 -158 48.5t-62 129.5q0 116 111 159q-47 20 -73.5 58t-26.5 89q0 88 61 138t148 50q90 0 151 -48.5t61 -140.5q0 -99 -98 -145z" />
    <glyph glyph-name="nine" unicode="9" horiz-adv-x="512" 
d="M252 316q76 0 123 59q-2 91 -33.5 144.5t-94.5 53.5q-52 0 -83 -34.5t-31 -93.5q0 -60 32.5 -94.5t86.5 -34.5zM65 11v95q51 -23 108 -23q172 0 198 204q-48 -55 -143 -55q-82 0 -139.5 58t-57.5 153t57 157t155 62q112 0 170.5 -82.5t58.5 -213.5q0 -178 -75.5 -276
t-216.5 -98q-64 0 -115 19z" />
    <glyph glyph-name="colon" unicode=":" horiz-adv-x="250" 
d="M58 391q0 28 19.5 47.5t47.5 19.5t47.5 -19.5t19.5 -47.5t-19.5 -47.5t-47.5 -19.5q-29 0 -48 19t-19 48zM58 66q0 28 19.5 47.5t47.5 19.5t47.5 -19.5t19.5 -47.5t-19.5 -47.5t-47.5 -19.5q-29 0 -48 19.5t-19 47.5z" />
    <glyph glyph-name="semicolon" unicode=";" horiz-adv-x="245" 
d="M71 390q0 29 19 48.5t47 19.5q29 0 48.5 -20t19.5 -48t-19.5 -47t-48.5 -19q-28 0 -47 19t-19 47zM-8 -124l96 234h121l-131 -234h-86z" />
    <glyph glyph-name="less" unicode="&#x3c;" horiz-adv-x="545" 
d="M53 293v95l444 185v-100q-290 -107 -342 -132q24 -12 109.5 -45t159.5 -60l73 -28v-100z" />
    <glyph glyph-name="equal" unicode="=" horiz-adv-x="564" 
d="M53 403v84h457v-84h-457zM53 193v85h457v-85h-457z" />
    <glyph glyph-name="greater" unicode="&#x3e;" horiz-adv-x="545" 
d="M491 388v-95l-443 -185v100q288 107 342 133q-24 11 -109.5 44t-158.5 61l-74 27v100z" />
    <glyph glyph-name="question" unicode="?" horiz-adv-x="454" 
d="M51 548v97q65 37 157 37q95 0 152.5 -48.5t57.5 -134.5q0 -85 -58 -132t-129 -52l-1 -101h-93l-1 161q181 0 181 117q0 47 -30 75.5t-88 28.5q-74 0 -148 -48zM114 60q0 29 20 49t48 20q29 0 49 -20t20 -49t-20 -48.5t-49 -19.5t-48.5 19.5t-19.5 48.5z" />
    <glyph glyph-name="at" unicode="@" horiz-adv-x="926" 
d="M442 89q39 0 72.5 27.5t47.5 76.5q2 24 3 51q-16 103 -102 103q-50 0 -82.5 -41.5t-32.5 -105.5q0 -50 26.5 -80.5t67.5 -30.5zM615 -55l-4 -91q-75 -36 -181 -36q-174 0 -275 107.5t-101 271.5q0 122 60.5 222t162.5 155.5t222 55.5q161 0 272.5 -99.5t111.5 -263.5
q0 -115 -56 -183.5t-129 -68.5q-100 0 -128 93q-48 -95 -149 -95q-76 0 -120 55t-44 137q0 94 57 156t140 62q81 0 119 -67q0 9 1.5 30t2.5 33h80l-10 -103q-7 -90 -7 -120q0 -103 62 -103q41 0 68.5 46.5t27.5 121.5q0 138 -85 212.5t-217 74.5q-146 0 -248.5 -102
t-102.5 -250q0 -140 83 -217.5t203 -77.5q101 0 184 44z" />
    <glyph glyph-name="A" unicode="A" horiz-adv-x="660" 
d="M222 251h216l-11 34q-38 118 -62 195.5t-29 96.5l-5 19q-11 -47 -98 -311zM519 0l-53 165h-272l-54 -165h-109l233 674h135l230 -674h-110z" />
    <glyph glyph-name="B" unicode="B" horiz-adv-x="581" 
d="M176 85h132q127 0 127 105q0 51 -34.5 79.5t-102.5 28.5h-122v-213zM176 589v-207h93q75 0 111.5 30.5t36.5 79.5q0 43 -32.5 70t-98.5 27h-110zM73 674h221q106 0 167 -49.5t61 -130.5q0 -56 -31.5 -98t-80.5 -54q55 -10 92.5 -51t37.5 -110q0 -80 -54.5 -130.5
t-153.5 -50.5h-259v674z" />
    <glyph glyph-name="C" unicode="C" horiz-adv-x="605" 
d="M560 646v-101q-44 24 -79.5 33.5t-90.5 9.5q-101 0 -168.5 -68.5t-67.5 -181.5q0 -115 67 -183t177 -68q97 0 163 50v-104q-62 -41 -172 -41q-151 0 -247 94t-96 252q0 153 96.5 249t244.5 96q108 0 173 -37z" />
    <glyph glyph-name="D" unicode="D" horiz-adv-x="667" 
d="M178 87h106q115 0 175 72t60 185q0 104 -65 173t-173 69h-103v-499zM73 674h210q150 0 246 -93t96 -237q0 -150 -90.5 -247t-249.5 -97h-212v674z" />
    <glyph glyph-name="E" unicode="E" horiz-adv-x="514" 
d="M176 86h286v-86h-389v674h384v-86h-281v-208h249v-86h-249v-208z" />
    <glyph glyph-name="F" unicode="F" horiz-adv-x="494" 
d="M455 588h-279v-221h245v-86h-245v-281h-103v674h382v-86z" />
    <glyph glyph-name="G" unicode="G" horiz-adv-x="681" 
d="M615 385v-323h-1l1 -7q-87 -63 -218 -63q-158 0 -254.5 93t-96.5 253q0 155 97.5 251.5t247.5 96.5q117 0 196 -45v-106q-86 54 -192 54q-108 0 -174.5 -69t-66.5 -182q0 -116 65.5 -183t180.5 -67q60 0 114 22v186h-137v89h238z" />
    <glyph glyph-name="H" unicode="H" horiz-adv-x="656" 
d="M479 674h103v-674h-103v295h-303v-295h-103v674h103v-290h303v290z" />
    <glyph glyph-name="I" unicode="I" horiz-adv-x="264" 
d="M81 0v674h102v-674h-102z" />
    <glyph glyph-name="J" unicode="J" horiz-adv-x="368" 
d="M30 21v95q41 -25 82 -25q82 0 82 87v496h103v-492q0 -93 -45.5 -137.5t-122.5 -44.5q-62 0 -99 21z" />
    <glyph glyph-name="K" unicode="K" horiz-adv-x="599" 
d="M73 0v674h103v-674h-103zM312 334l262 -334h-130l-255 333l245 341h125z" />
    <glyph glyph-name="L" unicode="L" horiz-adv-x="480" 
d="M176 91h276v-91h-379v674h103v-583z" />
    <glyph glyph-name="M" unicode="M" horiz-adv-x="868" 
d="M64 0l52 674h122l90 -246q24 -63 48 -133.5t36 -109.5l13 -39q46 136 101 282l94 246h122l62 -674h-102l-24 264l-21 270q-45 -127 -98 -270l-94 -251h-81l-91 251l-91 266q0 -44 -16 -266l-20 -264h-102z" />
    <glyph glyph-name="N" unicode="N" horiz-adv-x="680" 
d="M73 0v674h122l166 -282q46 -79 83.5 -146t51.5 -94l14 -28q-6 91 -6 267v283h103v-674h-122l-167 281q-45 76 -82.5 143.5t-52.5 97.5l-15 29q8 -100 8 -269v-282h-103z" />
    <glyph glyph-name="O" unicode="O" horiz-adv-x="711" 
d="M46 340q0 157 84 252t225 95q144 0 227 -94.5t83 -252.5t-83.5 -253t-225.5 -95q-141 0 -225.5 95t-84.5 253zM154 340q0 -116 55 -184t147 -68q95 0 148 67t53 185q0 117 -53.5 184t-148.5 67q-94 0 -147.5 -67.5t-53.5 -183.5z" />
    <glyph glyph-name="P" unicode="P" horiz-adv-x="550" 
d="M176 324h88q73 0 111.5 36t38.5 95q0 62 -39 98t-113 36h-86v-265zM73 674h193q116 0 184 -61.5t68 -157.5t-68.5 -156t-177.5 -60h-96v-239h-103v674z" />
    <glyph glyph-name="Q" unicode="Q" horiz-adv-x="719" 
d="M154 340q0 -116 55 -184t147 -68q95 0 148 67t53 185q0 117 -53.5 184t-148.5 67q-94 0 -147.5 -67.5t-53.5 -183.5zM699 -99l-114 -45l-197 137q-11 -1 -32 -1q-141 0 -225.5 95t-84.5 253q0 157 84 252t225 95q144 0 227 -94.5t83 -252.5q0 -113 -44 -196t-124 -122z
" />
    <glyph glyph-name="R" unicode="R" horiz-adv-x="568" 
d="M176 588v-246h93q64 0 97 33.5t33 89.5q0 123 -135 123h-88zM423 0l-158 256h-89v-256h-103v674h188q116 0 179 -56.5t63 -153.5q-1 -71 -36 -120.5t-97 -71.5l176 -272h-123z" />
    <glyph glyph-name="S" unicode="S" horiz-adv-x="521" 
d="M437 647v-102q-67 42 -152 42q-55 0 -86.5 -24.5t-31.5 -64.5t31 -64t95 -52q42 -18 65.5 -31t54 -36.5t45 -56t14.5 -74.5q0 -89 -63 -140t-163 -51q-111 0 -184 43v107q79 -59 183 -59q55 0 87 25.5t32 70.5q0 27 -19 49.5t-41 34t-66 31.5q-26 12 -36.5 17t-34.5 18
t-35.5 22t-28.5 25t-24.5 32t-14 37.5t-6.5 46.5q0 86 62.5 136t161.5 50q91 0 155 -32z" />
    <glyph glyph-name="T" unicode="T" horiz-adv-x="500" 
d="M478 674v-86h-177v-588h-103v588h-176v86h456z" />
    <glyph glyph-name="U" unicode="U" horiz-adv-x="652" 
d="M478 256v418h103v-416q0 -131 -68 -199t-188 -68q-118 0 -186 66.5t-68 192.5v424h103v-423q0 -86 41.5 -125.5t109.5 -39.5q153 0 153 170z" />
    <glyph glyph-name="V" unicode="V" horiz-adv-x="643" 
d="M613 674l-233 -674h-122l-227 674h110l86 -268q28 -86 51 -164.5t32 -113.5l10 -36q32 120 96 314l87 268h110z" />
    <glyph glyph-name="W" unicode="W" horiz-adv-x="947" 
d="M432 664h91l71 -240l91 -317q37 182 69 317l59 250h104l-165 -674h-123l-64 213l-87 301q-23 -95 -84 -301l-62 -213h-124l-177 674h107l63 -249l74 -316q45 168 88 316z" />
    <glyph glyph-name="X" unicode="X" horiz-adv-x="628" 
d="M251 341l-204 333h119l143 -242q8 16 71.5 123.5t69.5 118.5h123l-204 -334l223 -340h-121l-160 253q-9 -17 -77 -128t-76 -125h-123z" />
    <glyph glyph-name="Y" unicode="Y" horiz-adv-x="608" 
d="M585 674l-231 -423v-251h-103v251l-228 423h118l48 -99q46 -93 74 -153t33 -74l6 -13q9 30 116 240l49 99h118z" />
    <glyph glyph-name="Z" unicode="Z" horiz-adv-x="584" 
d="M516 674v-79l-341 -510h355v-85h-476v81l340 508h-335v85h457z" />
    <glyph glyph-name="bracketleft" unicode="[" horiz-adv-x="325" 
d="M319 620h-150v-719h150v-87h-246v893h246v-87z" />
    <glyph glyph-name="backslash" unicode="\" horiz-adv-x="420" 
d="M65 707l363 -810h-101l-364 810h102z" />
    <glyph glyph-name="bracketright" unicode="]" horiz-adv-x="325" 
d="M252 707v-893h-245v87h150v719h-150v87h245z" />
    <glyph glyph-name="asciicircum" unicode="^" horiz-adv-x="470" 
d="M428 332h-95l-97 190l-99 -190h-96l145 262h100z" />
    <glyph glyph-name="underscore" unicode="_" horiz-adv-x="557" 
d="M26 -119v84h505v-84h-505z" />
    <glyph glyph-name="grave" unicode="`" horiz-adv-x="444" 
d="M230 798l95 -162h-84l-120 162h109z" />
    <glyph glyph-name="a" unicode="a" horiz-adv-x="499" 
d="M336 226h-76q-56 0 -84.5 -22t-28.5 -56q0 -35 22 -55t64 -20q48 0 75.5 26.5t27.5 69.5v57zM81 386v95q59 34 156 34q199 0 199 -193v-322h-97v60q-39 -64 -137 -64q-72 0 -115.5 41.5t-43.5 105.5q0 73 55 113.5t154 40.5h84v29q0 52 -25 78.5t-83 26.5q-81 0 -147 -45
z" />
    <glyph glyph-name="b" unicode="b" horiz-adv-x="582" 
d="M308 79q56 0 94 47.5t38 122.5q0 86 -38 132.5t-97 46.5q-52 0 -93.5 -42t-41.5 -129q0 -90 40 -134t98 -44zM170 707v-277q54 84 153 84q96 0 157 -72t61 -191q0 -107 -58 -182.5t-159 -75.5t-154 84v-77h-99v707h99z" />
    <glyph glyph-name="c" unicode="c" horiz-adv-x="471" 
d="M142 251q2 -77 47 -126.5t126 -49.5q60 0 112 33v-88q-49 -30 -125 -30q-119 0 -190 75t-71 187q0 109 71.5 186.5t193.5 77.5q66 0 121 -28v-90q-49 31 -111 31q-79 0 -126.5 -50t-47.5 -128z" />
    <glyph glyph-name="d" unicode="d" horiz-adv-x="580" 
d="M274 79q58 0 98 44t40 134q0 87 -41.5 129t-93.5 42q-59 0 -97 -46.5t-38 -132.5q0 -76 37.5 -123t94.5 -47zM412 707h99v-707h-99v77q-53 -84 -155 -84q-100 0 -158 75.5t-58 182.5q0 119 61 191t157 72q99 0 153 -84v277z" />
    <glyph glyph-name="e" unicode="e" horiz-adv-x="525" 
d="M384 290v18q-2 57 -31 90.5t-83 33.5q-50 0 -86 -36.5t-45 -105.5h245zM447 115v-88q-56 -32 -148 -32q-118 0 -188 71t-70 186q0 122 64 191.5t163 69.5q97 0 154 -60.5t57 -174.5q0 -31 -6 -65h-333q10 -66 56 -101t116 -35q81 0 135 38z" />
    <glyph glyph-name="f" unicode="f" horiz-adv-x="334" 
d="M330 708v-86q-23 10 -48 10q-73 0 -73 -87v-38h107v-76h-107v-431h-98v431h-81v76h81v39q0 79 42.5 124.5t119.5 45.5q28 0 57 -8z" />
    <glyph glyph-name="g" unicode="g" horiz-adv-x="559" 
d="M269 98q52 0 90.5 40.5t38.5 113.5q0 90 -36.5 133t-88.5 43q-59 0 -93 -46.5t-34 -122.5q0 -79 36.5 -120t86.5 -41zM398 507h98v-464q0 -117 -66.5 -176.5t-170.5 -59.5q-98 0 -165 33v99q64 -42 155 -42q149 0 149 147v52q-49 -82 -147 -82q-86 0 -147 63.5t-61 179.5
q0 112 57 184.5t151 72.5q101 0 147 -86v79z" />
    <glyph glyph-name="h" unicode="h" horiz-adv-x="551" 
d="M167 707v-287q43 94 157 94q74 0 119 -46t45 -128v-340h-98v320q0 52 -26.5 80.5t-69.5 28.5q-50 0 -88.5 -38t-38.5 -116v-275h-98v707h98z" />
    <glyph glyph-name="i" unicode="i" horiz-adv-x="245" 
d="M73 0v507h99v-507h-99zM61 662q0 26 17.5 44t43.5 18t44 -18t18 -44q0 -25 -18 -43t-44 -18t-43.5 17.5t-17.5 43.5z" />
    <glyph glyph-name="j" unicode="j" horiz-adv-x="242" 
d="M-44 -181v83q32 -16 64 -16q55 0 55 71v550h98v-552q0 -71 -37.5 -111t-106.5 -40q-32 0 -73 15zM62 662q0 26 17.5 44t43.5 18t44 -18t18 -44q0 -25 -18 -43t-44 -18q-25 0 -43 17.5t-18 43.5z" />
    <glyph glyph-name="k" unicode="k" horiz-adv-x="500" 
d="M69 0v700h98v-700h-98zM284 265l199 -265h-117l-195 265l191 242h115z" />
    <glyph glyph-name="l" unicode="l" horiz-adv-x="245" 
d="M73 0v707h99v-707h-99z" />
    <glyph glyph-name="m" unicode="m" horiz-adv-x="830" 
d="M167 507v-81q43 88 143 88q114 0 146 -98q21 47 61 72.5t90 25.5q78 0 118.5 -46t40.5 -127v-341h-98v320q0 109 -88 109q-44 0 -78.5 -39t-34.5 -115v-275h-98v320q0 109 -89 109q-43 0 -78 -39t-35 -115v-275h-98v507h98z" />
    <glyph glyph-name="n" unicode="n" horiz-adv-x="551" 
d="M167 507v-87q45 94 158 94q75 0 119 -46t44 -125v-343h-98v320q0 53 -26.5 81t-70.5 28q-52 0 -89 -40.5t-37 -113.5v-275h-98v507h98z" />
    <glyph glyph-name="o" unicode="o" horiz-adv-x="564" 
d="M281 -9q-112 0 -176 73t-64 185q0 114 66 189.5t174 75.5q116 0 179 -73.5t63 -187.5t-64.5 -188t-177.5 -74zM280 431q-65 0 -101 -51.5t-36 -127.5q0 -75 37 -126.5t101 -51.5q68 0 103.5 50t35.5 127q0 79 -34 129.5t-106 50.5z" />
    <glyph glyph-name="p" unicode="p" horiz-adv-x="580" 
d="M303 79q59 0 97 46.5t38 130.5q0 79 -37 125.5t-94 46.5t-98.5 -41.5t-41.5 -131.5q0 -88 41.5 -132t94.5 -44zM167 507v-78q52 85 156 85q100 0 158 -72.5t58 -184.5q0 -115 -59.5 -189.5t-158.5 -74.5q-101 0 -154 84v-271h-98v701h98z" />
    <glyph glyph-name="q" unicode="q" horiz-adv-x="580" 
d="M277 79q54 0 94.5 44t40.5 132q0 90 -41 131.5t-97 41.5q-57 0 -94.5 -47t-37.5 -125q0 -83 38.5 -130t96.5 -47zM412 507h99v-701h-99v272q-54 -85 -153 -85t-158.5 74.5t-59.5 189.5q0 112 58.5 184.5t158.5 72.5t154 -83v76z" />
    <glyph glyph-name="r" unicode="r" horiz-adv-x="339" 
d="M167 507v-89q37 94 133 94q14 0 31 -3v-96q-21 9 -47 9q-51 0 -84 -45t-33 -107v-270h-98v507h98z" />
    <glyph glyph-name="s" unicode="s" horiz-adv-x="419" 
d="M358 490v-89q-49 29 -126 29q-35 0 -55.5 -16t-20.5 -42q0 -7 1.5 -13.5t5.5 -13t7.5 -11t11.5 -9.5t12.5 -8.5t15 -8.5t15.5 -7.5t17.5 -8t17.5 -7.5q59 -26 92.5 -58.5t33.5 -86.5q0 -68 -48 -106.5t-130 -38.5q-90 0 -150 30v93q70 -43 145 -43q39 0 60.5 16t21.5 42
q0 22 -17 39.5t-34.5 26t-59.5 26.5q-119 49 -119 144q0 67 50 105t125 38q82 0 128 -22z" />
    <glyph glyph-name="t" unicode="t" horiz-adv-x="374" 
d="M196 431v-279q0 -73 70 -73q41 0 69 22v-88q-33 -18 -81 -18q-157 0 -157 159v277h-79v76h79v124h99v-124h133v-76h-133z" />
    <glyph glyph-name="u" unicode="u" horiz-adv-x="551" 
d="M384 507h98v-507h-98v87q-40 -93 -158 -93q-75 0 -119 44.5t-44 122.5v346h99v-322q0 -52 25.5 -79.5t70.5 -27.5q57 0 91.5 40t34.5 113v276z" />
    <glyph glyph-name="v" unicode="v" horiz-adv-x="514" 
d="M199 0l-180 507h103l69 -214q24 -74 40.5 -128t20.5 -71l4 -17q9 49 66 216l71 214h102l-184 -507h-112z" />
    <glyph glyph-name="w" unicode="w" horiz-adv-x="796" 
d="M178 0l-159 507h104l47 -168q23 -80 39 -141t20 -82l4 -21q13 63 66 245l49 167h95l50 -167q24 -83 41 -144.5t22 -81.5l4 -20q12 59 68 246l50 167h99l-161 -507h-112l-47 166q-21 76 -36.5 134.5t-20.5 79.5l-4 20q-14 -65 -61 -234l-46 -166h-111z" />
    <glyph glyph-name="x" unicode="x" horiz-adv-x="492" 
d="M300 257l169 -257h-111l-111 186l-117 -186h-108l173 258l-162 250h111l106 -179l109 179h110z" />
    <glyph glyph-name="y" unicode="y" horiz-adv-x="504" 
d="M209 11l-202 496h109l63 -165l79 -214q9 30 72 214l57 165h104l-183 -493q-73 -195 -223 -195q-27 0 -46 5v84q16 -4 34 -4q97 0 136 107z" />
    <glyph glyph-name="z" unicode="z" horiz-adv-x="461" 
d="M405 507v-70l-249 -354h262v-83h-375v75l246 350h-237v82h353z" />
    <glyph glyph-name="braceleft" unicode="{" horiz-adv-x="348" 
d="M46 212v96q14 0 25 1q41 4 64 36t23 75q0 21 -9 65.5t-9 69.5q0 70 40 114t98 44q26 0 53 -9v-94q-17 9 -33 9q-28 0 -43.5 -19t-15.5 -49q0 -23 9 -70.5t9 -75.5q0 -57 -32.5 -97t-87.5 -48q55 -8 87.5 -48.5t32.5 -97.5q0 -28 -9 -75.5t-9 -69.5q0 -30 15.5 -49.5
t43.5 -19.5q16 0 33 9v-94q-27 -9 -53 -9q-58 0 -98 44t-40 114q0 25 9 69.5t9 65.5q0 43 -22 74.5t-65 37.5q-9 1 -25 1z" />
    <glyph glyph-name="bar" unicode="|" horiz-adv-x="243" 
d="M76 -194v889h91v-889h-91z" />
    <glyph glyph-name="braceright" unicode="}" horiz-adv-x="348" 
d="M17 610v94q27 9 52 9q59 0 98.5 -43.5t39.5 -114.5q0 -25 -9 -69.5t-9 -65.5q0 -43 23 -75t65 -36q10 -1 25 -1v-96q-17 0 -25 -1q-44 -6 -66 -37.5t-22 -74.5q0 -21 9 -65.5t9 -69.5q0 -71 -39.5 -114.5t-98.5 -43.5q-25 0 -52 9v94q15 -9 32 -9q28 0 44 19.5t16 49.5
q0 22 -9 69.5t-9 75.5q0 57 32 97.5t87 48.5q-55 8 -87 48t-32 97q0 28 9 75.5t9 70.5q0 29 -16 48.5t-44 19.5q-17 0 -32 -9z" />
    <glyph glyph-name="asciitilde" unicode="~" horiz-adv-x="615" 
d="M510 341l71 -53q-63 -96 -152 -96q-51 0 -119.5 33.5t-97.5 33.5q-63 0 -112 -66l-66 56q69 99 160 99q45 0 86 -16.5t74.5 -33t60.5 -16.5q55 0 95 59z" />
    <glyph glyph-name="uni00A0" unicode="&#xa0;" horiz-adv-x="246" 
 />
    <glyph glyph-name="exclamdown" unicode="&#xa1;" horiz-adv-x="262" 
d="M62 449q0 29 19.5 48.5t48.5 19.5t49 -19.5t20 -48.5t-20.5 -49t-48.5 -20q-29 0 -48.5 20t-19.5 49zM83 -165v460h96v-460h-96z" />
    <glyph glyph-name="cent" unicode="&#xa2;" horiz-adv-x="460" 
d="M420 488v-88q-48 27 -102 27q-79 0 -127 -49.5t-49 -126.5q2 -76 48.5 -125t127.5 -49q54 0 102 28v-88q-34 -16 -79 -23v-105h-84v106q-99 16 -157.5 87t-58.5 170q1 97 58.5 169t157.5 88v108h84v-106q42 -5 79 -23z" />
    <glyph glyph-name="sterling" unicode="&#xa3;" horiz-adv-x="527" 
d="M177 85h313v-85h-434v82q52 26 72 63.5t20 104.5q0 11 -2 35h-86v75h78q-7 51 -7 81q0 104 55 161t157 57q69 0 117 -27v-96q-48 30 -102 30q-122 0 -122 -125q0 -25 6 -81h176v-75h-168q0 -6 0.5 -18t0.5 -17q0 -118 -74 -165z" />
    <glyph glyph-name="currency" unicode="&#xa4;" horiz-adv-x="551" 
d="M56 310q0 66 36 122l-60 60l61 59l60 -60q54 37 125 37q66 0 123 -34l58 57l60 -59l-58 -58q35 -55 35 -120q0 -68 -38 -124l61 -60l-60 -59l-62 60q-52 -35 -123 -35q-72 0 -123 33l-58 -58l-61 59l59 58q-35 50 -35 122zM140 312q0 -58 38.5 -97.5t97.5 -39.5
q60 0 98 39t38 98q0 58 -38.5 97.5t-97.5 39.5t-97.5 -39.5t-38.5 -97.5z" />
    <glyph glyph-name="yen" unicode="&#xa5;" horiz-adv-x="600" 
d="M571 654l-162 -292h117v-68h-155l-22 -40v-41h177v-68h-177v-145h-103v145h-176v68h176v41l-22 40h-154v68h116l-160 292h118l153 -300l157 300h117z" />
    <glyph glyph-name="brokenbar" unicode="&#xa6;" horiz-adv-x="243" 
d="M167 367h-91v333h91v-333zM167 -160h-91v333h91v-333z" />
    <glyph glyph-name="section" unicode="&#xa7;" horiz-adv-x="537" 
d="M153 297q0 -41 31.5 -65t103.5 -56q44 -18 73 -34q19 25 19 60q0 40 -28.5 63t-93.5 55q-9 4 -13 6q-12 5 -35 16t-35 17q-22 -28 -22 -62zM435 648v-102q-70 42 -152 42q-56 0 -86 -21t-30 -59q0 -17 6 -29.5t22.5 -24t29.5 -18.5t44 -21t50 -23q38 -18 61.5 -32
t49 -36.5t37.5 -53t12 -69.5q0 -70 -42 -117q38 -45 38 -102q0 -86 -61.5 -133t-162.5 -47q-111 0 -184 43v107q79 -59 183 -59q57 0 88.5 22.5t31.5 65.5q0 37 -30 60.5t-117 61.5q-81 36 -125.5 78.5t-44.5 115.5q0 65 43 115q-36 38 -36 93q0 83 61 129t159 46
q91 0 155 -32z" />
    <glyph glyph-name="dieresis" unicode="&#xa8;" horiz-adv-x="444" 
d="M51 719q0 26 17 43t44 17q26 0 43 -17.5t17 -42.5t-17 -42.5t-43 -17.5q-27 0 -44 17t-17 43zM272 719q0 25 17 42.5t43 17.5t43.5 -17t17.5 -43t-17.5 -43t-43.5 -17t-43 17.5t-17 42.5z" />
    <glyph glyph-name="copyright" unicode="&#xa9;" horiz-adv-x="772" 
d="M41 337q0 142 101.5 243.5t243.5 101.5t243.5 -101.5t101.5 -243.5t-101.5 -244t-243.5 -102t-243.5 102t-101.5 244zM116 336q0 -113 78.5 -191.5t192.5 -78.5q113 0 191 78.5t78 191.5t-78.5 192t-190.5 79q-114 0 -192.5 -79t-78.5 -192zM305 335q1 -48 31 -79.5
t77 -31.5q45 0 80 25v-74q-36 -21 -88 -21q-80 0 -131 52t-51 129t50 130.5t135 53.5q47 0 85 -21v-73q-34 22 -79 22q-47 0 -78 -30.5t-31 -81.5z" />
    <glyph glyph-name="ordfeminine" unicode="&#xaa;" horiz-adv-x="365" 
d="M251 582h-57q-50 0 -77 -17t-27 -49q0 -29 19 -45.5t55 -16.5q38 0 62.5 22.5t24.5 54.5v51zM36 718v79q51 29 132 29q86 0 126.5 -40.5t40.5 -121.5v-272h-82v53q-39 -57 -115 -57q-61 0 -97.5 34t-36.5 91q0 61 46.5 96t130.5 35h70v22q0 44 -21 66.5t-71 22.5
q-69 0 -123 -37z" />
    <glyph glyph-name="guillemotleft" unicode="&#xab;" horiz-adv-x="512" 
d="M284 415l-147 -162l147 -162h-107l-150 162l150 162h107zM479 415l-146 -162l146 -162h-106l-151 162l151 162h106z" />
    <glyph glyph-name="logicalnot" unicode="&#xac;" horiz-adv-x="565" 
d="M526 153h-87v177h-408v84h495v-261z" />
    <glyph glyph-name="uni00AD" unicode="&#xad;" horiz-adv-x="350" 
d="M53 225v84h244v-84h-244z" />
    <glyph glyph-name="registered" unicode="&#xae;" horiz-adv-x="462" 
d="M210 645v-63h24q29 0 29 32q0 31 -32 31h-21zM163 684h64q84 0 84 -70q0 -44 -36 -62l56 -88h-56l-48 80h-17v-80h-47v220zM232 397q76 0 122.5 47t46.5 123t-46.5 123.5t-122.5 47.5q-77 0 -123.5 -47.5t-46.5 -123.5t46.5 -123t123.5 -47zM231 787q96 0 158.5 -62
t62.5 -158t-62.5 -158t-158.5 -62t-158.5 62t-62.5 158t62.5 158t158.5 62z" />
    <glyph glyph-name="macron" unicode="&#xaf;" horiz-adv-x="444" 
d="M374 681h-304v68h304v-68z" />
    <glyph glyph-name="degree" unicode="&#xb0;" horiz-adv-x="380" 
d="M30 520q0 67 46.5 113t114.5 46t113.5 -45t45.5 -112q0 -68 -46.5 -113.5t-114.5 -45.5t-113.5 44.5t-45.5 112.5zM105 521q0 -36 25 -61.5t61 -25.5t60 25.5t24 61.5t-25 61.5t-61 25.5t-60 -25.5t-24 -61.5z" />
    <glyph glyph-name="plusminus" unicode="&#xb1;" horiz-adv-x="564" 
d="M53 30v84h457v-84h-457zM325 414h185v-85h-185v-160h-91v160h-181v85h181v160h91v-160z" />
    <glyph glyph-name="twosuperior" unicode="&#xb2;" horiz-adv-x="365" 
d="M43 392v57q190 141 190 238q0 33 -19.5 50.5t-52.5 17.5q-51 0 -105 -40v79q53 33 112 33q62 0 103.5 -35t41.5 -98q0 -59 -46 -120.5t-121 -116.5h181v-65h-284z" />
    <glyph glyph-name="threesuperior" unicode="&#xb3;" horiz-adv-x="333" 
d="M105 642h21q36 0 59 15.5t23 44.5q0 57 -66 57q-46 0 -94 -33v74q43 27 98 27q67 0 104 -33.5t37 -83.5q0 -40 -21 -65.5t-58 -33.5q38 -4 64 -32t26 -71q0 -53 -38 -86.5t-106 -33.5q-69 0 -119 25v70q53 -28 111 -28q35 0 54.5 16.5t19.5 43.5q0 62 -94 62h-21v65z" />
    <glyph glyph-name="acute" unicode="&#xb4;" horiz-adv-x="444" 
d="M121 636l95 162h109l-120 -162h-84z" />
    <glyph glyph-name="uni00B5" unicode="&#xb5;" horiz-adv-x="557" 
d="M390 507h98v-507h-98v72q-36 -78 -125 -78q-57 0 -98 29v-202h-98v686h98v-322q0 -51 32.5 -79t79.5 -28q53 0 82 39.5t29 113.5v276z" />
    <glyph glyph-name="paragraph" unicode="&#xb6;" horiz-adv-x="559" 
d="M297 674v-822h-82v482q-92 0 -143 48.5t-51 120.5q0 70 51.5 120.5t149.5 50.5h75zM405 -148l1 822h82v-822h-83z" />
    <glyph glyph-name="periodcentered" unicode="&#xb7;" horiz-adv-x="242" 
d="M54 300q0 28 19.5 47.5t48.5 19.5q28 0 47.5 -19.5t19.5 -47.5t-19.5 -48t-47.5 -20t-48 20t-20 48z" />
    <glyph glyph-name="cedilla" unicode="&#xb8;" horiz-adv-x="444" 
d="M301 -123q0 -56 -41 -94.5t-118 -39.5v68q82 5 82 69q0 32 -25 69h84q18 -25 18 -72z" />
    <glyph glyph-name="onesuperior" unicode="&#xb9;" horiz-adv-x="258" 
d="M10 678v75l122 70h62v-431h-75v346z" />
    <glyph glyph-name="ordmasculine" unicode="&#xba;" horiz-adv-x="395" 
d="M197 386q-93 0 -145.5 61.5t-52.5 156.5q0 97 54 160.5t144 63.5q96 0 147.5 -62t51.5 -158q0 -97 -52.5 -159.5t-146.5 -62.5zM196 759q-53 0 -82 -44t-29 -109q0 -64 30 -107.5t82 -43.5q55 0 83.5 42.5t28.5 108.5q0 67 -27 110t-86 43z" />
    <glyph glyph-name="guillemotright" unicode="&#xbb;" horiz-adv-x="514" 
d="M139 415l151 -162l-151 -162h-106l146 162l-146 162h106zM335 415l150 -162l-150 -162h-106l146 162l-146 162h106z" />
    <glyph glyph-name="onequarter" unicode="&#xbc;" horiz-adv-x="831" 
d="M158 280v346l-109 -59v75l122 69h62v-431h-75zM582 712h82l-444 -712h-82zM544 156h121v217zM797 156v-61h-59v-95h-73v95h-196v61l155 273h114v-273h59z" />
    <glyph glyph-name="onehalf" unicode="&#xbd;" horiz-adv-x="833" 
d="M516 0v57q190 141 190 238q0 33 -19.5 50.5t-52.5 17.5q-51 0 -105 -40v79q53 33 112 33q62 0 103.5 -35t41.5 -98q0 -59 -46 -120.5t-121 -116.5h181v-65h-284zM49 567v75l122 69h62v-431h-75v346zM138 0l444 712h82l-444 -712h-82z" />
    <glyph glyph-name="threequarters" unicode="&#xbe;" horiz-adv-x="876" 
d="M71 614v74q43 27 97 27q68 0 105 -33.5t37 -84.5q0 -39 -21 -65t-58 -34q37 -3 63.5 -31t26.5 -71q0 -54 -38 -87t-106 -33q-69 0 -119 25v70q52 -28 111 -28q34 0 54 16.5t20 43.5q0 62 -94 62h-22v64h22q35 0 58.5 16t23.5 45q0 57 -66 57q-48 0 -94 -33zM637 712h83
l-445 -712h-82zM600 156h120v217zM852 156v-61h-59v-95h-73v95h-196v61l155 273h114v-273h59z" />
    <glyph glyph-name="questiondown" unicode="&#xbf;" horiz-adv-x="454" 
d="M418 -39v-97q-68 -37 -158 -37q-95 0 -152 48.5t-57 134.5q0 59 31 101.5t71.5 61.5t84.5 22l1 101h93l1 -162q-181 0 -181 -116q0 -47 29.5 -75.5t88.5 -28.5q75 0 148 47zM355 449q0 -29 -19.5 -48.5t-48.5 -19.5t-49 19.5t-20 48.5t20 48.5t49 19.5t48.5 -19.5
t19.5 -48.5z" />
    <glyph glyph-name="Agrave" unicode="&#xc0;" horiz-adv-x="660" 
d="M369 725h-84l-120 162h109zM222 251h216l-11 34q-38 118 -62 195.5t-29 96.5l-5 19q-11 -47 -98 -311zM519 0l-53 165h-272l-54 -165h-109l233 674h135l230 -674h-110z" />
    <glyph glyph-name="Aacute" unicode="&#xc1;" horiz-adv-x="660" 
d="M502 887l-120 -162h-84l95 162h109zM222 251h216l-11 34q-38 118 -62 195.5t-29 96.5l-5 19q-11 -47 -98 -311zM519 0l-53 165h-272l-54 -165h-109l233 674h135l230 -674h-110z" />
    <glyph glyph-name="Acircumflex" unicode="&#xc2;" horiz-adv-x="660" 
d="M332 827l-82 -102h-97l135 162h90l135 -162h-97zM222 251h216l-11 34q-38 118 -62 195.5t-29 96.5l-5 19q-11 -47 -98 -311zM519 0l-53 165h-272l-54 -165h-109l233 674h135l230 -674h-110z" />
    <glyph glyph-name="Atilde" unicode="&#xc3;" horiz-adv-x="660" 
d="M453 868l56 -42q-35 -74 -109 -74q-29 0 -69.5 20.5t-56.5 20.5q-23 0 -38.5 -11t-31.5 -35l-49 45q14 31 42.5 52.5t62.5 21.5q32 0 74 -20.5t61 -20.5q37 0 58 43zM222 251h216l-11 34q-38 118 -62 195.5t-29 96.5l-5 19q-11 -47 -98 -311zM519 0l-53 165h-272
l-54 -165h-109l233 674h135l230 -674h-110z" />
    <glyph glyph-name="Adieresis" unicode="&#xc4;" horiz-adv-x="660" 
d="M445 747q-25 0 -42.5 17.5t-17.5 42.5t17.5 42.5t42.5 17.5q26 0 43.5 -17t17.5 -43t-17.5 -43t-43.5 -17zM225 747q-27 0 -44 17t-17 43t17 43t44 17q25 0 42.5 -17.5t17.5 -42.5t-17.5 -42.5t-42.5 -17.5zM222 251h216l-11 34q-38 118 -62 195.5t-29 96.5l-5 19
q-11 -47 -98 -311zM519 0l-53 165h-272l-54 -165h-109l233 674h135l230 -674h-110z" />
    <glyph glyph-name="Aring" unicode="&#xc5;" horiz-adv-x="660" 
d="M333 885q-22 0 -37.5 -16t-15.5 -38t15.5 -38.5t37.5 -16.5q23 0 38.5 16.5t15.5 38.5t-15.5 38t-38.5 16zM333 715q-47 0 -80.5 33.5t-33.5 80.5q0 48 33.5 82t80.5 34q48 0 82 -34t34 -82q0 -47 -34 -80.5t-82 -33.5zM222 251h216l-11 34q-38 118 -62 195.5t-29 96.5
l-5 19q-11 -47 -98 -311zM519 0l-53 165h-272l-54 -165h-109l233 674h135l230 -674h-110z" />
    <glyph glyph-name="AE" unicode="&#xc6;" horiz-adv-x="897" 
d="M266 251h193v357q-56 -113 -174 -323zM559 86h286v-86h-386v165h-241l-91 -165h-108l366 674h455v-86h-281v-208h249v-86h-249v-208z" />
    <glyph glyph-name="Ccedilla" unicode="&#xc7;" horiz-adv-x="605" 
d="M328 -51h84q18 -25 18 -72q0 -56 -41 -94.5t-118 -39.5v68q82 5 82 69q0 32 -25 69zM560 646v-101q-44 24 -79.5 33.5t-90.5 9.5q-101 0 -168.5 -68.5t-67.5 -181.5q0 -115 67 -183t177 -68q97 0 163 50v-104q-62 -41 -172 -41q-151 0 -247 94t-96 252q0 153 96.5 249
t244.5 96q108 0 173 -37z" />
    <glyph glyph-name="Egrave" unicode="&#xc8;" horiz-adv-x="514" 
d="M327 725h-84l-120 162h109zM176 86h286v-86h-389v674h384v-86h-281v-208h249v-86h-249v-208z" />
    <glyph glyph-name="Eacute" unicode="&#xc9;" horiz-adv-x="514" 
d="M442 887l-120 -162h-84l95 162h109zM176 86h286v-86h-389v674h384v-86h-281v-208h249v-86h-249v-208z" />
    <glyph glyph-name="Ecircumflex" unicode="&#xca;" horiz-adv-x="514" 
d="M272 827l-82 -102h-97l135 162h90l135 -162h-97zM176 86h286v-86h-389v674h384v-86h-281v-208h249v-86h-249v-208z" />
    <glyph glyph-name="Edieresis" unicode="&#xcb;" horiz-adv-x="514" 
d="M379 746q-25 0 -42.5 17t-17.5 43t17.5 43t42.5 17q26 0 43.5 -17t17.5 -43t-17.5 -43t-43.5 -17zM159 746q-27 0 -44 17t-17 43t17 43t44 17q25 0 42.5 -17t17.5 -43t-17.5 -43t-42.5 -17zM176 86h286v-86h-389v674h384v-86h-281v-208h249v-86h-249v-208z" />
    <glyph glyph-name="Igrave" unicode="&#xcc;" horiz-adv-x="264" 
d="M81 0v674h102v-674h-102zM74 887l95 -162h-84l-120 162h109z" />
    <glyph glyph-name="Iacute" unicode="&#xcd;" horiz-adv-x="264" 
d="M81 0v674h102v-674h-102zM94 725l95 162h109l-120 -162h-84z" />
    <glyph glyph-name="Icircumflex" unicode="&#xce;" horiz-adv-x="264" 
d="M88 887h90l135 -162h-97l-84 102l-82 -102h-97zM81 0v674h102v-674h-102z" />
    <glyph glyph-name="Idieresis" unicode="&#xcf;" horiz-adv-x="264" 
d="M81 0v674h102v-674h-102zM-36 807q0 26 17 43t44 17q25 0 42.5 -17.5t17.5 -42.5t-17.5 -42.5t-42.5 -17.5q-27 0 -44 17t-17 43zM185 807q0 25 17.5 42.5t42.5 17.5q26 0 43.5 -17t17.5 -43t-17.5 -43t-43.5 -17q-25 0 -42.5 17.5t-17.5 42.5z" />
    <glyph glyph-name="Eth" unicode="&#xd0;" horiz-adv-x="736" 
d="M246 87h106q116 0 176 72t60 185q0 104 -65.5 173t-173.5 69h-103v-208h164v-84h-164v-207zM142 674h209q150 0 246 -93t96 -237q0 -150 -90.5 -247t-249.5 -97h-211v294h-80v84h80v296z" />
    <glyph glyph-name="Ntilde" unicode="&#xd1;" horiz-adv-x="680" 
d="M73 0v674h122l166 -282q46 -79 83.5 -146t51.5 -94l14 -28q-6 91 -6 267v283h103v-674h-122l-167 281q-45 76 -82.5 143.5t-52.5 97.5l-15 29q8 -100 8 -269v-282h-103zM469 868l56 -42q-35 -74 -109 -74q-29 0 -69.5 20.5t-56.5 20.5q-23 0 -38.5 -11t-31.5 -35l-49 45
q14 31 42.5 52.5t62.5 21.5q32 0 74 -20.5t61 -20.5q37 0 58 43z" />
    <glyph glyph-name="Ograve" unicode="&#xd2;" horiz-adv-x="711" 
d="M46 340q0 157 84 252t225 95q144 0 227 -94.5t83 -252.5t-83.5 -253t-225.5 -95q-141 0 -225.5 95t-84.5 253zM154 340q0 -116 55 -184t147 -68q95 0 148 67t53 185q0 117 -53.5 184t-148.5 67q-94 0 -147.5 -67.5t-53.5 -183.5zM312 887l95 -162h-84l-120 162h109z" />
    <glyph glyph-name="Oacute" unicode="&#xd3;" horiz-adv-x="711" 
d="M320 725l95 162h109l-120 -162h-84zM46 340q0 157 84 252t225 95q144 0 227 -94.5t83 -252.5t-83.5 -253t-225.5 -95q-141 0 -225.5 95t-84.5 253zM154 340q0 -116 55 -184t147 -68q95 0 148 67t53 185q0 117 -53.5 184t-148.5 67q-94 0 -147.5 -67.5t-53.5 -183.5z" />
    <glyph glyph-name="Ocircumflex" unicode="&#xd4;" horiz-adv-x="711" 
d="M154 340q0 -116 55 -184t147 -68q95 0 148 67t53 185q0 117 -53.5 184t-148.5 67q-94 0 -147.5 -67.5t-53.5 -183.5zM46 340q0 157 84 252t225 95q144 0 227 -94.5t83 -252.5t-83.5 -253t-225.5 -95q-141 0 -225.5 95t-84.5 253zM317 887h90l135 -162h-97l-84 102
l-82 -102h-97z" />
    <glyph glyph-name="Otilde" unicode="&#xd5;" horiz-adv-x="711" 
d="M46 340q0 157 84 252t225 95q144 0 227 -94.5t83 -252.5t-83.5 -253t-225.5 -95q-141 0 -225.5 95t-84.5 253zM154 340q0 -116 55 -184t147 -68q95 0 148 67t53 185q0 117 -53.5 184t-148.5 67q-94 0 -147.5 -67.5t-53.5 -183.5zM478 869l56 -42q-35 -74 -109 -74
q-29 0 -69.5 20.5t-56.5 20.5q-23 0 -38.5 -11t-31.5 -35l-49 45q14 31 42.5 52.5t62.5 21.5q32 0 74 -20.5t61 -20.5q37 0 58 43z" />
    <glyph glyph-name="Odieresis" unicode="&#xd6;" horiz-adv-x="711" 
d="M190 807q0 26 17 43t44 17q25 0 42.5 -17.5t17.5 -42.5t-17.5 -42.5t-42.5 -17.5q-27 0 -44 17t-17 43zM411 807q0 25 17.5 42.5t42.5 17.5q26 0 43.5 -17t17.5 -43t-17.5 -43t-43.5 -17q-25 0 -42.5 17.5t-17.5 42.5zM46 340q0 157 84 252t225 95q144 0 227 -94.5
t83 -252.5t-83.5 -253t-225.5 -95q-141 0 -225.5 95t-84.5 253zM154 340q0 -116 55 -184t147 -68q95 0 148 67t53 185q0 117 -53.5 184t-148.5 67q-94 0 -147.5 -67.5t-53.5 -183.5z" />
    <glyph glyph-name="multiply" unicode="&#xd7;" horiz-adv-x="503" 
d="M447 472l-133 -132l131 -130l-63 -63l-131 130l-130 -129l-64 63l130 130l-133 132l63 63l133 -132l133 132z" />
    <glyph glyph-name="Oslash" unicode="&#xd8;" horiz-adv-x="686" 
d="M520 497l-282 -379q48 -34 113 -34q96 0 149.5 68.5t53.5 187.5q0 94 -34 157zM182 182l282 380q-45 33 -114 33q-95 0 -149.5 -68.5t-54.5 -186.5q0 -94 36 -158zM661 686l-76 -103q75 -94 75 -243q0 -158 -83.5 -253t-225.5 -95q-98 0 -171 48l-36 -48h-104l77 104
q-77 94 -77 244q0 157 84 252t226 95q98 0 172 -47l35 46h104z" />
    <glyph glyph-name="Ugrave" unicode="&#xd9;" horiz-adv-x="652" 
d="M478 256v418h103v-416q0 -131 -68 -199t-188 -68q-118 0 -186 66.5t-68 192.5v424h103v-423q0 -86 41.5 -125.5t109.5 -39.5q153 0 153 170zM277 887l95 -162h-84l-120 162h109z" />
    <glyph glyph-name="Uacute" unicode="&#xda;" horiz-adv-x="652" 
d="M297 725l95 162h109l-120 -162h-84zM478 256v418h103v-416q0 -131 -68 -199t-188 -68q-118 0 -186 66.5t-68 192.5v424h103v-423q0 -86 41.5 -125.5t109.5 -39.5q153 0 153 170z" />
    <glyph glyph-name="Ucircumflex" unicode="&#xdb;" horiz-adv-x="652" 
d="M478 256v418h103v-416q0 -131 -68 -199t-188 -68q-118 0 -186 66.5t-68 192.5v424h103v-423q0 -86 41.5 -125.5t109.5 -39.5q153 0 153 170zM282 887h90l135 -162h-97l-84 102l-82 -102h-97z" />
    <glyph glyph-name="Udieresis" unicode="&#xdc;" horiz-adv-x="652" 
d="M157 807q0 26 17 43t44 17q26 0 43 -17.5t17 -42.5t-17 -42.5t-43 -17.5q-27 0 -44 17t-17 43zM378 807q0 25 17 42.5t43 17.5t43.5 -17t17.5 -43t-17.5 -43t-43.5 -17t-43 17.5t-17 42.5zM478 256v418h103v-416q0 -131 -68 -199t-188 -68q-118 0 -186 66.5t-68 192.5
v424h103v-423q0 -86 41.5 -125.5t109.5 -39.5q153 0 153 170z" />
    <glyph glyph-name="Yacute" unicode="&#xdd;" horiz-adv-x="608" 
d="M482 887l-120 -162h-84l95 162h109zM585 674l-231 -423v-251h-103v251l-228 423h118l48 -99q46 -93 74 -153t33 -74l6 -13q9 30 116 240l49 99h118z" />
    <glyph glyph-name="Thorn" unicode="&#xde;" horiz-adv-x="544" 
d="M176 205h89q72 0 108 35.5t36 92.5q0 61 -36.5 98.5t-113.5 37.5h-83v-264zM176 554h85q119 0 185.5 -60.5t66.5 -158.5q0 -97 -67 -156t-179 -59h-91v-120h-103v674h103v-120z" />
    <glyph glyph-name="germandbls" unicode="&#xdf;" horiz-adv-x="558" 
d="M264 8v90q43 -24 90 -24q37 0 59.5 18t22.5 48q0 24 -15 44.5t-37 37t-44 34t-37 42t-15 54.5q0 40 37 90t37 84t-24 54.5t-64 20.5q-106 0 -106 -111v-490h-97v486q0 100 54 152t148 52q84 0 136.5 -46.5t52.5 -112.5q0 -42 -18 -74.5t-35.5 -55t-17.5 -41.5t22 -40
t48 -39.5t48 -55t22 -82.5q0 -67 -46 -109t-126 -42q-59 0 -95 16z" />
    <glyph glyph-name="agrave" unicode="&#xe0;" horiz-adv-x="499" 
d="M301 558h-84l-120 162h109zM336 226h-76q-56 0 -84.5 -22t-28.5 -56q0 -35 22 -55t64 -20q48 0 75.5 26.5t27.5 69.5v57zM81 386v95q59 34 156 34q199 0 199 -193v-322h-97v60q-39 -64 -137 -64q-72 0 -115.5 41.5t-43.5 105.5q0 73 55 113.5t154 40.5h84v29
q0 52 -25 78.5t-83 26.5q-81 0 -147 -45z" />
    <glyph glyph-name="aacute" unicode="&#xe1;" horiz-adv-x="499" 
d="M419 720l-120 -162h-84l95 162h109zM336 226h-76q-56 0 -84.5 -22t-28.5 -56q0 -35 22 -55t64 -20q48 0 75.5 26.5t27.5 69.5v57zM81 386v95q59 34 156 34q199 0 199 -193v-322h-97v60q-39 -64 -137 -64q-72 0 -115.5 41.5t-43.5 105.5q0 73 55 113.5t154 40.5h84v29
q0 52 -25 78.5t-83 26.5q-81 0 -147 -45z" />
    <glyph glyph-name="acircumflex" unicode="&#xe2;" horiz-adv-x="499" 
d="M254 660l-82 -102h-97l135 162h90l135 -162h-97zM336 226h-76q-56 0 -84.5 -22t-28.5 -56q0 -35 22 -55t64 -20q48 0 75.5 26.5t27.5 69.5v57zM81 386v95q59 34 156 34q199 0 199 -193v-322h-97v60q-39 -64 -137 -64q-72 0 -115.5 41.5t-43.5 105.5q0 73 55 113.5
t154 40.5h84v29q0 52 -25 78.5t-83 26.5q-81 0 -147 -45z" />
    <glyph glyph-name="atilde" unicode="&#xe3;" horiz-adv-x="499" 
d="M373 701l56 -42q-35 -74 -109 -74q-29 0 -69.5 20.5t-56.5 20.5q-23 0 -38.5 -11t-31.5 -35l-49 45q14 31 42.5 52.5t62.5 21.5q32 0 74 -20.5t61 -20.5q37 0 58 43zM336 226h-76q-56 0 -84.5 -22t-28.5 -56q0 -35 22 -55t64 -20q48 0 75.5 26.5t27.5 69.5v57zM81 386v95
q59 34 156 34q199 0 199 -193v-322h-97v60q-39 -64 -137 -64q-72 0 -115.5 41.5t-43.5 105.5q0 73 55 113.5t154 40.5h84v29q0 52 -25 78.5t-83 26.5q-81 0 -147 -45z" />
    <glyph glyph-name="adieresis" unicode="&#xe4;" horiz-adv-x="499" 
d="M366 578q-26 0 -43 17t-17 43t17 43t43 17t43.5 -17t17.5 -43t-17.5 -43t-43.5 -17zM146 578q-27 0 -44 17t-17 43t17 43t44 17q26 0 43 -17t17 -43t-17 -43t-43 -17zM336 226h-76q-56 0 -84.5 -22t-28.5 -56q0 -35 22 -55t64 -20q48 0 75.5 26.5t27.5 69.5v57zM81 386
v95q59 34 156 34q199 0 199 -193v-322h-97v60q-39 -64 -137 -64q-72 0 -115.5 41.5t-43.5 105.5q0 73 55 113.5t154 40.5h84v29q0 52 -25 78.5t-83 26.5q-81 0 -147 -45z" />
    <glyph glyph-name="aring" unicode="&#xe5;" horiz-adv-x="499" 
d="M256 718q-22 0 -37.5 -16t-15.5 -38t15.5 -38.5t37.5 -16.5q23 0 38.5 16.5t15.5 38.5t-15.5 38t-38.5 16zM256 548q-47 0 -80.5 33.5t-33.5 80.5q0 48 33.5 82t80.5 34q48 0 82 -34t34 -82q0 -47 -34 -80.5t-82 -33.5zM336 226h-76q-56 0 -84.5 -22t-28.5 -56
q0 -35 22 -55t64 -20q48 0 75.5 26.5t27.5 69.5v57zM81 386v95q59 34 156 34q199 0 199 -193v-322h-97v60q-39 -64 -137 -64q-72 0 -115.5 41.5t-43.5 105.5q0 73 55 113.5t154 40.5h84v29q0 52 -25 78.5t-83 26.5q-81 0 -147 -45z" />
    <glyph glyph-name="ae" unicode="&#xe6;" horiz-adv-x="816" 
d="M341 175v50h-67q-123 0 -123 -78q0 -34 22 -53.5t65 -19.5q44 0 73.5 27.5t29.5 73.5zM681 290v18q-1 59 -31 91.5t-81 32.5q-50 0 -86.5 -36t-45.5 -106h244zM770 213h-331q11 -66 56.5 -101t111.5 -35q80 0 134 38v-88q-56 -32 -143 -32q-63 0 -118.5 26.5t-84.5 74.5
q-19 -44 -64.5 -72.5t-114.5 -28.5q-77 0 -122.5 40t-45.5 108q0 73 55.5 114t155.5 41h82v28q0 52 -25 78.5t-83 26.5q-80 0 -147 -44v93q58 35 152 35q125 0 160 -85q56 83 170 83q99 0 153.5 -61t54.5 -177q0 -28 -6 -62z" />
    <glyph glyph-name="ccedilla" unicode="&#xe7;" horiz-adv-x="471" 
d="M142 251q2 -77 47 -126.5t126 -49.5q60 0 112 33v-88q-49 -30 -125 -30q-119 0 -190 75t-71 187q0 109 71.5 186.5t193.5 77.5q66 0 121 -28v-90q-49 31 -111 31q-79 0 -126.5 -50t-47.5 -128zM348 -123q0 -56 -41 -94.5t-118 -39.5v68q82 5 82 69q0 32 -25 69h84
q18 -25 18 -72z" />
    <glyph glyph-name="egrave" unicode="&#xe8;" horiz-adv-x="525" 
d="M324 558h-84l-120 162h109zM384 290v18q-2 57 -31 90.5t-83 33.5q-50 0 -86 -36.5t-45 -105.5h245zM447 115v-88q-56 -32 -148 -32q-118 0 -188 71t-70 186q0 122 64 191.5t163 69.5q97 0 154 -60.5t57 -174.5q0 -31 -6 -65h-333q10 -66 56 -101t116 -35q81 0 135 38z
" />
    <glyph glyph-name="eacute" unicode="&#xe9;" horiz-adv-x="525" 
d="M448 720l-120 -162h-84l95 162h109zM384 290v18q-2 57 -31 90.5t-83 33.5q-50 0 -86 -36.5t-45 -105.5h245zM447 115v-88q-56 -32 -148 -32q-118 0 -188 71t-70 186q0 122 64 191.5t163 69.5q97 0 154 -60.5t57 -174.5q0 -31 -6 -65h-333q10 -66 56 -101t116 -35
q81 0 135 38z" />
    <glyph glyph-name="ecircumflex" unicode="&#xea;" horiz-adv-x="525" 
d="M277 660l-82 -102h-97l135 162h90l135 -162h-97zM384 290v18q-2 57 -31 90.5t-83 33.5q-50 0 -86 -36.5t-45 -105.5h245zM447 115v-88q-56 -32 -148 -32q-118 0 -188 71t-70 186q0 122 64 191.5t163 69.5q97 0 154 -60.5t57 -174.5q0 -31 -6 -65h-333q10 -66 56 -101
t116 -35q81 0 135 38z" />
    <glyph glyph-name="edieresis" unicode="&#xeb;" horiz-adv-x="525" 
d="M392 580q-26 0 -43 17t-17 43t17 43t43 17t43.5 -17t17.5 -43t-17.5 -43t-43.5 -17zM172 580q-27 0 -44 17t-17 43t17 43t44 17q26 0 43 -17t17 -43t-17 -43t-43 -17zM384 290v18q-2 57 -31 90.5t-83 33.5q-50 0 -86 -36.5t-45 -105.5h245zM447 115v-88q-56 -32 -148 -32
q-118 0 -188 71t-70 186q0 122 64 191.5t163 69.5q97 0 154 -60.5t57 -174.5q0 -31 -6 -65h-333q10 -66 56 -101t116 -35q81 0 135 38z" />
    <glyph glyph-name="igrave" unicode="&#xec;" horiz-adv-x="245" 
d="M73 0v507h99v-507h-99zM63 720l95 -162h-84l-120 162h109z" />
    <glyph glyph-name="iacute" unicode="&#xed;" horiz-adv-x="245" 
d="M73 0v507h99v-507h-99zM88 558l95 162h109l-120 -162h-84z" />
    <glyph glyph-name="icircumflex" unicode="&#xee;" horiz-adv-x="245" 
d="M79 720h90l135 -162h-97l-84 102l-82 -102h-97zM73 0v507h99v-507h-99z" />
    <glyph glyph-name="idieresis" unicode="&#xef;" horiz-adv-x="245" 
d="M73 0v507h99v-507h-99zM-48 641q0 26 17 43t44 17q25 0 42.5 -17.5t17.5 -42.5t-17.5 -42.5t-42.5 -17.5q-27 0 -44 17t-17 43zM173 641q0 25 17.5 42.5t42.5 17.5q26 0 43.5 -17t17.5 -43t-17.5 -43t-43.5 -17q-25 0 -42.5 17.5t-17.5 42.5z" />
    <glyph glyph-name="eth" unicode="&#xf0;" horiz-adv-x="528" 
d="M256 80q53 0 89 40t41 130q-54 69 -135 69q-50 0 -81 -32t-31 -89q0 -54 32.5 -86t84.5 -32zM461 609l-80 -40q102 -134 102 -294q0 -135 -60 -209.5t-167 -74.5q-99 0 -159 62t-60 150q0 93 57.5 148t141.5 55q87 0 146 -62q-17 99 -81 185l-141 -71v67l100 50
q-57 58 -130 99h142q37 -25 69 -58l120 60v-67z" />
    <glyph glyph-name="ntilde" unicode="&#xf1;" horiz-adv-x="551" 
d="M404 701l56 -42q-35 -74 -109 -74q-29 0 -69.5 20.5t-56.5 20.5q-23 0 -38.5 -11t-31.5 -35l-49 45q14 31 42.5 52.5t62.5 21.5q32 0 74 -20.5t61 -20.5q37 0 58 43zM167 507v-87q45 94 158 94q75 0 119 -46t44 -125v-343h-98v320q0 53 -26.5 81t-70.5 28
q-52 0 -89 -40.5t-37 -113.5v-275h-98v507h98z" />
    <glyph glyph-name="ograve" unicode="&#xf2;" horiz-adv-x="564" 
d="M281 -9q-112 0 -176 73t-64 185q0 114 66 189.5t174 75.5q116 0 179 -73.5t63 -187.5t-64.5 -188t-177.5 -74zM280 431q-65 0 -101 -51.5t-36 -127.5q0 -75 37 -126.5t101 -51.5q68 0 103.5 50t35.5 127q0 79 -34 129.5t-106 50.5zM234 720l95 -162h-84l-120 162h109z
" />
    <glyph glyph-name="oacute" unicode="&#xf3;" horiz-adv-x="564" 
d="M252 558l95 162h109l-120 -162h-84zM281 -9q-112 0 -176 73t-64 185q0 114 66 189.5t174 75.5q116 0 179 -73.5t63 -187.5t-64.5 -188t-177.5 -74zM280 431q-65 0 -101 -51.5t-36 -127.5q0 -75 37 -126.5t101 -51.5q68 0 103.5 50t35.5 127q0 79 -34 129.5t-106 50.5z
" />
    <glyph glyph-name="ocircumflex" unicode="&#xf4;" horiz-adv-x="564" 
d="M280 431q-65 0 -101 -51.5t-36 -127.5q0 -75 37 -126.5t101 -51.5q68 0 103.5 50t35.5 127q0 79 -34 129.5t-106 50.5zM281 -9q-112 0 -176 73t-64 185q0 114 66 189.5t174 75.5q116 0 179 -73.5t63 -187.5t-64.5 -188t-177.5 -74zM240 719h90l135 -162h-97l-84 102
l-82 -102h-97z" />
    <glyph glyph-name="otilde" unicode="&#xf5;" horiz-adv-x="564" 
d="M281 -9q-112 0 -176 73t-64 185q0 114 66 189.5t174 75.5q116 0 179 -73.5t63 -187.5t-64.5 -188t-177.5 -74zM280 431q-65 0 -101 -51.5t-36 -127.5q0 -75 37 -126.5t101 -51.5q68 0 103.5 50t35.5 127q0 79 -34 129.5t-106 50.5zM406 701l56 -42q-35 -74 -109 -74
q-29 0 -69.5 20.5t-56.5 20.5q-23 0 -38.5 -11t-31.5 -35l-49 45q14 31 42.5 52.5t62.5 21.5q32 0 74 -20.5t61 -20.5q37 0 58 43z" />
    <glyph glyph-name="odieresis" unicode="&#xf6;" horiz-adv-x="564" 
d="M120 639q0 26 17 43t44 17q25 0 42.5 -17.5t17.5 -42.5t-17.5 -42.5t-42.5 -17.5q-27 0 -44 17t-17 43zM341 639q0 25 17.5 42.5t42.5 17.5q26 0 43.5 -17t17.5 -43t-17.5 -43t-43.5 -17q-25 0 -42.5 17.5t-17.5 42.5zM281 -9q-112 0 -176 73t-64 185q0 114 66 189.5
t174 75.5q116 0 179 -73.5t63 -187.5t-64.5 -188t-177.5 -74zM280 431q-65 0 -101 -51.5t-36 -127.5q0 -75 37 -126.5t101 -51.5q68 0 103.5 50t35.5 127q0 79 -34 129.5t-106 50.5z" />
    <glyph glyph-name="divide" unicode="&#xf7;" horiz-adv-x="564" 
d="M221 518q0 24 17.5 41.5t41.5 17.5t41.5 -17.5t17.5 -41.5t-17.5 -42t-41.5 -18t-41.5 18t-17.5 42zM53 296v88h457v-88h-457zM221 162q0 24 17.5 42t41.5 18t41.5 -18t17.5 -42t-17.5 -41.5t-41.5 -17.5t-41.5 17.5t-17.5 41.5z" />
    <glyph glyph-name="oslash" unicode="&#xf8;" horiz-adv-x="563" 
d="M418 360l-203 -272q32 -23 76 -23q72 0 110 52.5t38 133.5q0 66 -21 109zM166 147l202 272q-32 21 -78 21q-70 0 -108.5 -54t-38.5 -134q0 -59 23 -105zM533 514l-59 -79q59 -71 59 -182q0 -114 -65 -188t-178 -74q-71 0 -124 31l-23 -31h-93l59 79q-59 71 -59 179
q0 114 66 189.5t174 75.5q73 0 126 -31l23 31h94z" />
    <glyph glyph-name="ugrave" unicode="&#xf9;" horiz-adv-x="551" 
d="M318 557h-84l-120 162h109zM384 507h98v-507h-98v87q-40 -93 -158 -93q-75 0 -119 44.5t-44 122.5v346h99v-322q0 -52 25.5 -79.5t70.5 -27.5q57 0 91.5 40t34.5 113v276z" />
    <glyph glyph-name="uacute" unicode="&#xfa;" horiz-adv-x="551" 
d="M444 720l-120 -162h-84l95 162h109zM384 507h98v-507h-98v87q-40 -93 -158 -93q-75 0 -119 44.5t-44 122.5v346h99v-322q0 -52 25.5 -79.5t70.5 -27.5q57 0 91.5 40t34.5 113v276z" />
    <glyph glyph-name="ucircumflex" unicode="&#xfb;" horiz-adv-x="551" 
d="M274 660l-82 -102h-97l135 162h90l135 -162h-97zM384 507h98v-507h-98v87q-40 -93 -158 -93q-75 0 -119 44.5t-44 122.5v346h99v-322q0 -52 25.5 -79.5t70.5 -27.5q57 0 91.5 40t34.5 113v276z" />
    <glyph glyph-name="udieresis" unicode="&#xfc;" horiz-adv-x="551" 
d="M385 579q-25 0 -42.5 17.5t-17.5 42.5t17.5 42.5t42.5 17.5q26 0 43.5 -17t17.5 -43t-17.5 -43t-43.5 -17zM165 579q-27 0 -44 17t-17 43t17 43t44 17q25 0 42.5 -17.5t17.5 -42.5t-17.5 -42.5t-42.5 -17.5zM384 507h98v-507h-98v87q-40 -93 -158 -93q-75 0 -119 44.5
t-44 122.5v346h99v-322q0 -52 25.5 -79.5t70.5 -27.5q57 0 91.5 40t34.5 113v276z" />
    <glyph glyph-name="yacute" unicode="&#xfd;" horiz-adv-x="504" 
d="M223 558l95 162h109l-120 -162h-84zM209 11l-202 496h109l63 -165l79 -214q9 30 72 214l57 165h104l-183 -493q-73 -195 -223 -195q-27 0 -46 5v84q16 -4 34 -4q97 0 136 107z" />
    <glyph glyph-name="thorn" unicode="&#xfe;" horiz-adv-x="580" 
d="M303 79q59 0 97 46.5t38 130.5q0 79 -37 125.5t-94 46.5t-98.5 -41.5t-41.5 -131.5q0 -88 41.5 -132t94.5 -44zM167 707v-278q52 85 156 85q100 0 158 -72.5t58 -184.5q0 -115 -59.5 -189.5t-158.5 -74.5q-101 0 -154 84v-271h-98v901h98z" />
    <glyph glyph-name="ydieresis" unicode="&#xff;" horiz-adv-x="504" 
d="M311 639q0 25 17.5 42.5t42.5 17.5q26 0 43.5 -17t17.5 -43t-17.5 -43t-43.5 -17q-25 0 -42.5 17.5t-17.5 42.5zM90 639q0 26 17 43t44 17q25 0 42.5 -17.5t17.5 -42.5t-17.5 -42.5t-42.5 -17.5q-27 0 -44 17t-17 43zM209 11l-202 496h109l63 -165l79 -214q9 30 72 214
l57 165h104l-183 -493q-73 -195 -223 -195q-27 0 -46 5v84q16 -4 34 -4q97 0 136 107z" />
    <glyph glyph-name="Amacron" unicode="&#x100;" horiz-adv-x="660" 
d="M486 841v-68h-304v68h304zM222 251h216l-11 34q-38 118 -62 195.5t-29 96.5l-5 19q-11 -47 -98 -311zM519 0l-53 165h-272l-54 -165h-109l233 674h135l230 -674h-110z" />
    <glyph glyph-name="amacron" unicode="&#x101;" horiz-adv-x="499" 
d="M403 673v-68h-304v68h304zM336 226h-76q-56 0 -84.5 -22t-28.5 -56q0 -35 22 -55t64 -20q48 0 75.5 26.5t27.5 69.5v57zM81 386v95q59 34 156 34q199 0 199 -193v-322h-97v60q-39 -64 -137 -64q-72 0 -115.5 41.5t-43.5 105.5q0 73 55 113.5t154 40.5h84v29
q0 52 -25 78.5t-83 26.5q-81 0 -147 -45z" />
    <glyph glyph-name="Abreve" unicode="&#x102;" horiz-adv-x="660" 
d="M426 887h78q0 -79 -45 -122t-129 -43t-129 43t-45 122h78q0 -44 24 -71t72 -27t72 27t24 71zM222 251h216l-11 34q-38 118 -62 195.5t-29 96.5l-5 19q-11 -47 -98 -311zM519 0l-53 165h-272l-54 -165h-109l233 674h135l230 -674h-110z" />
    <glyph glyph-name="abreve" unicode="&#x103;" horiz-adv-x="499" 
d="M347 719h78q0 -79 -45 -122t-129 -43t-129 43t-45 122h78q0 -44 24 -71t72 -27t72 27t24 71zM336 226h-76q-56 0 -84.5 -22t-28.5 -56q0 -35 22 -55t64 -20q48 0 75.5 26.5t27.5 69.5v57zM81 386v95q59 34 156 34q199 0 199 -193v-322h-97v60q-39 -64 -137 -64
q-72 0 -115.5 41.5t-43.5 105.5q0 73 55 113.5t154 40.5h84v29q0 52 -25 78.5t-83 26.5q-81 0 -147 -45z" />
    <glyph glyph-name="Aogonek" unicode="&#x104;" horiz-adv-x="656" 
d="M219 251h217l-11 34l-97 311q-10 -47 -98 -311zM397 674l230 -674q-114 -60 -114 -127q0 -51 58 -51q39 0 74 24v-72q-36 -21 -88 -21q-62 0 -94.5 31.5t-32.5 80.5q0 81 84 143l-50 157h-273l-53 -165h-109l232 674h136z" />
    <glyph glyph-name="aogonek" unicode="&#x105;" horiz-adv-x="497" 
d="M336 225h-67q-123 0 -123 -78q0 -34 22 -53.5t65 -19.5q46 0 74.5 26.5t28.5 64.5v60zM436 322v-322q-114 -61 -114 -127q0 -51 58 -51q39 0 74 24v-72q-36 -21 -88 -21q-62 0 -94.5 31.5t-32.5 80.5q0 87 100 150v48q-47 -67 -137 -67q-72 0 -115.5 40.5t-43.5 106.5
q0 73 55.5 114t155.5 41h82v28q0 52 -25 78.5t-83 26.5q-80 0 -147 -44v93q58 35 156 35q199 0 199 -193z" />
    <glyph glyph-name="Cacute" unicode="&#x106;" horiz-adv-x="605" 
d="M560 646v-101q-44 24 -79.5 33.5t-90.5 9.5q-101 0 -168.5 -68.5t-67.5 -181.5q0 -115 67 -183t177 -68q97 0 163 50v-104q-62 -41 -172 -41q-151 0 -247 94t-96 252q0 153 96.5 249t244.5 96q108 0 173 -37zM323 725l95 162h109l-120 -162h-84z" />
    <glyph glyph-name="cacute" unicode="&#x107;" horiz-adv-x="471" 
d="M253 557l95 162h109l-120 -162h-84zM142 251q2 -77 47 -126.5t126 -49.5q60 0 112 33v-88q-49 -30 -125 -30q-119 0 -190 75t-71 187q0 109 71.5 186.5t193.5 77.5q66 0 121 -28v-90q-49 31 -111 31q-79 0 -126.5 -50t-47.5 -128z" />
    <glyph glyph-name="Ccaron" unicode="&#x10c;" horiz-adv-x="605" 
d="M560 646v-101q-44 24 -79.5 33.5t-90.5 9.5q-101 0 -168.5 -68.5t-67.5 -181.5q0 -115 67 -183t177 -68q97 0 163 50v-104q-62 -41 -172 -41q-151 0 -247 94t-96 252q0 153 96.5 249t244.5 96q108 0 173 -37zM418 725h-90l-135 162h97l83 -102l83 102h97z" />
    <glyph glyph-name="ccaron" unicode="&#x10d;" horiz-adv-x="471" 
d="M427 488v-90q-49 31 -111 31q-79 0 -126.5 -50t-47.5 -128q2 -77 47 -126.5t126 -49.5q60 0 112 33v-88q-49 -30 -125 -30q-119 0 -190 75t-71 187q0 109 71.5 186.5t193.5 77.5q66 0 121 -28zM321 558h-90l-135 162h97l83 -102l83 102h97z" />
    <glyph glyph-name="Dcaron" unicode="&#x10e;" horiz-adv-x="667" 
d="M355 725h-90l-135 162h97l83 -102l83 102h97zM178 87h106q115 0 175 72t60 185q0 104 -65 173t-173 69h-103v-499zM73 674h210q150 0 246 -93t96 -237q0 -150 -90.5 -247t-249.5 -97h-212v674z" />
    <glyph glyph-name="dcaron" unicode="&#x10f;" horiz-adv-x="685" 
d="M274 79q58 0 98 44t40 134q0 87 -41.5 129t-93.5 42q-59 0 -97 -46.5t-38 -132.5q0 -76 37.5 -123t94.5 -47zM412 430v277h99v-707h-99v77q-53 -84 -155 -84q-100 0 -158 75.5t-58 182.5q0 119 61 191t157 72q99 0 153 -84zM646 707h109l-113 -197h-77z" />
    <glyph glyph-name="Dcroat" unicode="&#x110;" horiz-adv-x="736" 
d="M246 87h106q116 0 176 72t60 185q0 104 -65.5 173t-173.5 69h-103v-208h164v-84h-164v-207zM142 674h209q150 0 246 -93t96 -237q0 -150 -90.5 -247t-249.5 -97h-211v294h-80v84h80v296z" />
    <glyph glyph-name="dcroat" unicode="&#x111;" horiz-adv-x="580" 
d="M274 79q58 0 98 44t40 134q0 87 -41.5 129t-93.5 42q-59 0 -97 -46.5t-38 -132.5q0 -76 37.5 -123t94.5 -47zM578 643v-63h-67v-580h-99v77q-53 -84 -155 -84q-100 0 -158 75.5t-58 182.5q0 119 61 191t157 72q99 0 153 -84v150h-181v63h181v64h99v-64h67z" />
    <glyph glyph-name="Emacron" unicode="&#x112;" horiz-adv-x="514" 
d="M418 842v-68h-304v68h304zM176 86h286v-86h-389v674h384v-86h-281v-208h249v-86h-249v-208z" />
    <glyph glyph-name="emacron" unicode="&#x113;" horiz-adv-x="525" 
d="M426 673v-68h-304v68h304zM384 290v18q-2 57 -31 90.5t-83 33.5q-50 0 -86 -36.5t-45 -105.5h245zM447 115v-88q-56 -32 -148 -32q-118 0 -188 71t-70 186q0 122 64 191.5t163 69.5q97 0 154 -60.5t57 -174.5q0 -31 -6 -65h-333q10 -66 56 -101t116 -35q81 0 135 38z" />
    <glyph glyph-name="Edotaccent" unicode="&#x116;" horiz-adv-x="514" 
d="M277 748q-26 0 -43.5 17t-17.5 43t17.5 43t43.5 17t43 -17t17 -43t-17 -43t-43 -17zM176 86h286v-86h-389v674h384v-86h-281v-208h249v-86h-249v-208z" />
    <glyph glyph-name="edotaccent" unicode="&#x117;" horiz-adv-x="525" 
d="M281 580q-26 0 -43.5 17t-17.5 43t17.5 43t43.5 17t43 -17t17 -43t-17 -43t-43 -17zM384 290v18q-2 57 -31 90.5t-83 33.5q-50 0 -86 -36.5t-45 -105.5h245zM447 115v-88q-56 -32 -148 -32q-118 0 -188 71t-70 186q0 122 64 191.5t163 69.5q97 0 154 -60.5t57 -174.5
q0 -31 -6 -65h-333q10 -66 56 -101t116 -35q81 0 135 38z" />
    <glyph glyph-name="Eogonek" unicode="&#x118;" horiz-adv-x="514" 
d="M462 0h-63q-114 -61 -114 -127q0 -51 58 -51q41 0 74 24v-72q-36 -21 -87 -21q-62 0 -94.5 31.5t-32.5 80.5q0 74 78 135h-208v674h384v-86h-281v-208h249v-86h-249v-208h286v-86z" />
    <glyph glyph-name="eogonek" unicode="&#x119;" horiz-adv-x="525" 
d="M384 290v18q-2 57 -31 90.5t-83 33.5q-50 0 -86 -36.5t-45 -105.5h245zM407 -145v-72q-36 -21 -87 -21q-62 0 -94.5 31.5t-32.5 80.5q0 67 64 124q-100 13 -158 82t-58 172q0 122 64 191.5t163 69.5q97 0 154 -60.5t57 -174.5q0 -31 -6 -65h-333q10 -66 56 -101t116 -35
q81 0 135 38v-88q-27 -15 -68 -23q-104 -59 -104 -122q0 -51 58 -51q41 0 74 24z" />
    <glyph glyph-name="Ecaron" unicode="&#x11a;" horiz-adv-x="514" 
d="M319 725h-90l-135 162h97l83 -102l83 102h97zM176 86h286v-86h-389v674h384v-86h-281v-208h249v-86h-249v-208z" />
    <glyph glyph-name="ecaron" unicode="&#x11b;" horiz-adv-x="525" 
d="M319 558h-90l-135 162h97l83 -102l83 102h97zM384 290v18q-2 57 -31 90.5t-83 33.5q-50 0 -86 -36.5t-45 -105.5h245zM447 115v-88q-56 -32 -148 -32q-118 0 -188 71t-70 186q0 122 64 191.5t163 69.5q97 0 154 -60.5t57 -174.5q0 -31 -6 -65h-333q10 -66 56 -101
t116 -35q81 0 135 38z" />
    <glyph glyph-name="Gbreve" unicode="&#x11e;" horiz-adv-x="681" 
d="M467 887h78q0 -79 -45 -122t-129 -43t-129 43t-45 122h78q0 -44 24 -71t72 -27t72 27t24 71zM615 385v-323h-1l1 -7q-87 -63 -218 -63q-158 0 -254.5 93t-96.5 253q0 155 97.5 251.5t247.5 96.5q117 0 196 -45v-106q-86 54 -192 54q-108 0 -174.5 -69t-66.5 -182
q0 -116 65.5 -183t180.5 -67q60 0 114 22v186h-137v89h238z" />
    <glyph glyph-name="gbreve" unicode="&#x11f;" horiz-adv-x="559" 
d="M393 720h78q0 -79 -45 -122t-129 -43t-129 43t-45 122h78q0 -44 24 -71t72 -27t72 27t24 71zM269 98q52 0 90.5 40.5t38.5 113.5q0 90 -36.5 133t-88.5 43q-59 0 -93 -46.5t-34 -122.5q0 -79 36.5 -120t86.5 -41zM398 507h98v-464q0 -117 -66.5 -176.5t-170.5 -59.5
q-98 0 -165 33v99q64 -42 155 -42q149 0 149 147v52q-49 -82 -147 -82q-86 0 -147 63.5t-61 179.5q0 112 57 184.5t151 72.5q101 0 147 -86v79z" />
    <glyph glyph-name="uni0122" unicode="&#x122;" horiz-adv-x="681" 
d="M240 -249l81 198h109l-113 -198h-77zM615 385v-323h-1l1 -7q-87 -63 -218 -63q-158 0 -254.5 93t-96.5 253q0 155 97.5 251.5t247.5 96.5q117 0 196 -45v-106q-86 54 -192 54q-108 0 -174.5 -69t-66.5 -182q0 -116 65.5 -183t180.5 -67q60 0 114 22v186h-137v89h238z" />
    <glyph glyph-name="uni0123" unicode="&#x123;" horiz-adv-x="559" 
d="M447 755l-80 -197h-109l113 197h76zM269 98q52 0 90.5 40.5t38.5 113.5q0 90 -36.5 133t-88.5 43q-59 0 -93 -46.5t-34 -122.5q0 -79 36.5 -120t86.5 -41zM398 507h98v-464q0 -117 -66.5 -176.5t-170.5 -59.5q-98 0 -165 33v99q64 -42 155 -42q149 0 149 147v52
q-49 -82 -147 -82q-86 0 -147 63.5t-61 179.5q0 112 57 184.5t151 72.5q101 0 147 -86v79z" />
    <glyph glyph-name="Imacron" unicode="&#x12a;" horiz-adv-x="264" 
d="M81 0v674h102v-674h-102zM284 772h-304v68h304v-68z" />
    <glyph glyph-name="imacron" unicode="&#x12b;" horiz-adv-x="245" 
d="M73 0v507h99v-507h-99zM275 605h-304v68h304v-68z" />
    <glyph glyph-name="Iogonek" unicode="&#x12e;" horiz-adv-x="264" 
d="M183 674v-674q-114 -61 -114 -127q0 -51 58 -51q41 0 74 24v-72q-36 -21 -87 -21q-62 0 -94.5 31.5t-32.5 80.5q0 83 94 146v663h102z" />
    <glyph glyph-name="iogonek" unicode="&#x12f;" horiz-adv-x="245" 
d="M122 601q-26 0 -43.5 17.5t-17.5 43.5t17.5 44t43.5 18t44 -18t18 -44q0 -25 -18 -43t-44 -18zM172 507v-507q-114 -61 -114 -127q0 -51 58 -51q41 0 74 24v-72q-36 -21 -87 -21q-62 0 -94.5 31.5t-32.5 80.5q0 85 97 148v494h99z" />
    <glyph glyph-name="Idotaccent" unicode="&#x130;" horiz-adv-x="264" 
d="M81 0v674h102v-674h-102zM72 808q0 26 17.5 43t43.5 17t43 -17t17 -43t-17 -43t-43 -17t-43.5 17t-17.5 43z" />
    <glyph glyph-name="dotlessi" unicode="&#x131;" horiz-adv-x="245" 
d="M73 0v507h99v-507h-99z" />
    <glyph glyph-name="uni0136" unicode="&#x136;" horiz-adv-x="599" 
d="M176 674v-674h-103v674h103zM172 -249l81 198h109l-113 -198h-77zM312 334l262 -334h-130l-255 333l245 341h125z" />
    <glyph glyph-name="uni0137" unicode="&#x137;" horiz-adv-x="500" 
d="M167 700v-700h-98v700h98zM126 -249l81 198h109l-113 -198h-77zM284 265l199 -265h-117l-195 265l191 242h115z" />
    <glyph glyph-name="Lacute" unicode="&#x139;" horiz-adv-x="480" 
d="M460 887l-120 -162h-84l95 162h109zM176 674v-583h276v-91h-379v674h103z" />
    <glyph glyph-name="lacute" unicode="&#x13a;" horiz-adv-x="245" 
d="M82 758l95 162h109l-120 -162h-84zM73 0v707h99v-707h-99z" />
    <glyph glyph-name="uni013B" unicode="&#x13b;" horiz-adv-x="480" 
d="M139 -249l81 198h109l-113 -198h-77zM176 91h276v-91h-379v674h103v-583z" />
    <glyph glyph-name="uni013C" unicode="&#x13c;" horiz-adv-x="245" 
d="M73 0v707h99v-707h-99zM-13 -249l81 198h109l-113 -198h-77z" />
    <glyph glyph-name="Lcaron" unicode="&#x13d;" horiz-adv-x="480" 
d="M447 701l-113 -198h-77l81 198h109zM176 91h276v-91h-379v674h103v-583z" />
    <glyph glyph-name="lcaron" unicode="&#x13e;" horiz-adv-x="264" 
d="M73 0v707h99v-707h-99zM237 510l80 198h109l-113 -198h-76z" />
    <glyph glyph-name="Lslash" unicode="&#x141;" horiz-adv-x="518" 
d="M207 91h276v-91h-378v233l-71 -46v90l71 46v351h102v-285l154 99v-90l-154 -99v-208z" />
    <glyph glyph-name="lslash" unicode="&#x142;" horiz-adv-x="306" 
d="M282 508v-90l-82 -57v-361h-99v291l-70 -49v91l70 49v325h99v-256z" />
    <glyph glyph-name="Nacute" unicode="&#x143;" horiz-adv-x="680" 
d="M319 725l95 162h109l-120 -162h-84zM73 0v674h122l166 -282q46 -79 83.5 -146t51.5 -94l14 -28q-6 91 -6 267v283h103v-674h-122l-167 281q-45 76 -82.5 143.5t-52.5 97.5l-15 29q8 -100 8 -269v-282h-103z" />
    <glyph glyph-name="nacute" unicode="&#x144;" horiz-adv-x="551" 
d="M468 720l-120 -162h-84l95 162h109zM167 507v-87q45 94 158 94q75 0 119 -46t44 -125v-343h-98v320q0 53 -26.5 81t-70.5 28q-52 0 -89 -40.5t-37 -113.5v-275h-98v507h98z" />
    <glyph glyph-name="uni0145" unicode="&#x145;" horiz-adv-x="680" 
d="M215 -249l81 198h109l-113 -198h-77zM73 0v674h122l166 -282q46 -79 83.5 -146t51.5 -94l14 -28q-6 91 -6 267v283h103v-674h-122l-167 281q-45 76 -82.5 143.5t-52.5 97.5l-15 29q8 -100 8 -269v-282h-103z" />
    <glyph glyph-name="uni0146" unicode="&#x146;" horiz-adv-x="551" 
d="M149 -249l81 198h109l-113 -198h-77zM167 507v-87q45 94 158 94q75 0 119 -46t44 -125v-343h-98v320q0 53 -26.5 81t-70.5 28q-52 0 -89 -40.5t-37 -113.5v-275h-98v507h98z" />
    <glyph glyph-name="Ncaron" unicode="&#x147;" horiz-adv-x="680" 
d="M73 0v674h122l166 -282q46 -79 83.5 -146t51.5 -94l14 -28q-6 91 -6 267v283h103v-674h-122l-167 281q-45 76 -82.5 143.5t-52.5 97.5l-15 29q8 -100 8 -269v-282h-103zM398 725h-90l-135 162h97l83 -102l83 102h97z" />
    <glyph glyph-name="ncaron" unicode="&#x148;" horiz-adv-x="551" 
d="M336 558h-90l-135 162h97l83 -102l83 102h97zM167 507v-87q45 94 158 94q75 0 119 -46t44 -125v-343h-98v320q0 53 -26.5 81t-70.5 28q-52 0 -89 -40.5t-37 -113.5v-275h-98v507h98z" />
    <glyph glyph-name="Omacron" unicode="&#x14c;" horiz-adv-x="711" 
d="M508 772h-304v68h304v-68zM46 340q0 157 84 252t225 95q144 0 227 -94.5t83 -252.5t-83.5 -253t-225.5 -95q-141 0 -225.5 95t-84.5 253zM154 340q0 -116 55 -184t147 -68q95 0 148 67t53 185q0 117 -53.5 184t-148.5 67q-94 0 -147.5 -67.5t-53.5 -183.5z" />
    <glyph glyph-name="omacron" unicode="&#x14d;" horiz-adv-x="564" 
d="M436 605h-304v68h304v-68zM281 -9q-112 0 -176 73t-64 185q0 114 66 189.5t174 75.5q116 0 179 -73.5t63 -187.5t-64.5 -188t-177.5 -74zM280 431q-65 0 -101 -51.5t-36 -127.5q0 -75 37 -126.5t101 -51.5q68 0 103.5 50t35.5 127q0 79 -34 129.5t-106 50.5z" />
    <glyph glyph-name="Ohungarumlaut" unicode="&#x150;" horiz-adv-x="711" 
d="M413 725l100 162h109l-134 -162h-75zM248 725l94 162h103l-122 -162h-75zM46 340q0 157 84 252t225 95q144 0 227 -94.5t83 -252.5t-83.5 -253t-225.5 -95q-141 0 -225.5 95t-84.5 253zM154 340q0 -116 55 -184t147 -68q95 0 148 67t53 185q0 117 -53.5 184t-148.5 67
q-94 0 -147.5 -67.5t-53.5 -183.5z" />
    <glyph glyph-name="ohungarumlaut" unicode="&#x151;" horiz-adv-x="564" 
d="M345 558l100 162h109l-134 -162h-75zM180 558l94 162h103l-122 -162h-75zM281 -9q-112 0 -176 73t-64 185q0 114 66 189.5t174 75.5q116 0 179 -73.5t63 -187.5t-64.5 -188t-177.5 -74zM280 431q-65 0 -101 -51.5t-36 -127.5q0 -75 37 -126.5t101 -51.5q68 0 103.5 50
t35.5 127q0 79 -34 129.5t-106 50.5z" />
    <glyph glyph-name="OE" unicode="&#x152;" horiz-adv-x="988" 
d="M351 88q94 0 145.5 67t51.5 185t-51.5 184.5t-146.5 66.5q-93 0 -144.5 -67t-51.5 -184t53 -184.5t144 -67.5zM646 86h291v-86h-389v72q-78 -80 -197 -80q-140 0 -222.5 95t-82.5 253t81.5 252.5t222.5 94.5q121 0 198 -79v66h384v-86h-286v-208h254v-86h-254v-208z" />
    <glyph glyph-name="oe" unicode="&#x153;" horiz-adv-x="889" 
d="M752 290v22q-2 57 -32 88.5t-80 31.5t-86.5 -36t-45.5 -106h244zM275 74q67 0 100.5 49.5t33.5 127.5q0 80 -31.5 130t-102.5 50q-65 0 -98.5 -51t-33.5 -128q0 -76 34.5 -127t97.5 -51zM813 115v-88q-58 -32 -147 -32q-133 0 -204 93q-64 -97 -187 -97q-111 0 -172.5 73
t-61.5 185q0 115 63.5 190t170.5 75q122 0 184 -91q66 90 180 90q99 0 153.5 -61t54.5 -177q0 -28 -6 -62h-332q11 -65 57 -100.5t113 -35.5q80 0 134 38z" />
    <glyph glyph-name="Racute" unicode="&#x154;" horiz-adv-x="568" 
d="M440 887l-120 -162h-84l95 162h109zM176 588v-246h93q64 0 97 33.5t33 89.5q0 123 -135 123h-88zM423 0l-158 256h-89v-256h-103v674h188q116 0 179 -56.5t63 -153.5q-1 -71 -36 -120.5t-97 -71.5l176 -272h-123z" />
    <glyph glyph-name="racute" unicode="&#x155;" horiz-adv-x="339" 
d="M370 720l-120 -162h-84l95 162h109zM167 507v-89q37 94 133 94q14 0 31 -3v-96q-21 9 -47 9q-51 0 -84 -45t-33 -107v-270h-98v507h98z" />
    <glyph glyph-name="uni0156" unicode="&#x156;" horiz-adv-x="568" 
d="M159 -249l81 198h109l-113 -198h-77zM176 588v-246h93q64 0 97 33.5t33 89.5q0 123 -135 123h-88zM370 272l176 -272h-123l-158 256h-89v-256h-103v674h188q116 0 179 -56.5t63 -153.5q-1 -71 -36 -120.5t-97 -71.5z" />
    <glyph glyph-name="uni0157" unicode="&#x157;" horiz-adv-x="339" 
d="M-20 -249l81 198h109l-113 -198h-77zM167 507v-89q37 94 133 94q14 0 31 -3v-96q-21 9 -47 9q-51 0 -84 -45t-33 -107v-270h-98v507h98z" />
    <glyph glyph-name="Rcaron" unicode="&#x158;" horiz-adv-x="568" 
d="M335 725h-90l-135 162h97l83 -102l83 102h97zM176 588v-246h93q64 0 97 33.5t33 89.5q0 123 -135 123h-88zM423 0l-158 256h-89v-256h-103v674h188q116 0 179 -56.5t63 -153.5q-1 -71 -36 -120.5t-97 -71.5l176 -272h-123z" />
    <glyph glyph-name="rcaron" unicode="&#x159;" horiz-adv-x="339" 
d="M250 558h-90l-135 162h97l83 -102l83 102h97zM167 507v-89q37 94 133 94q14 0 31 -3v-96q-21 9 -47 9q-51 0 -84 -45t-33 -107v-270h-98v507h98z" />
    <glyph glyph-name="Sacute" unicode="&#x15a;" horiz-adv-x="521" 
d="M234 725l95 162h109l-120 -162h-84zM437 647v-102q-67 42 -152 42q-55 0 -86.5 -24.5t-31.5 -64.5t31 -64t95 -52q42 -18 65.5 -31t54 -36.5t45 -56t14.5 -74.5q0 -89 -63 -140t-163 -51q-111 0 -184 43v107q79 -59 183 -59q55 0 87 25.5t32 70.5q0 27 -19 49.5t-41 34
t-66 31.5q-26 12 -36.5 17t-34.5 18t-35.5 22t-28.5 25t-24.5 32t-14 37.5t-6.5 46.5q0 86 62.5 136t161.5 50q91 0 155 -32z" />
    <glyph glyph-name="sacute" unicode="&#x15b;" horiz-adv-x="419" 
d="M186 558l95 162h109l-120 -162h-84zM358 490v-89q-49 29 -126 29q-35 0 -55.5 -16t-20.5 -42q0 -7 1.5 -13.5t5.5 -13t7.5 -11t11.5 -9.5t12.5 -8.5t15 -8.5t15.5 -7.5t17.5 -8t17.5 -7.5q59 -26 92.5 -58.5t33.5 -86.5q0 -68 -48 -106.5t-130 -38.5q-90 0 -150 30v93
q70 -43 145 -43q39 0 60.5 16t21.5 42q0 22 -17 39.5t-34.5 26t-59.5 26.5q-119 49 -119 144q0 67 50 105t125 38q82 0 128 -22z" />
    <glyph glyph-name="uni015E" unicode="&#x15e;" horiz-adv-x="521" 
d="M437 647v-102q-67 42 -152 42q-55 0 -86.5 -24.5t-31.5 -64.5t31 -64t95 -52q42 -18 65.5 -31t54 -36.5t45 -56t14.5 -74.5q0 -89 -63 -140t-163 -51q-111 0 -184 43v107q79 -59 183 -59q55 0 87 25.5t32 70.5q0 27 -19 49.5t-41 34t-66 31.5q-26 12 -36.5 17t-34.5 18
t-35.5 22t-28.5 25t-24.5 32t-14 37.5t-6.5 46.5q0 86 62.5 136t161.5 50q91 0 155 -32zM321 -123q0 -56 -41 -94.5t-118 -39.5v68q82 5 82 69q0 32 -25 69h84q18 -25 18 -72z" />
    <glyph glyph-name="uni015F" unicode="&#x15f;" horiz-adv-x="419" 
d="M358 490v-89q-49 29 -126 29q-35 0 -55.5 -16t-20.5 -42q0 -7 1.5 -13.5t5.5 -13t7.5 -11t11.5 -9.5t12.5 -8.5t15 -8.5t15.5 -7.5t17.5 -8t17.5 -7.5q59 -26 92.5 -58.5t33.5 -86.5q0 -68 -48 -106.5t-130 -38.5q-90 0 -150 30v93q70 -43 145 -43q39 0 60.5 16t21.5 42
q0 22 -17 39.5t-34.5 26t-59.5 26.5q-119 49 -119 144q0 67 50 105t125 38q82 0 128 -22zM283 -123q0 -56 -41 -94.5t-118 -39.5v68q82 5 82 69q0 32 -25 69h84q18 -25 18 -72z" />
    <glyph glyph-name="Scaron" unicode="&#x160;" horiz-adv-x="521" 
d="M437 647v-102q-67 42 -152 42q-55 0 -86.5 -24.5t-31.5 -64.5t31 -64t95 -52q42 -18 65.5 -31t54 -36.5t45 -56t14.5 -74.5q0 -89 -63 -140t-163 -51q-111 0 -184 43v107q79 -59 183 -59q55 0 87 25.5t32 70.5q0 27 -19 49.5t-41 34t-66 31.5q-26 12 -36.5 17t-34.5 18
t-35.5 22t-28.5 25t-24.5 32t-14 37.5t-6.5 46.5q0 86 62.5 136t161.5 50q91 0 155 -32zM309 725h-90l-135 162h97l83 -102l83 102h97z" />
    <glyph glyph-name="scaron" unicode="&#x161;" horiz-adv-x="419" 
d="M358 490v-89q-49 29 -126 29q-35 0 -55.5 -16t-20.5 -42q0 -7 1.5 -13.5t5.5 -13t7.5 -11t11.5 -9.5t12.5 -8.5t15 -8.5t15.5 -7.5t17.5 -8t17.5 -7.5q59 -26 92.5 -58.5t33.5 -86.5q0 -68 -48 -106.5t-130 -38.5q-90 0 -150 30v93q70 -43 145 -43q39 0 60.5 16t21.5 42
q0 22 -17 39.5t-34.5 26t-59.5 26.5q-119 49 -119 144q0 67 50 105t125 38q82 0 128 -22zM278 558h-90l-135 162h97l83 -102l83 102h97z" />
    <glyph glyph-name="uni0162" unicode="&#x162;" horiz-adv-x="500" 
d="M110 -249l80 198h109l-112 -198h-77zM478 674v-86h-177v-588h-103v588h-176v86h456z" />
    <glyph glyph-name="uni0163" unicode="&#x163;" horiz-adv-x="374" 
d="M65 -249l80 198h109l-112 -198h-77zM196 431v-279q0 -73 70 -73q41 0 69 22v-88q-33 -18 -81 -18q-157 0 -157 159v277h-79v76h79v124h99v-124h133v-76h-133z" />
    <glyph glyph-name="Tcaron" unicode="&#x164;" horiz-adv-x="500" 
d="M296 725h-90l-135 162h97l83 -102l83 102h97zM478 674v-86h-177v-588h-103v588h-176v86h456z" />
    <glyph glyph-name="tcaron" unicode="&#x165;" horiz-adv-x="374" 
d="M442 771l-113 -198h-76l80 198h109zM196 431v-279q0 -73 70 -73q41 0 69 22v-88q-33 -18 -81 -18q-157 0 -157 159v277h-79v76h79v124h99v-124h133v-76h-133z" />
    <glyph glyph-name="Umacron" unicode="&#x16a;" horiz-adv-x="652" 
d="M478 256v418h103v-416q0 -131 -68 -199t-188 -68q-118 0 -186 66.5t-68 192.5v424h103v-423q0 -86 41.5 -125.5t109.5 -39.5q153 0 153 170zM483 772h-304v68h304v-68z" />
    <glyph glyph-name="umacron" unicode="&#x16b;" horiz-adv-x="551" 
d="M425 673v-68h-304v68h304zM384 507h98v-507h-98v87q-40 -93 -158 -93q-75 0 -119 44.5t-44 122.5v346h99v-322q0 -52 25.5 -79.5t70.5 -27.5q57 0 91.5 40t34.5 113v276z" />
    <glyph glyph-name="Uring" unicode="&#x16e;" horiz-adv-x="652" 
d="M214 829q0 48 33.5 82t80.5 34q48 0 82 -34t34 -82q0 -47 -34 -80.5t-82 -33.5q-47 0 -80.5 33.5t-33.5 80.5zM275 831q0 -22 15.5 -38.5t37.5 -16.5q23 0 38.5 16.5t15.5 38.5t-15.5 38t-38.5 16q-22 0 -37.5 -16t-15.5 -38zM478 256v418h103v-416q0 -131 -68 -199
t-188 -68q-118 0 -186 66.5t-68 192.5v424h103v-423q0 -86 41.5 -125.5t109.5 -39.5q153 0 153 170z" />
    <glyph glyph-name="uring" unicode="&#x16f;" horiz-adv-x="551" 
d="M279 718q-22 0 -37.5 -16t-15.5 -38t15.5 -38.5t37.5 -16.5q23 0 38.5 16.5t15.5 38.5t-15.5 38t-38.5 16zM279 548q-47 0 -80.5 33.5t-33.5 80.5q0 48 33.5 82t80.5 34q48 0 82 -34t34 -82q0 -47 -34 -80.5t-82 -33.5zM384 507h98v-507h-98v87q-40 -93 -158 -93
q-75 0 -119 44.5t-44 122.5v346h99v-322q0 -52 25.5 -79.5t70.5 -27.5q57 0 91.5 40t34.5 113v276z" />
    <glyph glyph-name="Uhungarumlaut" unicode="&#x170;" horiz-adv-x="652" 
d="M478 256v418h103v-416q0 -131 -68 -199t-188 -68q-118 0 -186 66.5t-68 192.5v424h103v-423q0 -86 41.5 -125.5t109.5 -39.5q153 0 153 170zM369 725l100 162h109l-134 -162h-75zM204 725l94 162h103l-122 -162h-75z" />
    <glyph glyph-name="uhungarumlaut" unicode="&#x171;" horiz-adv-x="551" 
d="M398 558h-75l100 162h109zM355 720l-122 -162h-75l94 162h103zM384 231v276h98v-507h-98v87q-40 -93 -158 -93q-75 0 -119 44.5t-44 122.5v346h99v-322q0 -52 25.5 -79.5t70.5 -27.5q57 0 91.5 40t34.5 113z" />
    <glyph glyph-name="Uogonek" unicode="&#x172;" horiz-adv-x="652" 
d="M478 674h103v-416q0 -199 -154 -252q-113 -60 -113 -126q0 -51 58 -51q41 0 74 24v-72q-36 -21 -87 -21q-62 0 -94.5 31.5t-32.5 80.5q0 66 61 120q-104 9 -163 75t-59 183v424h103v-423q0 -86 41.5 -125.5t109.5 -39.5q153 0 153 170v418z" />
    <glyph glyph-name="uogonek" unicode="&#x173;" horiz-adv-x="551" 
d="M482 507v-507q-114 -61 -114 -127q0 -51 58 -51q41 0 74 24v-72q-36 -21 -87 -21q-62 0 -94.5 31.5t-32.5 80.5q0 86 98 149v73q-40 -93 -158 -93q-75 0 -119 44.5t-44 122.5v346h99v-322q0 -52 25.5 -79.5t70.5 -27.5q57 0 91.5 40t34.5 113v276h98z" />
    <glyph glyph-name="Ydieresis" unicode="&#x178;" horiz-adv-x="608" 
d="M417 746q-25 0 -42.5 17t-17.5 43t17.5 43t42.5 17q26 0 43.5 -17t17.5 -43t-17.5 -43t-43.5 -17zM197 746q-27 0 -44 17t-17 43t17 43t44 17q25 0 42.5 -17t17.5 -43t-17.5 -43t-42.5 -17zM585 674l-231 -423v-251h-103v251l-228 423h118l48 -99q46 -93 74 -153t33 -74
l6 -13q9 30 116 240l49 99h118z" />
    <glyph glyph-name="Zacute" unicode="&#x179;" horiz-adv-x="584" 
d="M266 725l95 162h109l-120 -162h-84zM516 674v-79l-341 -510h355v-85h-476v81l340 508h-335v85h457z" />
    <glyph glyph-name="zacute" unicode="&#x17a;" horiz-adv-x="461" 
d="M200 558l95 162h109l-120 -162h-84zM405 507v-70l-249 -354h262v-83h-375v75l246 350h-237v82h353z" />
    <glyph glyph-name="Zdotaccent" unicode="&#x17b;" horiz-adv-x="584" 
d="M516 674v-79l-341 -510h355v-85h-476v81l340 508h-335v85h457zM242 808q0 26 17.5 43t43.5 17t43 -17t17 -43t-17 -43t-43 -17t-43.5 17t-17.5 43z" />
    <glyph glyph-name="zdotaccent" unicode="&#x17c;" horiz-adv-x="461" 
d="M405 507v-70l-249 -354h262v-83h-375v75l246 350h-237v82h353zM184 639q0 26 17.5 43t43.5 17t43 -17t17 -43t-17 -43t-43 -17t-43.5 17t-17.5 43z" />
    <glyph glyph-name="Zcaron" unicode="&#x17d;" horiz-adv-x="584" 
d="M516 674v-79l-341 -510h355v-85h-476v81l340 508h-335v85h457zM339 725h-90l-135 162h97l83 -102l83 102h97z" />
    <glyph glyph-name="zcaron" unicode="&#x17e;" horiz-adv-x="461" 
d="M405 507v-70l-249 -354h262v-83h-375v75l246 350h-237v82h353zM292 558h-90l-135 162h97l83 -102l83 102h97z" />
    <glyph glyph-name="florin" unicode="&#x192;" horiz-adv-x="430" 
d="M170 375l20 117q31 188 174 188q46 0 72 -9v-85q-28 10 -57 10q-73 0 -91 -112l-19 -109h98v-76h-110l-63 -368q-31 -188 -173 -188q-46 0 -77 12v85q31 -13 64 -13q38 0 59 28t30 84l61 360h-94v76h106z" />
    <glyph glyph-name="uni0218" unicode="&#x218;" horiz-adv-x="521" 
d="M437 647v-102q-67 42 -152 42q-55 0 -86.5 -24.5t-31.5 -64.5t31 -64t95 -52q42 -18 65.5 -31t54 -36.5t45 -56t14.5 -74.5q0 -89 -63 -140t-163 -51q-111 0 -184 43v107q79 -59 183 -59q55 0 87 25.5t32 70.5q0 27 -19 49.5t-41 34t-66 31.5q-26 12 -36.5 17t-34.5 18
t-35.5 22t-28.5 25t-24.5 32t-14 37.5t-6.5 46.5q0 86 62.5 136t161.5 50q91 0 155 -32zM131 -249l80 198h109l-112 -198h-77z" />
    <glyph glyph-name="uni0219" unicode="&#x219;" horiz-adv-x="419" 
d="M85 -249l80 198h109l-113 -198h-76zM358 490v-89q-49 29 -126 29q-35 0 -55.5 -16t-20.5 -42q0 -7 1.5 -13.5t5.5 -13t7.5 -11t11.5 -9.5t12.5 -8.5t15 -8.5t15.5 -7.5t17.5 -8t17.5 -7.5q59 -26 92.5 -58.5t33.5 -86.5q0 -68 -48 -106.5t-130 -38.5q-90 0 -150 30v93
q70 -43 145 -43q39 0 60.5 16t21.5 42q0 22 -17 39.5t-34.5 26t-59.5 26.5q-119 49 -119 144q0 67 50 105t125 38q82 0 128 -22z" />
    <glyph glyph-name="uni021A" unicode="&#x21a;" horiz-adv-x="500" 
d="M113 -249l80 198h109l-112 -198h-77zM22 674h456v-86h-177v-588h-103v588h-176v86z" />
    <glyph glyph-name="uni021B" unicode="&#x21b;" horiz-adv-x="374" 
d="M111 -249l80 198h109l-112 -198h-77zM196 431v-279q0 -73 70 -73q41 0 69 22v-88q-33 -18 -81 -18q-157 0 -157 159v277h-79v76h79v124h99v-124h133v-76h-133z" />
    <glyph glyph-name="apostrophemod" unicode="&#x2bc;" horiz-adv-x="206" 
d="M17 460l88 235h117l-125 -235h-80z" />
    <glyph glyph-name="circumflex" unicode="&#x2c6;" horiz-adv-x="444" 
d="M177 798h90l135 -162h-97l-84 102l-82 -102h-97z" />
    <glyph glyph-name="caron" unicode="&#x2c7;" horiz-adv-x="444" 
d="M267 636h-90l-135 162h97l83 -102l83 102h97z" />
    <glyph glyph-name="uni02C9" unicode="&#x2c9;" horiz-adv-x="444" 
d="M374 681h-304v68h304v-68z" />
    <glyph glyph-name="breve" unicode="&#x2d8;" horiz-adv-x="444" 
d="M48 798h78q0 -44 24 -71t72 -27t72 27t24 71h78q0 -79 -45 -122t-129 -43t-129 43t-45 122z" />
    <glyph glyph-name="dotaccent" unicode="&#x2d9;" horiz-adv-x="444" 
d="M161 720q0 26 17.5 43t43.5 17t43 -17t17 -43t-17 -43t-43 -17t-43.5 17t-17.5 43z" />
    <glyph glyph-name="ring" unicode="&#x2da;" horiz-adv-x="444" 
d="M107 717q0 48 33.5 82t80.5 34q48 0 82 -34t34 -82q0 -47 -34 -80.5t-82 -33.5q-47 0 -80.5 33.5t-33.5 80.5zM168 719q0 -22 15.5 -38.5t37.5 -16.5q23 0 38.5 16.5t15.5 38.5t-15.5 38t-38.5 16q-22 0 -37.5 -16t-15.5 -38z" />
    <glyph glyph-name="ogonek" unicode="&#x2db;" horiz-adv-x="444" 
d="M329 -214q-36 -21 -87 -21q-62 0 -94.5 31.5t-32.5 80.5q0 62 50 110t110 70l36 -45q-114 -61 -114 -127q0 -51 58 -51q41 0 74 24v-72z" />
    <glyph glyph-name="tilde" unicode="&#x2dc;" horiz-adv-x="444" 
d="M349 763l56 -42q-35 -74 -109 -74q-29 0 -69.5 20.5t-56.5 20.5q-23 0 -38.5 -11t-31.5 -35l-49 45q14 31 42.5 52.5t62.5 21.5q32 0 74 -20.5t61 -20.5q37 0 58 43z" />
    <glyph glyph-name="hungarumlaut" unicode="&#x2dd;" horiz-adv-x="444" 
d="M200 636l100 162h109l-134 -162h-75zM35 636l94 162h103l-122 -162h-75z" />
    <glyph glyph-name="pi" unicode="&#x3c0;" horiz-adv-x="589" 
d="M574 507v-76h-92v-431h-98v431h-172v-251q0 -100 -42.5 -140t-129.5 -40v84q41 0 57.5 18t16.5 71v258h-91v76h551z" />
    <glyph glyph-name="dvCandrabindu" unicode="&#x901;" horiz-adv-x="0" 
d="M-137 737q-86 0 -141 42.5t-55 124.5h94q0 -41 27 -67t75 -26q47 0 74 26t27 67h95q0 -79 -57 -123t-139 -44zM-193 959q0 24 16 40.5t40 16.5q25 0 41.5 -17t16.5 -40q0 -25 -16.5 -41t-41.5 -16q-24 0 -40 16t-16 41z" />
    <glyph glyph-name="dvAnusvara" unicode="&#x902;" horiz-adv-x="0" 
d="M-198 793q0 26 17.5 44.5t43.5 18.5q27 0 45 -18.5t18 -44.5t-18 -43.5t-45 -17.5q-26 0 -43.5 17.5t-17.5 43.5z" />
    <glyph glyph-name="dvVisarga" unicode="&#x903;" horiz-adv-x="295" 
d="M68 484q0 26 17.5 44t44.5 18q26 0 44.5 -18t18.5 -44t-18.5 -44t-44.5 -18q-27 0 -44.5 18t-17.5 44zM68 155q0 27 17.5 45t44.5 18q26 0 44.5 -18.5t18.5 -44.5t-18.5 -44t-44.5 -18q-27 0 -44.5 18t-17.5 44z" />
    <glyph glyph-name="dvA" unicode="&#x905;" horiz-adv-x="671" 
d="M696 650v-80h-112v-570h-96v252h-130q1 -6 1 -18q0 -76 -53 -123t-150 -47q-68 0 -126 24v90q62 -32 123 -32q46 0 79 23.5t33 75.5q0 85 -116 85h-37v84h32q49 0 74.5 21t25.5 58q0 75 -87 75q-55 0 -99 -24v89q48 19 103 19q86 0 133 -40t47 -108q0 -51 -26 -85
t-70 -46q49 -6 80 -40h163v237h-87v80h295z" />
    <glyph glyph-name="dvAA" unicode="&#x906;" horiz-adv-x="941" 
d="M965 650v-80h-111v-570h-97v570h-173v-570h-96v252h-130q1 -6 1 -18q0 -76 -53 -123t-150 -47q-68 0 -126 24v90q62 -32 123 -32q46 0 79 23.5t33 75.5q0 85 -116 85h-37v84h32q49 0 74.5 21t25.5 58q0 75 -87 75q-55 0 -99 -24v89q48 19 103 19q86 0 133 -40t47 -108
q0 -51 -26 -85t-70 -46q49 -6 80 -40h163v237h-87v80h564z" />
    <glyph glyph-name="dvI" unicode="&#x907;" horiz-adv-x="495" 
d="M412 570v-150v-1h-172q-36 0 -57.5 -14t-21.5 -41t25.5 -39.5t84.5 -16.5q99 -4 146.5 -40t47.5 -108q0 -66 -49 -111t-125 -45q-78 0 -135 41v-108h-95v235h88q16 -41 52.5 -66.5t82.5 -25.5q37 0 61 22t24 56t-26 50t-81 19q-57 2 -97.5 12.5t-70.5 40.5t-30 80
q0 67 48.5 103t127.5 36h76v71h-340v80h543v-80h-107z" />
    <glyph glyph-name="dvII" unicode="&#x908;" horiz-adv-x="495" 
d="M408 570v-150v-1h-168q-36 0 -57.5 -14t-21.5 -41t25.5 -39.5t84.5 -16.5q99 -4 146.5 -40t47.5 -108q0 -66 -49 -111t-125 -45q-78 0 -135 41v-108h-95v235h88q16 -41 52.5 -66.5t82.5 -25.5q37 0 61 22t24 56t-26 50t-81 19q-57 2 -97.5 12.5t-70.5 40.5t-30 80
q0 67 48.5 103t127.5 36h71v71h-335v80h312q-33 37 -33 96q0 65 43.5 106t112.5 41q51 0 86 -17v-88q-33 19 -77 19q-32 0 -49.5 -19t-17.5 -50q0 -42 36 -88h130v-80h-111z" />
    <glyph glyph-name="dvU" unicode="&#x909;" horiz-adv-x="439" 
d="M463 650v-80h-128q32 -37 32 -89q0 -55 -30 -89t-82 -46q62 -6 104 -45t42 -104q0 -83 -60.5 -131.5t-170.5 -48.5q-70 0 -140 24v89q62 -32 134 -32q140 0 140 106q0 47 -39 74t-110 27h-44v82h42q117 0 117 97q0 48 -40 86h-254v80h487z" />
    <glyph glyph-name="dvUU" unicode="&#x90a;" horiz-adv-x="702" 
d="M726 650v-80h-391q32 -37 32 -89q0 -55 -30 -89t-82 -46q57 -5 96 -38q15 46 54 74t91 28q87 0 134 -50.5t47 -134.5q0 -88 -50 -143.5t-136 -55.5q-14 0 -26 3v78q12 -2 17 -2q99 0 99 119q0 48 -22 77.5t-66 29.5q-43 0 -67 -37.5t-25 -92.5v-4q0 -83 -60.5 -131.5
t-170.5 -48.5q-70 0 -140 24v89q62 -32 134 -32q140 0 140 106q0 47 -39 74t-110 27h-44v82h42q117 0 117 97q0 48 -40 86h-254v80h750z" />
    <glyph glyph-name="dvvR" unicode="&#x90b;" horiz-adv-x="845" 
d="M465 570v-209l124 71v59h90v-89q0 -84 82 -84h16v-79h-40q-45 0 -69 -18t-24 -50q0 -28 21 -43t51 -15q54 0 96 23v-81q-38 -21 -99 -21q-68 0 -116 33.5t-48 97.5q0 43 25 74.5t70 45.5q-35 19 -48 60l-131 -75v-270h-98v221l-309 -183v96l207 120q-12 60 -41 93.5
t-88 33.5q-41 0 -87 -19v88q40 18 94 18q74 0 126.5 -41.5t72.5 -127.5l25 15v256h-391v80h894v-80h-405z" />
    <glyph glyph-name="dvvL" unicode="&#x90c;" horiz-adv-x="779" 
d="M684 570v-399q-56 -1 -84 -23.5t-28 -58.5q0 -30 22.5 -48.5t64.5 -18.5q48 0 90 18v-78q-44 -17 -92 -17q-80 0 -130.5 37t-50.5 106q0 47 29 82.5t82 49.5v166q-33 13 -63 13q-103 0 -103 -119v-70h-97v72q0 110 -82 110q-40 0 -65.5 -33t-25.5 -97q0 -81 42 -131
t126 -50q25 0 46 6v-80q-30 -7 -58 -7q-114 0 -183 74t-69 190q0 93 48 150.5t129 57.5q57 0 94.5 -25t46.5 -67q25 97 145 97q34 0 69 -13v106h-611v80h828v-80h-120z" />
    <glyph glyph-name="dvEcandra" unicode="&#x90d;" horiz-adv-x="561" 
d="M396 904h94q0 -79 -54.5 -123t-136.5 -44q-86 0 -139 42.5t-53 124.5h95q0 -42 25 -67.5t72 -25.5q46 0 71.5 26t25.5 67zM586 650v-80h-84v-138q0 -75 -44 -117t-121 -42q-30 0 -52 6v78q18 -5 37 -5q84 0 84 86v132h-230v-310q0 -146 166 -146q83 0 145 32v-88
q-66 -27 -152 -27q-117 0 -186.5 56t-69.5 173v310h-103v80h610z" />
    <glyph glyph-name="dvE" unicode="&#x90f;" horiz-adv-x="561" 
d="M586 650v-80h-84v-138q0 -75 -44 -117t-121 -42q-30 0 -52 6v78q18 -5 37 -5q84 0 84 86v132h-230v-310q0 -146 166 -146q83 0 145 32v-88q-66 -27 -152 -27q-117 0 -186.5 56t-69.5 173v310h-103v80h610z" />
    <glyph glyph-name="dvAI" unicode="&#x910;" horiz-adv-x="561" 
d="M586 650v-80h-84v-138q0 -75 -44 -117t-121 -42q-30 0 -52 6v78q18 -5 37 -5q84 0 84 86v132h-230v-310q0 -146 166 -146q83 0 145 32v-88q-66 -27 -152 -27q-117 0 -186.5 56t-69.5 173v310h-103v80h418l-77 117q-33 50 -87 50q-30 0 -54 -8v83q36 6 60 6q53 0 91 -21.5
t69 -68.5l103 -158h87z" />
    <glyph glyph-name="dvOcandra" unicode="&#x911;" horiz-adv-x="941" 
d="M779 904h95q0 -79 -55 -123t-136 -44q-86 0 -139.5 42.5t-53.5 124.5h95q0 -41 25.5 -67t72.5 -26q46 0 71 26t25 67zM966 650v-80h-111v-570h-97v570h-174v-570h-96v252h-130q1 -6 1 -18q0 -76 -53 -123t-150 -47q-68 0 -126 24v90q62 -32 123 -32q46 0 79 23.5t33 75.5
q0 85 -116 85h-37v84h32q49 0 74.5 21t25.5 58q0 75 -87 75q-55 0 -99 -24v89q48 19 103 19q86 0 133 -40t47 -108q0 -51 -26 -85t-70 -46q49 -6 80 -40h163v237h-87v80h565z" />
    <glyph glyph-name="dvO" unicode="&#x913;" horiz-adv-x="942" 
d="M854 650h107v-80h-111v-570h-97v570h-169v-570h-96v252h-130q1 -6 1 -18q0 -76 -53 -123t-150 -47q-68 0 -126 24v90q62 -32 123 -32q46 0 79 23.5t33 75.5q0 85 -116 85h-37v84h32q49 0 74.5 21t25.5 58q0 75 -87 75q-55 0 -99 -24v89q48 19 103 19q86 0 133 -40
t47 -108q0 -51 -26 -85t-70 -46q49 -6 80 -40h163v237h-87v80h348l-77 117q-33 50 -87 50q-30 0 -54 -8v83q36 6 60 6q53 0 91 -21.5t69 -68.5z" />
    <glyph glyph-name="dvAU" unicode="&#x914;" horiz-adv-x="942" 
d="M858 650h108v-80h-111v-570h-97v570h-174v-570h-96v252h-130q1 -6 1 -18q0 -76 -53 -123t-150 -47q-68 0 -126 24v90q62 -32 123 -32q46 0 79 23.5t33 75.5q0 85 -116 85h-37v84h32q49 0 74.5 21t25.5 58q0 75 -87 75q-55 0 -99 -24v89q48 19 103 19q86 0 133 -40
t47 -108q0 -51 -26 -85t-70 -46q49 -6 80 -40h163v237h-87v80h329q-96 68 -168 68q-33 0 -57 -8v79q28 8 55 8q46 0 84 -19t99 -73l38 -34l-92 116q-48 59 -122 59q-38 0 -62 -8v79q24 7 68 7q112 0 177 -103z" />
    <glyph glyph-name="dvKA" unicode="&#x915;" horiz-adv-x="782" 
d="M807 570h-367v-133q45 45 113 45q85 0 136.5 -51t51.5 -134q0 -89 -58.5 -142t-146.5 -53q-11 0 -23 2v80q6 -1 19 -1q50 0 81 30.5t31 82.5q0 47 -28.5 77.5t-76.5 30.5q-41 0 -70 -29.5t-29 -73.5v-301h-97v137q-47 -45 -114 -45q-84 0 -136 51.5t-52 133.5
q0 89 58.5 142t146.5 53q16 0 23 -2v-80q-10 2 -19 2q-49 0 -80.5 -31t-31.5 -83q0 -47 29 -77.5t76 -30.5q41 0 70.5 29.5t29.5 73.5v297h-367v80h831v-80z" />
    <glyph glyph-name="dvKHA" unicode="&#x916;" horiz-adv-x="797" 
d="M822 650v-80h-111v-570h-98v165q-44 -40 -112 -40q-72 0 -122 48t-50 125t51 124.5t125 47.5q20 0 42 -4v-76q-9 3 -29 3q-42 0 -69 -27.5t-27 -70.5t26.5 -69t68.5 -26q41 0 68.5 26.5t27.5 72.5v271h-302v-136q0 -70 -41.5 -111.5t-112.5 -48.5l-11 -1l214 -273h-117
l-211 272v78h70q113 0 113 91v129h-239v80h846z" />
    <glyph glyph-name="dvGA" unicode="&#x917;" horiz-adv-x="577" 
d="M-24 650h626v-80h-112v-570h-95v570h-156v-228q0 -66 -35 -100.5t-96 -34.5q-42 0 -78 13v82q28 -14 57 -14q56 0 56 61v221h-167v80z" />
    <glyph glyph-name="dvGHA" unicode="&#x918;" horiz-adv-x="641" 
d="M458 333v237h-245q-48 -29 -48 -80q0 -74 115 -74h46v-83h-56q-52 0 -82.5 -22.5t-30.5 -62.5t32.5 -60.5t79.5 -20.5q81 0 135 47.5t54 118.5zM665 650v-80h-111v-570h-96v172q-28 -38 -81.5 -62t-116.5 -24q-89 0 -144.5 42.5t-55.5 114.5q0 54 34.5 88t93.5 43
q-51 3 -85.5 31.5t-34.5 78.5q0 51 38 86h-130v80h689z" />
    <glyph glyph-name="dvNGA" unicode="&#x919;" horiz-adv-x="598" 
d="M520 410q25 0 42.5 -17.5t17.5 -42.5t-17 -42t-43 -17t-42.5 16.5t-16.5 42.5q0 25 17 42.5t42 17.5zM-24 650h646v-80h-213v-151v-1h-184q-75 0 -75 -56q0 -31 29.5 -44t100.5 -15q185 -5 185 -143q0 -71 -57.5 -116t-155.5 -45q-109 0 -197 46v93q92 -58 198 -58
q54 0 84.5 20.5t30.5 56.5q0 35 -28 49t-95 16q-191 7 -191 138q0 68 48 103t121 35h90v72h-337v80z" />
    <glyph glyph-name="dvCA" unicode="&#x91a;" horiz-adv-x="642" 
d="M666 650v-80h-111v-570h-97v182q-55 -84 -182 -85q-83 0 -135 44.5t-52 117.5q0 83 71 120h-134v81h346v-81q-100 0 -144.5 -31t-44.5 -80q0 -45 30 -69t81 -24q76 0 120 47.5t44 103.5v244h-482v80h690z" />
    <glyph glyph-name="dvCHA" unicode="&#x91b;" horiz-adv-x="639" 
d="M424 489v81h-197q-56 -36 -56 -96q0 -38 26.5 -61.5t66.5 -23.5h31v-82h-37q-50 0 -76 -21t-26 -59q0 -42 40 -67t101 -25q87 0 141 46t54 127q0 48 -26.5 75.5t-75.5 27.5q-25 0 -45 -6v78q20 7 60 7q13 0 19 -1zM663 570h-149v-107q76 -47 76 -150q0 -114 -83 -186
t-210 -72q-103 0 -170.5 45t-67.5 124q0 54 33 88t89 39q-44 5 -75 38.5t-31 84.5q0 59 41 96h-140v80h687v-80z" />
    <glyph glyph-name="dvJA" unicode="&#x91c;" horiz-adv-x="652" 
d="M-24 650h701v-80h-111v-570h-97v374h-185q69 -41 69 -134q0 -81 -55 -130t-145 -49q-68 0 -123 22v86q50 -26 109 -26q55 0 87.5 28t32.5 79q0 60 -43.5 92t-121.5 32v81h375v115h-493v80z" />
    <glyph glyph-name="dvJHA" unicode="&#x91d;" horiz-adv-x="765" 
d="M284 322h297v248h-161v-144v-2h-169q-84 0 -84 -52q0 -26 23.5 -36.5t76.5 -12.5zM790 650v-80h-111v-570h-98v245h-137q20 -32 20 -77q0 -69 -48 -112.5t-126 -43.5q-79 0 -136 43v-104h-95v229h88q17 -40 54.5 -66t80.5 -26q39 0 62.5 20.5t23.5 56.5q0 70 -110 76
q-88 3 -138 31t-50 96q0 67 48.5 101.5t127.5 34.5h78v66h-348v80h814z" />
    <glyph glyph-name="dvNYA" unicode="&#x91e;" horiz-adv-x="679" 
d="M704 650v-80h-111v-570h-98v251h-100q-9 -79 -67 -128t-150 -52q-82 0 -154 36v89q71 -42 147 -42q61 0 94 34t33 89q0 50 -30.5 81.5t-82.5 31.5q-46 0 -82 -16v82q36 15 86 15q82 0 134 -37t67 -103h105v239h-519v80h728z" />
    <glyph glyph-name="dvTTA" unicode="&#x91f;" horiz-adv-x="502" 
d="M420 570v-191q-28 6 -78 6q-87 0 -138.5 -38t-51.5 -108q0 -67 47 -103t124 -36q38 0 78.5 12t64.5 27v-88q-64 -33 -148 -33q-121 0 -193 59.5t-72 164.5q0 96 69 158t182 63h20v107h-348v80h550v-80h-106z" />
    <glyph glyph-name="dvTTHA" unicode="&#x920;" horiz-adv-x="567" 
d="M420 262q0 58 -36.5 88.5t-99.5 31.5q-57 0 -97 -30t-40 -89q0 -56 38 -90t100 -34q61 0 98 34t37 89zM592 570h-239v-117q75 -17 120.5 -66t45.5 -125q0 -89 -64.5 -145t-170.5 -57q-105 0 -170 55.5t-65 147.5q0 88 60.5 138.5t147.5 57.5v111h-281v80h616v-80z" />
    <glyph glyph-name="dvDDA" unicode="&#x921;" horiz-adv-x="524" 
d="M409 570v-151v-1h-184q-75 0 -75 -56q0 -31 29.5 -44t100.5 -15q185 -5 185 -143q0 -71 -57.5 -116t-155.5 -45q-109 0 -197 46v93q92 -58 198 -58q54 0 84.5 20.5t30.5 56.5q0 35 -28 49t-95 16q-191 7 -191 138q0 68 48 103t121 35h90v72h-337v80h573v-80h-140z" />
    <glyph glyph-name="dvDDHA" unicode="&#x922;" horiz-adv-x="558" 
d="M266 208v75q41 22 96 22q69 0 108 -35t39 -93q0 -70 -56.5 -115t-152.5 -45q-110 0 -181.5 64t-71.5 165q0 102 72.5 164t190.5 64q11 0 35 -2v98h-369v80h607v-80h-142v-185q-57 10 -102 10q-87 0 -140 -40t-53 -110q0 -65 43.5 -107t113.5 -42q49 0 81 21t32 59
q0 24 -18.5 40t-49.5 16q-49 0 -82 -24z" />
    <glyph glyph-name="dvNNA" unicode="&#x923;" horiz-adv-x="746" 
d="M318 346v224h-164v-224q0 -96 81 -96q83 0 83 96zM771 650v-80h-112v-570h-96v570h-149v-219q0 -89 -47 -136t-134 -47q-175 0 -175 182v220h-82v80h795z" />
    <glyph glyph-name="dvTA" unicode="&#x924;" horiz-adv-x="593" 
d="M618 650v-80h-111v-570h-97v377h-87q-166 0 -166 -146q0 -69 33 -108.5t99 -39.5q16 0 21 1v-82q-18 -2 -33 -2q-101 0 -159.5 65t-58.5 167q0 103 65 164.5t191 61.5h95v112h-434v80h642z" />
    <glyph glyph-name="dvTHA" unicode="&#x925;" horiz-adv-x="649" 
d="M375 507q0 -152 -237 -213q14 -53 53.5 -80.5t97.5 -27.5q72 0 124.5 45t52.5 133v286h203v-80h-106v-570h-97v189q-20 -33 -71 -59.5t-113 -26.5q-100 0 -172.5 64t-83.5 182q134 31 195 66.5t61 92.5q0 30 -15 49.5t-44 19.5q-30 0 -45.5 -18t-15.5 -46q0 -22 13 -56
h-94q-12 32 -12 65q0 57 41.5 96t112.5 39q70 0 111 -42t41 -108z" />
    <glyph glyph-name="dvDA" unicode="&#x926;" horiz-adv-x="558" 
d="M-24 650h607v-80h-118v-169h-185q-63 0 -100.5 -33.5t-37.5 -90.5q0 -60 33 -94t88 -34q54 0 87.5 30.5t37.5 81.5h93v-271h-95v131q-19 -25 -56.5 -39t-78.5 -14q-95 0 -152.5 59t-57.5 147q0 91 61 148.5t171 57.5h95v90h-392v80z" />
    <glyph glyph-name="dvDHA" unicode="&#x927;" horiz-adv-x="637" 
d="M661 650v-80h-111v-570h-96v151q-26 -38 -75.5 -61.5t-111.5 -23.5q-95 0 -153 44.5t-58 116.5q0 57 37 91t99 40q-60 5 -94 34t-34 82q0 67 57 96h-145v80h314v-80h-1q-61 0 -94.5 -25t-33.5 -66t33.5 -61t88.5 -20h48v-81h-56q-57 0 -89 -22.5t-32 -62.5
q0 -39 32.5 -62t87.5 -23q81 0 130.5 47t49.5 114v342h207z" />
    <glyph glyph-name="dvNA" unicode="&#x928;" horiz-adv-x="502" 
d="M-24 650h550v-80h-111v-570h-97v325h-162q-18 0 -25.5 -9.5t-7.5 -31.5q0 -31 12 -72h-79q-30 51 -30 112q0 37 23 58.5t70 21.5h199v166h-342v80z" />
    <glyph glyph-name="dvPA" unicode="&#x92a;" horiz-adv-x="560" 
d="M376 380v190h-213v-198q0 -63 24 -91t73 -28t82.5 34t33.5 93zM585 650v-80h-112v-570h-97v228q-48 -53 -128 -54q-182 0 -182 201v195h-90v80h609z" />
    <glyph glyph-name="dvPHA" unicode="&#x92b;" horiz-adv-x="806" 
d="M376 380v190h-213v-198q0 -63 24 -90t73 -27t82.5 33t33.5 92zM831 570h-358v-127q46 46 119 46q83 0 132.5 -52t49.5 -133q0 -92 -58.5 -143.5t-145.5 -51.5q-10 0 -24 2v80q12 -2 19 -2q51 0 82 30t31 85q0 46 -28 76t-73 30q-44 0 -74 -29t-30 -75v-306h-97v229
q-47 -52 -128 -52q-90 0 -136 46t-46 149v198h-90v80h855v-80z" />
    <glyph glyph-name="dvBA" unicode="&#x92c;" horiz-adv-x="620" 
d="M369 183l-200 186q-24 -34 -24 -82q0 -58 36.5 -94t93.5 -36q54 0 94 26zM645 650v-80h-112v-570h-96v153q-64 -74 -172 -74q-89 0 -152.5 59t-63.5 151t62.5 151.5t160.5 59.5q40 0 82 -10v-84q-39 12 -75 12q-38 0 -68 -14l199 -184q27 37 27 82v268h-461v80h669z" />
    <glyph glyph-name="dvBHA" unicode="&#x92d;" horiz-adv-x="565" 
d="M383 356v294h207v-80h-112v-570h-95v277h-184v-134h-84l-28 62q-27 57 -27 89q0 22 12 38t31 20v162q0 60 -46 60q-31 0 -55 -14v78q31 17 74 17q123 0 123 -127v-172h184z" />
    <glyph glyph-name="dvMA" unicode="&#x92e;" horiz-adv-x="576" 
d="M-24 570v80h624v-80h-111v-570h-95v274h-195v-132h-83l-28 64q-28 63 -28 90q0 43 44 54v220h-128zM394 570h-195v-216h195v216z" />
    <glyph glyph-name="dvYA" unicode="&#x92f;" horiz-adv-x="628" 
d="M287 119q-95 0 -162.5 66t-82.5 184q79 12 119.5 43t40.5 72q0 52 -30 86h-196v80h676v-80h-111v-570h-96v187q-47 -68 -158 -68zM299 203q66 0 106 37t40 102v228h-170q23 -37 23 -90q0 -118 -143 -166q12 -49 50.5 -80t93.5 -31z" />
    <glyph glyph-name="dvRA" unicode="&#x930;" horiz-adv-x="388" 
d="M32 272v78h70q113 0 113 91v129h-239v80h436v-80h-101v-137q0 -70 -41 -111.5t-112 -46.5q-2 -1 -12 -1l211 -274h-117z" />
    <glyph glyph-name="dvRxA" unicode="&#x931;" horiz-adv-x="388" 
d="M-30 17q0 25 17 42.5t42 17.5t43 -17.5t18 -42.5t-17.5 -42t-43.5 -17q-25 0 -42 17t-17 42zM32 272v78h70q113 0 113 91v129h-239v80h436v-80h-101v-137q0 -70 -41 -111.5t-112 -46.5q-2 -1 -12 -1l211 -274h-117z" />
    <glyph glyph-name="dvLA" unicode="&#x932;" horiz-adv-x="742" 
d="M766 650v-80h-111v-570h-97v392q-23 7 -44 7q-103 0 -103 -119v-70h-97v72q0 110 -78 110q-40 0 -65.5 -33t-25.5 -97q0 -81 42 -131t126 -50q20 0 31 2v-79q-17 -4 -43 -4q-115 0 -183.5 74t-68.5 190q0 93 48 150.5t129 57.5q56 0 92 -25t45 -67q25 97 144 97
q27 0 51 -8v101h-582v80h790z" />
    <glyph glyph-name="dvLLA" unicode="&#x933;" horiz-adv-x="799" 
d="M660 284q0 50 -29 80.5t-79 30.5q-18 0 -32.5 -4.5t-26 -16.5t-19 -20t-15 -29t-10.5 -29t-10.5 -34t-8.5 -31q53 -62 123 -62q49 0 78 31.5t29 83.5zM243 169q24 0 42 10t30.5 31t19 37.5t15.5 47.5t13 43q-54 58 -120 58q-48 0 -76 -32.5t-28 -83.5q0 -50 28 -80.5
t76 -30.5zM824 570h-217v-102q70 -15 110.5 -64t40.5 -120q0 -87 -58 -140.5t-145 -53.5q-101 0 -168 69q-50 -69 -145 -69q-89 0 -145 52t-56 139q0 86 56 139.5t142 53.5q98 0 165 -65q43 52 111 61v100h-539v80h848v-80z" />
    <glyph glyph-name="dvVA" unicode="&#x935;" horiz-adv-x="582" 
d="M607 650v-80h-112v-570h-96v155q-54 -66 -154 -66q-84 0 -143 52.5t-59 143.5q0 85 57 141t148 56q36 0 66 -7v-85q-27 9 -59 9q-48 0 -81 -31t-33 -82q0 -54 33 -86t85 -32q61 0 100.5 41t39.5 98v263h-423v80h631z" />
    <glyph glyph-name="dvSHA" unicode="&#x936;" horiz-adv-x="683" 
d="M176 441h-93q-15 33 -15 67q0 60 42.5 102.5t113.5 42.5q80 0 128 -52t48 -129q0 -105 -71 -163t-166 -58h-17l231 -251h-126l-221 247v84h102q82 0 127 37t45 104q0 99 -79 99q-32 0 -48 -20.5t-16 -50.5q0 -29 15 -59zM499 650h208v-80h-111v-570h-97v650z" />
    <glyph glyph-name="dvSSA" unicode="&#x937;" horiz-adv-x="589" 
d="M406 372v198h-225l223 -224q2 18 2 26zM165 503v-131q0 -63 31.5 -94t85.5 -31q60 0 97 45zM613 650v-80h-111v-570h-96v223q-51 -54 -137 -54q-91 0 -144.5 50.5t-53.5 152.5v198h-95v80h637z" />
    <glyph glyph-name="dvSA" unicode="&#x938;" horiz-adv-x="649" 
d="M261 339h205v231h-181v-134q0 -60 -24 -97zM673 650v-80h-111v-570h-96v259h-163q-96 0 -157 9l185 -268h-117l-188 278v73h67q54 0 75 22t21 67v130h-213v80h697z" />
    <glyph glyph-name="dvHA" unicode="&#x939;" horiz-adv-x="536" 
d="M453 413h-245q-51 0 -51 -40q0 -44 41 -67q42 12 94 12q84 0 132 -40.5t48 -97.5q0 -34 -10 -57h-95q13 21 13 51q0 28 -23 46.5t-67 18.5q-62 0 -96 -26.5t-34 -64.5q0 -46 39.5 -74.5t123.5 -28.5q58 0 129 18v-81q-73 -16 -135 -16q-122 0 -188 55t-66 128
q0 75 65 123q-69 41 -69 113q0 51 36.5 78.5t95.5 27.5h166v79h-381v80h585v-80h-108v-157z" />
    <glyph glyph-name="dvNukta" unicode="&#x93c;" horiz-adv-x="0" 
d="M-336 -129q0 25 17 42.5t42 17.5t42.5 -17.5t17.5 -42.5t-17.5 -42t-42.5 -17t-42 17t-17 42z" />
    <glyph glyph-name="dvAvagraha" unicode="&#x93d;" horiz-adv-x="491" 
d="M247 -3q-119 0 -215 55v102q47 -30 106 -50t110 -20q55 0 83.5 24t28.5 60q0 33 -33.5 66t-81 62.5t-95.5 61.5t-81.5 74.5t-33.5 90.5q0 59 38.5 93t107.5 34h248v-87h-238q-54 0 -54 -45q0 -26 33 -55t80.5 -58.5t95 -62.5t80.5 -78t33 -94q0 -72 -54 -122.5
t-158 -50.5z" />
    <glyph glyph-name="dvmAA" unicode="&#x93e;" 
d="M-24 570v80h319v-80h-111v-570h-97v570h-111z" />
    <glyph glyph-name="dvmI" unicode="&#x93f;" 
d="M661 807v-89q-91 48 -196.5 76t-176.5 28q-51 0 -78 -26.5t-27 -73.5v-72h111v-80h-111v-570h-96v570h-111v80h111v73q0 83 52.5 133.5t145.5 50.5q162 0 376 -100z" />
    <glyph glyph-name="dvmII" unicode="&#x940;" 
d="M182 650h112v-80h-111v-570h-96v570h-111v80h109v78q0 45 -24.5 69t-65.5 24q-40 0 -63 -23t-23 -70v-21h-97v23q0 87 52 131t131 44q80 0 133.5 -44t53.5 -130v-81z" />
    <glyph glyph-name="dvmU" unicode="&#x941;" horiz-adv-x="0" 
d="M-428 -165v108q45 -50 121.5 -94.5t144.5 -44.5q43 0 66.5 19t23.5 50q0 27 -20 43t-53 16q-39 0 -101 -31v86q2 1 14 5.5t23 8t29.5 7t35.5 3.5q81 0 123.5 -37.5t42.5 -100.5q0 -66 -49 -107.5t-132 -41.5q-73 0 -148 34.5t-121 76.5z" />
    <glyph glyph-name="dvmUU" unicode="&#x942;" horiz-adv-x="0" 
d="M-92 -183v-75q-19 -7 -48 -7q-68 0 -112.5 36.5t-44.5 105.5q0 57 43.5 97t112.5 40q65 0 114.5 -29.5t76.5 -76t40.5 -96.5t13.5 -99h-90q0 90 -40 156t-111 66q-30 0 -48.5 -17t-18.5 -44q0 -30 21 -46.5t53 -16.5q20 0 38 6z" />
    <glyph glyph-name="dvmvR" unicode="&#x943;" horiz-adv-x="0" 
d="M-321 -146q0 59 38.5 96.5t98.5 42.5v17h97v-89h-48q-43 0 -67 -18t-24 -52q0 -29 18.5 -46.5t55.5 -17.5q43 0 80 24v-77q-39 -23 -86 -23q-73 0 -118 40t-45 103z" />
    <glyph glyph-name="dvmvRR" unicode="&#x944;" horiz-adv-x="0" 
d="M-98 -269h-14q-35 0 -54 -15.5t-19 -40.5q0 -57 79 -57q49 0 81 16v-80q-44 -17 -97 -17q-71 0 -117 33.5t-46 94.5q0 66 61 96q-42 11 -66 39.5t-24 70.5q0 50 35 83.5t95 38.5v17h97v-87h-38q-92 0 -92 -57q0 -55 95 -55h24v-80z" />
    <glyph glyph-name="dvmEcandra" unicode="&#x945;" horiz-adv-x="0" 
d="M-135 737q-85 0 -138.5 42.5t-53.5 124.5h95q0 -41 25.5 -67t71.5 -26q47 0 72 25.5t25 67.5h95q0 -79 -55 -123t-137 -44z" />
    <glyph glyph-name="dvmE" unicode="&#x947;" horiz-adv-x="0" 
d="M-412 809v83q36 6 60 6q53 0 91 -21.5t69 -68.5l108 -165h-105l-82 124q-33 50 -87 50q-30 0 -54 -8z" />
    <glyph glyph-name="dvmAI" unicode="&#x948;" horiz-adv-x="0" 
d="M-193 821l112 -178h-122q-54 38 -94 56.5t-84 18.5q-33 0 -57 -8v79q28 8 55 8q46 0 84 -19t99 -73l38 -34l-92 116q-48 59 -122 59q-38 0 -62 -8v79q25 7 68 7q112 0 177 -103z" />
    <glyph glyph-name="dvmOcandra" unicode="&#x949;" 
d="M-24 570v80h318v-80h-111v-570h-96v570h-111zM132 737q-86 0 -139 42.5t-53 124.5h94q0 -41 25.5 -67t72.5 -26q46 0 71 26t25 67h95q0 -79 -55 -123t-136 -44z" />
    <glyph glyph-name="dvmO" unicode="&#x94b;" horiz-adv-x="269" 
d="M181 650h113v-80h-111v-570h-96v570h-111v80h100l-77 117q-33 50 -87 50q-30 0 -54 -8v83q36 6 60 6q53 0 91 -21.5t69 -68.5z" />
    <glyph glyph-name="dvmAU" unicode="&#x94c;" 
d="M185 650h109v-80h-111v-570h-96v570h-111v80h81q-96 68 -168 68q-33 0 -57 -8v79q28 8 55 8q46 0 84 -19t99 -73l38 -34l-92 116q-48 59 -122 59q-38 0 -62 -8v79q24 7 68 7q112 0 177 -103z" />
    <glyph glyph-name="dvVirama" unicode="&#x94d;" horiz-adv-x="0" 
d="M65 -235h-117l-123 168h99z" />
    <glyph glyph-name="dvOm" unicode="&#x950;" horiz-adv-x="1235" 
d="M780 178q-34 -60 -73.5 -94.5t-98.5 -34.5q-48 0 -81.5 23t-49.5 55q-14 -53 -67.5 -90t-128.5 -37q-103 0 -175 43v93q83 -54 173 -54q53 0 84 27t31 72q0 83 -118 83h-62v80h34q59 0 86.5 26.5t27.5 69.5q0 39 -24.5 63t-67.5 24q-75 0 -133 -42v85q57 38 143 38
q82 0 130 -45t48 -115q0 -47 -21.5 -80t-55.5 -48q65 -4 107 -75q3 -4 12 -20.5t12.5 -22.5t12.5 -19t15.5 -18.5t16 -13t20 -10.5t22.5 -3q33 0 60 30t65 94q6 10 26 44.5t28 46.5t27 39.5t32 39t33 26.5t41 21t45 6q82 0 132 -59t50 -159q0 -89 -53 -155.5t-143 -66.5
q-53 0 -94 17v87q36 -23 85 -23q50 0 79.5 39.5t29.5 108.5q0 50 -21 86.5t-58 36.5q-35 0 -68 -39t-115 -180zM633 735q0 24 16.5 41t40.5 17t40.5 -17t16.5 -41t-16.5 -40t-40.5 -16q-25 0 -41 16t-16 40zM690 514q-87 0 -142 42.5t-55 123.5h94q0 -40 28 -66.5t75 -26.5
t73.5 26.5t26.5 66.5h95q0 -78 -57 -122t-138 -44z" />
    <glyph glyph-name="dvKxA" unicode="&#x958;" horiz-adv-x="782" 
d="M161 17q25 0 42.5 -17.5t17.5 -42.5t-17.5 -42t-42.5 -17t-42 17t-17 42t17 42.5t42 17.5zM807 570h-367v-133q45 45 113 45q85 0 136.5 -51t51.5 -134q0 -89 -58.5 -142t-146.5 -53q-11 0 -23 2v80q6 -1 19 -1q50 0 81 30.5t31 82.5q0 47 -28.5 77.5t-76.5 30.5
q-41 0 -70 -29.5t-29 -73.5v-301h-97v137q-47 -45 -114 -45q-84 0 -136 51.5t-52 133.5q0 89 58.5 142t146.5 53q16 0 23 -2v-80q-10 2 -19 2q-49 0 -80.5 -31t-31.5 -83q0 -47 29 -77.5t76 -30.5q41 0 70.5 29.5t29.5 73.5v297h-367v80h831v-80z" />
    <glyph glyph-name="dvKHxA" unicode="&#x959;" horiz-adv-x="797" 
d="M81 18q25 0 42.5 -17.5t17.5 -42.5t-17.5 -42t-42.5 -17t-42 16.5t-17 42.5q0 25 17 42.5t42 17.5zM822 650v-80h-111v-570h-98v165q-44 -40 -112 -40q-72 0 -122 48t-50 125t51 124.5t125 47.5q20 0 42 -4v-76q-9 3 -29 3q-42 0 -69 -27.5t-27 -70.5t26.5 -69t68.5 -26
q41 0 68.5 26.5t27.5 72.5v271h-302v-136q0 -70 -41.5 -111.5t-112.5 -48.5l-11 -1l214 -273h-117l-211 272v78h70q113 0 113 91v129h-239v80h846z" />
    <glyph glyph-name="dvGxA" unicode="&#x95a;" horiz-adv-x="577" 
d="M139 87q25 0 42.5 -17.5t17.5 -42.5t-17.5 -42t-42.5 -17t-42 17t-17 42t17 42.5t42 17.5zM-24 650h626v-80h-112v-570h-95v570h-156v-228q0 -66 -35 -100.5t-96 -34.5q-42 0 -78 13v82q28 -14 57 -14q56 0 56 61v221h-167v80z" />
    <glyph glyph-name="dvJxA" unicode="&#x95b;" horiz-adv-x="652" 
d="M160 -25q25 0 42.5 -17.5t17.5 -42.5t-17.5 -42t-42.5 -17q-26 0 -42.5 17t-16.5 42t17 42.5t42 17.5zM-24 650h701v-80h-111v-570h-97v374h-185q69 -41 69 -134q0 -81 -55 -130t-145 -49q-68 0 -123 22v86q50 -26 109 -26q55 0 87.5 28t32.5 79q0 60 -43.5 92t-121.5 32
v81h375v115h-493v80z" />
    <glyph glyph-name="dvDDxA" unicode="&#x95c;" horiz-adv-x="524" 
d="M247 -75q25 0 42.5 -17.5t17.5 -42.5t-17.5 -42t-42.5 -17t-42 17t-17 42t17 42.5t42 17.5zM409 570v-151v-1h-184q-75 0 -75 -56q0 -31 29.5 -44t100.5 -15q185 -5 185 -143q0 -71 -57.5 -116t-155.5 -45q-109 0 -197 46v93q92 -58 198 -58q54 0 84.5 20.5t30.5 56.5
q0 35 -28 49t-95 16q-191 7 -191 138q0 68 48 103t121 35h90v72h-337v80h573v-80h-140z" />
    <glyph glyph-name="dvDDHxA" unicode="&#x95d;" horiz-adv-x="558" 
d="M266 208v75q41 22 96 22q69 0 108 -35t39 -93q0 -70 -56.5 -115t-152.5 -45q-110 0 -181.5 64t-71.5 165q0 102 72.5 164t190.5 64q11 0 35 -2v98h-369v80h607v-80h-142v-185q-57 10 -102 10q-87 0 -140 -40t-53 -110q0 -65 43.5 -107t113.5 -42q49 0 81 21t32 59
q0 24 -18.5 40t-49.5 16q-49 0 -82 -24zM237 -129q0 25 17 42.5t42 17.5t42.5 -17.5t17.5 -42.5t-17.5 -42t-42.5 -17q-26 0 -42.5 17t-16.5 42z" />
    <glyph glyph-name="dvPHxA" unicode="&#x95e;" horiz-adv-x="806" 
d="M142 78q25 0 42.5 -17.5t17.5 -42.5t-17.5 -42t-42.5 -17q-26 0 -42.5 16.5t-16.5 42.5q0 25 17 42.5t42 17.5zM376 380v190h-213v-198q0 -63 24 -90t73 -27t82.5 33t33.5 92zM831 570h-358v-127q46 46 119 46q83 0 132.5 -52t49.5 -133q0 -92 -58.5 -143.5t-145.5 -51.5
q-10 0 -24 2v80q12 -2 19 -2q51 0 82 30t31 85q0 46 -28 76t-73 30q-44 0 -74 -29t-30 -75v-306h-97v229q-47 -52 -128 -52q-90 0 -136 46t-46 149v198h-90v80h855v-80z" />
    <glyph glyph-name="dvvRR" unicode="&#x960;" horiz-adv-x="799" 
d="M439 570v-209l124 71v59h90v-89q0 -84 82 -84h16v-79h-37q-92 0 -92 -62q0 -57 88 -57h26v-79h-21q-35 0 -53.5 -16t-18.5 -44t21 -43t58 -15q47 0 92 21v-79q-43 -22 -102 -22q-74 0 -120.5 33.5t-46.5 94.5q0 73 64 102q-38 12 -60 38t-22 63q0 85 92 110
q-37 20 -49 61l-131 -75v-270h-98v221l-310 -183v96l207 120q-12 60 -41 93.5t-87 33.5q-43 0 -87 -19v88q41 18 93 18q159 0 200 -169l25 15v256h-392v80h894v-80h-404z" />
    <glyph glyph-name="dvvLL" unicode="&#x961;" horiz-adv-x="797" 
d="M693 570v-265q0 -33 -11.5 -61.5t-28 -47.5t-33.5 -35.5t-28.5 -35t-11.5 -36.5q0 -26 20 -41t54 -15h36v-80h-60q-32 0 -49.5 -17.5t-17.5 -46.5q0 -28 21 -48t57 -20q45 0 83 17v-81q-37 -16 -89 -16q-75 0 -123 41.5t-48 106.5q0 77 67 110q-47 32 -47 89
q0 27 11.5 49.5t28 39t33 33.5t28 41.5t11.5 53.5v111h-65q-58 0 -83.5 -28.5t-25.5 -97.5v-60h-96v61q0 127 -89 127q-48 0 -76 -35t-28 -101q0 -176 163 -208l-2 -82q-121 20 -189.5 94t-68.5 197q0 94 52 154t143 60q106 0 144 -80q33 78 152 78h69v75h-615v80h818v-80
h-106z" />
    <glyph glyph-name="dvmvL" unicode="&#x962;" horiz-adv-x="0" 
d="M35 -199q-60 -6 -60 -44q0 -32 40 -32q30 0 55 13v-52q-24 -10 -57 -10q-47 0 -76.5 21t-29.5 58q0 27 16.5 46t45.5 25v88q-12 6 -28 6q-47 0 -47 -60v-37h-69v38q0 55 -36 55q-40 0 -40 -67q0 -39 20 -65.5t60 -26.5q18 0 33 5v-52q-16 -4 -37 -4q-66 0 -105 40.5
t-39 103.5q0 52 28 84.5t75 32.5q29 0 49.5 -15t27.5 -40q4 25 27 40.5t53 15.5q59 0 94 -30v-137z" />
    <glyph glyph-name="dvmvLL" unicode="&#x963;" horiz-adv-x="0" 
d="M46 -324h-7q-43 0 -43 -36q0 -32 44 -32q31 0 59 19v-52q-30 -16 -69 -16q-43 0 -72 19.5t-29 54.5q0 47 43 63q-65 12 -65 65q0 26 17 43.5t45 21.5v88q-14 6 -28 6q-47 0 -47 -60v-37h-69v38q0 55 -36 55q-40 0 -40 -67q0 -39 20 -65.5t60 -26.5q18 0 33 5v-52
q-16 -4 -37 -4q-66 0 -105 40.5t-39 103.5q0 52 28 84.5t75 32.5q29 0 49.5 -15t27.5 -40q4 25 27 40.5t53 15.5q56 0 91 -30v-137q-57 0 -57 -39q0 -36 58 -36h13v-50z" />
    <glyph glyph-name="danda" unicode="&#x964;" horiz-adv-x="382" 
d="M176 0v650h97v-650h-97z" />
    <glyph glyph-name="doubledanda" unicode="&#x965;" horiz-adv-x="608" 
d="M176 0v650h97v-650h-97zM402 0v650h97v-650h-97z" />
    <glyph glyph-name="dvZero" unicode="&#x966;" horiz-adv-x="541" 
d="M39 329q0 154 62 244.5t168 90.5q109 0 171 -90t62 -245q0 -153 -60.5 -245t-172.5 -92q-107 0 -168.5 92t-61.5 245zM140 329q0 -117 36 -181.5t93 -64.5q62 0 97.5 64t35.5 182q0 119 -36.5 181.5t-96.5 62.5q-56 0 -92.5 -63t-36.5 -181z" />
    <glyph glyph-name="dvOne" unicode="&#x967;" horiz-adv-x="372" 
d="M43 452v105l163 97h90v-654h-98v547z" />
    <glyph glyph-name="dvTwo" unicode="&#x968;" horiz-adv-x="508" 
d="M179 85h284v-85h-420v81q126 92 212.5 190.5t86.5 179.5q0 57 -33 87.5t-91 30.5q-78 0 -157 -60v97q72 55 171 55q92 0 152 -51.5t60 -146.5q0 -177 -265 -378z" />
    <glyph glyph-name="dvThree" unicode="&#x969;" horiz-adv-x="492" 
d="M76 530v95q60 36 138 36q100 0 156 -49.5t56 -124.5q0 -54 -26.5 -94.5t-77.5 -61.5q57 -14 89 -53t32 -98q0 -81 -58.5 -133.5t-163.5 -52.5q-99 0 -167 34v96q75 -40 162 -40q60 0 93 29t33 76q0 100 -147 100h-40v84h40q55 0 92 27.5t37 75.5t-30.5 72t-83.5 24
q-69 0 -134 -42z" />
    <glyph glyph-name="dvFour" unicode="&#x96a;" horiz-adv-x="573" 
d="M147 238h198v359zM534 238v-85h-92v-153h-97v153h-296v85l235 417h158v-417h92z" />
    <glyph glyph-name="dvFive" unicode="&#x96b;" horiz-adv-x="525" 
d="M190 570v-172q37 8 68 8q102 0 160 -53.5t58 -144.5q0 -98 -64.5 -156.5t-179.5 -58.5q-103 0 -170 34v95q64 -39 154 -39q158 0 158 128q0 51 -35.5 79.5t-95.5 28.5q-76 0 -150 -35v371h339v-85h-242z" />
    <glyph glyph-name="dvSix" unicode="&#x96c;" horiz-adv-x="535" 
d="M283 76q51 0 81 38t30 98q0 56 -30 89.5t-80 33.5q-81 0 -135 -60q3 -103 39.5 -151t94.5 -48zM448 656v-95q-39 20 -90 20q-85 0 -136.5 -62t-66.5 -157q62 59 147 59q89 0 141 -57t52 -152q0 -98 -58 -161.5t-155 -63.5q-116 0 -175 83t-59 222q0 165 83 272t222 107
q50 0 95 -15z" />
    <glyph glyph-name="dvSeven" unicode="&#x96d;" horiz-adv-x="497" 
d="M33 654h431v-85l-266 -569h-105l267 569h-327v85z" />
    <glyph glyph-name="dvEight" unicode="&#x96e;" horiz-adv-x="542" 
d="M269 75q61 0 93 30t32 74t-31.5 73.5t-93.5 30.5q-61 -2 -91.5 -33.5t-30.5 -77.5q0 -41 31 -69t91 -28zM268 579q-52 0 -81 -30.5t-29 -73.5q0 -51 31.5 -77t81.5 -26q48 0 78.5 27t30.5 77q0 44 -28 73.5t-84 29.5zM382 329q112 -37 112 -156q0 -82 -64 -132t-162 -50
q-96 0 -158 48t-62 129q0 117 109 159q-99 42 -99 145q0 89 61.5 140t148.5 51q89 0 150 -49t61 -141q0 -99 -97 -144z" />
    <glyph glyph-name="dvNine" unicode="&#x96f;" horiz-adv-x="524" 
d="M268 316q71 0 120 60q-2 90 -34.5 143.5t-95.5 53.5q-51 0 -81 -36t-30 -93q0 -61 32.5 -94.5t88.5 -33.5zM85 11v95q53 -23 108 -23q91 0 136 50.5t55 153.5q-49 -55 -141 -55q-83 0 -140 57.5t-57 152.5q0 92 55.5 156t152.5 64q113 0 173 -82.5t60 -213.5
q0 -179 -72.5 -276.5t-214.5 -97.5q-63 0 -115 19z" />
    <glyph glyph-name="dvAbbreviationsign" unicode="&#x970;" horiz-adv-x="454" 
d="M59 308q0 69 49 118t119 49q69 0 118 -49t49 -118q0 -70 -49 -119t-118 -49q-70 0 -119 49t-49 119zM142 308q0 -35 25 -60t60 -25t59.5 25t24.5 60q0 34 -24.5 59t-59.5 25t-60 -24.5t-25 -59.5z" />
    <glyph glyph-name="dvAcandra" unicode="&#x972;" horiz-adv-x="671" 
d="M634 904h95q0 -79 -55 -123t-137 -44q-85 0 -138.5 42.5t-53.5 124.5h95q0 -41 25.5 -67t71.5 -26q47 0 72 25.5t25 67.5zM401 570v80h295v-80h-112v-570h-96v252h-130q1 -6 1 -18q0 -76 -53 -123t-150 -47q-68 0 -126 24v90q62 -32 123 -32q46 0 79 23.5t33 75.5
q0 85 -116 85h-37v84h32q49 0 74.5 21t25.5 58q0 75 -87 75q-55 0 -99 -24v89q48 19 103 19q86 0 133 -40t47 -108q0 -51 -26 -85t-70 -46q49 -6 80 -40h163v237h-87z" />
    <glyph glyph-name="zerowidthspace" unicode="&#x200b;" horiz-adv-x="0" 
 />
    <glyph glyph-name="zerowidthnonjoiner" unicode="&#x200c;" horiz-adv-x="0" 
d="M24 -230h-47v1041h47v-1041z" />
    <glyph glyph-name="zerowidthjoiner" unicode="&#x200d;" horiz-adv-x="0" 
d="M129 593l-33 -33l-72 75v-865h-47v865l-69 -73l-33 33l93 93l-95 95l33 33l95 -95l96 95l32 -32l-96 -96z" />
    <glyph glyph-name="endash" unicode="&#x2013;" horiz-adv-x="544" 
d="M53 231v78h438v-78h-438z" />
    <glyph glyph-name="emdash" unicode="&#x2014;" horiz-adv-x="826" 
d="M53 233v78h720v-78h-720z" />
    <glyph glyph-name="quoteleft" unicode="&#x2018;" horiz-adv-x="205" 
d="M221 695l-89 -235h-116l124 235h81z" />
    <glyph glyph-name="quoteright" unicode="&#x2019;" horiz-adv-x="206" 
d="M17 460l88 235h117l-125 -235h-80z" />
    <glyph glyph-name="quotesinglbase" unicode="&#x201a;" horiz-adv-x="206" 
d="M-1 -124l89 234h116l-124 -234h-81z" />
    <glyph glyph-name="quotedblleft" unicode="&#x201c;" horiz-adv-x="361" 
d="M221 695l-90 -235h-115l127 235h78zM377 695l-87 -235h-110l118 235h79z" />
    <glyph glyph-name="quotedblright" unicode="&#x201d;" horiz-adv-x="361" 
d="M172 460l90 235h115l-126 -235h-79zM17 460l86 235h110l-118 -235h-78z" />
    <glyph glyph-name="quotedblbase" unicode="&#x201e;" horiz-adv-x="361" 
d="M157 -124l90 234h115l-127 -234h-78zM1 -124l87 234h109l-117 -234h-79z" />
    <glyph glyph-name="dagger" unicode="&#x2020;" horiz-adv-x="534" 
d="M495 509v-83h-186v-426h-89v426h-182v83h182v165h89v-165h186z" />
    <glyph glyph-name="daggerdbl" unicode="&#x2021;" horiz-adv-x="547" 
d="M502 426h-187v-170h187v-84h-187v-172h-89v172h-181v84h181v170h-181v83h181v165h89v-165h187v-83z" />
    <glyph glyph-name="bullet" unicode="&#x2022;" horiz-adv-x="442" 
d="M88 356q0 57 37.5 95t94.5 38q56 0 94.5 -38.5t38.5 -94.5t-38 -94.5t-94 -38.5q-57 0 -95 38t-38 95z" />
    <glyph glyph-name="ellipsis" unicode="&#x2026;" horiz-adv-x="783" 
d="M43 60q0 28 19.5 47.5t48.5 19.5q28 0 47.5 -19.5t19.5 -47.5t-19.5 -48t-47.5 -20q-29 0 -48.5 20t-19.5 48zM324 60q0 28 19.5 47.5t48.5 19.5q28 0 47.5 -19.5t19.5 -47.5t-19.5 -48t-47.5 -20t-48 20t-20 48zM605 60q0 28 19.5 47.5t48.5 19.5q28 0 47.5 -19.5
t19.5 -47.5t-19.5 -48t-47.5 -20q-29 0 -48.5 20t-19.5 48z" />
    <glyph glyph-name="perthousand" unicode="&#x2030;" horiz-adv-x="1270" 
d="M209 -1l364 678h93l-365 -678h-92zM498 160q0 69 49 118.5t119 49.5q69 0 118 -49.5t49 -118.5q0 -70 -49 -118.5t-118 -48.5q-70 0 -119 48.5t-49 118.5zM45 520q0 69 49 118t119 49q69 0 118 -49t49 -118q0 -70 -49 -119t-118 -49q-70 0 -119 49t-49 119zM128 520
q0 -35 25 -60t60 -25t59.5 25t24.5 60q0 34 -24.5 59t-59.5 25t-60 -24.5t-25 -59.5zM581 160q0 -35 25 -60t60 -25t60 25t25 60t-25 60t-60 25t-60 -25t-25 -60zM902 160q0 69 49 118.5t118 49.5t118.5 -49.5t49.5 -118.5t-49.5 -118t-118.5 -49t-118 48.5t-49 118.5z
M985 160q0 -35 24.5 -60t59.5 -25t60 25t25 60t-25 60t-60 25t-59.5 -25t-24.5 -60z" />
    <glyph glyph-name="guilsinglleft" unicode="&#x2039;" horiz-adv-x="320" 
d="M285 415l-146 -162l146 -162h-106l-151 162l151 162h106z" />
    <glyph glyph-name="guilsinglright" unicode="&#x203a;" horiz-adv-x="318" 
d="M141 415l151 -162l-151 -162h-106l146 162l-146 162h106z" />
    <glyph glyph-name="fraction" unicode="&#x2044;" horiz-adv-x="298" 
d="M-35 0h-82l444 712h82z" />
    <glyph glyph-name="rupee" unicode="&#x20a8;" horiz-adv-x="914" 
d="M176 588v-246h93q64 0 97 33.5t33 89.5q0 123 -135 123h-88zM73 674h188q116 0 179 -56.5t63 -153.5q-1 -71 -36 -120.5t-97 -71.5l176 -272h-123l-158 256h-89v-256h-103v674zM865 490v-89q-49 29 -126 29q-35 0 -55.5 -16t-20.5 -42q0 -7 1.5 -13.5t5.5 -13t7.5 -11
t11.5 -9.5t12.5 -8.5t15 -8.5t15.5 -7.5t17.5 -8t17.5 -7.5q59 -26 92.5 -58.5t33.5 -86.5q0 -68 -48 -106.5t-130 -38.5q-90 0 -150 30v93q70 -43 145 -43q39 0 60.5 16t21.5 42q0 22 -17 39.5t-34.5 26t-59.5 26.5q-119 49 -119 144q0 67 50 105t125 38q82 0 128 -22z" />
    <glyph glyph-name="Euro" unicode="&#x20ac;" horiz-adv-x="600" 
d="M560 633v-97q-48 31 -119 31q-65 0 -113 -33t-71 -95h194v-67h-210q-3 -24 -3 -50q0 -14 2 -40h211v-67h-196q23 -63 71 -97t110 -34q74 0 124 33v-98q-52 -27 -135 -27q-102 0 -176.5 60t-101.5 163h-99v67h88q-2 26 -2 41q0 17 2 49h-88v67h100q29 105 104 163.5
t175 58.5q81 0 133 -28z" />
    <glyph glyph-name="indianrupee" unicode="&#x20b9;" horiz-adv-x="546" 
d="M500 674v-80h-159q41 -35 55 -91h104v-80h-99q-9 -81 -66.5 -128.5t-154.5 -50.5l199 -244h-124l-192 244v82h95q127 0 143 97h-238v80h233q-27 91 -140 91h-93v80h437z" />
    <glyph glyph-name="uni20BA" unicode="&#x20ba;" horiz-adv-x="582" 
d="M454 363h95q0 -154 -93 -258.5t-243 -104.5h-68v339l-85 -44v90l85 44v226h98v-176l104 54v-90l-104 -54v-303q95 15 153 94.5t58 182.5z" />
    <glyph glyph-name="uni20BD" unicode="&#x20bd;" horiz-adv-x="572" 
d="M215 572v-248h72q74 0 112 31.5t38 90.5q0 60 -38 93t-114 33h-70zM295 248h-80v-87h202v-76h-202v-85h-102v85h-97v76h97v87h-97v76h97v331h176q119 0 183.5 -56.5t64.5 -149.5q0 -94 -64.5 -147.5t-177.5 -53.5z" />
    <glyph glyph-name="uni2113" unicode="&#x2113;" horiz-adv-x="506" 
d="M249 470v-163q58 29 89 81t31 113q0 40 -15 65t-44 25q-61 0 -61 -121zM249 217v-8q0 -132 105 -132q55 0 107 32v-82q-52 -32 -126 -32q-86 0 -134.5 49t-48.5 142v10q-28 -2 -43 -2q-39 0 -71 9v85q35 -11 70 -11q16 0 44 2v195q0 93 36 149t114 56q77 0 115.5 -49
t38.5 -125q0 -95 -54.5 -174t-152.5 -114z" />
    <glyph glyph-name="trademark" unicode="&#x2122;" horiz-adv-x="711" 
d="M277 331l28 343h84l51 -142q12 -33 21.5 -62t12.5 -42l3 -12q13 42 41 116l53 142h85l29 -343h-69l-11 143l-3 119q-9 -39 -39 -120l-52 -136h-66l-48 136l-38 120q2 -42 -3 -120l-9 -142h-70zM4 612v62h241v-62h-84v-282h-70v282h-87z" />
    <glyph glyph-name="uni2126" unicode="&#x2126;" horiz-adv-x="783" 
d="M583 86h150v-86h-296v86q75 15 112.5 85t37.5 174q0 114 -51 180t-146 66q-93 0 -145 -66t-52 -180q0 -101 40 -172t114 -87v-86h-296v86h149q-115 84 -115 259q0 154 82 248t223 94q143 0 224 -93.5t81 -248.5q0 -176 -112 -259z" />
    <glyph glyph-name="estimated" unicode="&#x212e;" horiz-adv-x="835" 
d="M624 352v192q-35 43 -91.5 69t-124.5 26q-64 0 -120 -26.5t-92 -71.5v-189h428zM799 309h-603v-177q83 -100 214 -100q138 0 228 110h96q-58 -71 -142 -111.5t-182 -40.5q-162 0 -275 99t-113 241q0 145 113.5 249.5t274.5 104.5t275 -104.5t114 -249.5v-21z" />
    <glyph glyph-name="partialdiff" unicode="&#x2202;" horiz-adv-x="526" 
d="M252 81q62 0 97 52.5t37 145.5q-50 60 -130 60q-51 0 -84 -35.5t-33 -94.5q0 -56 30.5 -92t82.5 -36zM130 674h137q86 -59 149.5 -170.5t63.5 -218.5q0 -135 -60.5 -214.5t-171.5 -79.5q-99 0 -154.5 63.5t-55.5 157.5q0 96 61.5 154.5t144.5 58.5q77 0 129 -49
q-26 90 -94.5 169.5t-148.5 128.5z" />
    <glyph glyph-name="uni2206" unicode="&#x2206;" horiz-adv-x="636" 
d="M142 85h352l-60 179l-115 333q-25 -71 -116 -333zM388 674l216 -598v-76h-572v76l220 598h136z" />
    <glyph glyph-name="product" unicode="&#x220f;" horiz-adv-x="609" 
d="M538 674v-854h-103v764h-239v-575q0 -97 -42 -145.5t-120 -48.5q-34 0 -66 12v92q26 -12 52 -12q74 0 74 96v671h444z" />
    <glyph glyph-name="summation" unicode="&#x2211;" horiz-adv-x="454" 
d="M483 674v-86h-341l167 -344l-168 -358h342v-86h-453v86l170 358l-170 344v86h453z" />
    <glyph glyph-name="minus" unicode="&#x2212;" horiz-adv-x="564" 
d="M53 296v88h457v-88h-457z" />
    <glyph glyph-name="uni2215" unicode="&#x2215;" horiz-adv-x="396" 
d="M34 0h-82l444 712h82z" />
    <glyph glyph-name="uni2219" unicode="&#x2219;" horiz-adv-x="263" 
d="M64 337q0 29 20 48.5t48 19.5t47.5 -20t19.5 -48t-19.5 -48t-47.5 -20t-48 19.5t-20 48.5z" />
    <glyph glyph-name="radical" unicode="&#x221a;" horiz-adv-x="775" 
d="M238 433l100 -283q66 -190 83 -258q0 2 7 33.5t24 96.5t37 132l229 746h103l-337 -1096h-128l-200 548h-125l19 81h188z" />
    <glyph glyph-name="infinity" unicode="&#x221e;" horiz-adv-x="833" 
d="M137 346q0 -39 25 -65t68 -26q66 0 130 91q-70 87 -130 87q-44 0 -68.5 -24t-24.5 -63zM416 286q-42 -51 -87 -80.5t-106 -29.5q-84 0 -129.5 44.5t-45.5 121.5q0 76 49 123t131 47q59 0 102.5 -28.5t86.5 -80.5q87 111 193 111q83 0 129.5 -45t46.5 -120t-49.5 -123
t-130.5 -48q-60 0 -103.5 28t-86.5 80zM695 346q0 38 -24.5 63.5t-67.5 25.5q-66 0 -130 -92q23 -28 38.5 -43.5t40.5 -29t51 -13.5q44 0 68 24t24 65z" />
    <glyph glyph-name="integral" unicode="&#x222b;" horiz-adv-x="318" 
d="M330 699v-86q-24 9 -48 9q-73 0 -73 -86v-542q0 -79 -42.5 -124.5t-119.5 -45.5q-29 0 -56 8v86q23 -10 47 -10q73 0 73 87v542q0 79 42.5 124t119.5 45q32 0 57 -7z" />
    <glyph glyph-name="approxequal" unicode="&#x2248;" horiz-adv-x="609" 
d="M499 306l67 -50q-60 -92 -146 -92q-48 0 -113.5 33t-93.5 33q-61 0 -108 -64l-63 53q68 94 154 94q54 0 119 -32t93 -32q52 0 91 57zM499 507l67 -50q-59 -91 -146 -91q-48 0 -113.5 32.5t-93.5 32.5q-61 0 -108 -64l-63 53q68 94 154 94q54 0 119 -32t93 -32q52 0 91 57
z" />
    <glyph glyph-name="notequal" unicode="&#x2260;" horiz-adv-x="564" 
d="M510 405h-168l-59 -129h227v-83h-264l-39 -85h-61l38 85h-131v83h169l58 129h-227v82h265l38 85h62l-39 -85h131v-82z" />
    <glyph glyph-name="lessequal" unicode="&#x2264;" horiz-adv-x="559" 
d="M48 109v82h457v-82h-457zM505 569v-89l-411 -72l411 -72v-89l-457 94v134z" />
    <glyph glyph-name="greaterequal" unicode="&#x2265;" horiz-adv-x="559" 
d="M53 109v82h457v-82h-457zM53 569l457 -94v-134l-457 -94v89l411 72l-411 72v89z" />
    <glyph glyph-name="lozenge" unicode="&#x25ca;" horiz-adv-x="575" 
d="M387 265l39 72l-39 72q-31 55 -56 101t-35 65l-9 19q-30 -62 -98 -185l-38 -72l38 -72l98 -185q30 62 100 185zM342 674l188 -337l-188 -337h-112l-185 337l185 337h112z" />
    <glyph glyph-name="dottedcircle" unicode="&#x25cc;" horiz-adv-x="660" 
d="M139 517q0 19 12.5 31.5t31.5 12.5t31.5 -12.5t12.5 -31.5q0 -20 -12.5 -32.5t-31.5 -12.5t-31.5 12.5t-12.5 32.5zM57 407q0 19 13 31.5t33 12.5q18 0 31 -12.5t13 -31.5t-13 -31.5t-31 -12.5q-20 0 -33 12.5t-13 31.5zM44 281q0 19 12.5 32t31.5 13t31.5 -12.5
t12.5 -32.5q0 -19 -12.5 -31t-31.5 -12t-31.5 12t-12.5 31zM96 165q0 19 12.5 31.5t31.5 12.5t31.5 -12.5t12.5 -31.5t-12.5 -31.5t-31.5 -12.5q-20 0 -32 12.5t-12 31.5zM197 90q0 18 13 31t32 13t31.5 -13t12.5 -31q0 -20 -12.5 -33t-31.5 -13t-32 13t-13 33zM324 74
q0 20 12 32t32 12t32.5 -12.5t12.5 -31.5t-12.5 -31.5t-32.5 -12.5t-32 12t-12 32zM445 127q0 19 12.5 31.5t31.5 12.5t32 -12.5t13 -31.5t-13 -31.5t-32 -12.5t-31.5 12.5t-12.5 31.5zM518 225q0 19 13 32t32 13q18 0 30.5 -13t12.5 -32t-12.5 -31.5t-30.5 -12.5
q-19 0 -32 12.5t-13 31.5zM528 359q0 19 12 31.5t32 12.5q19 0 31.5 -12.5t12.5 -31.5t-12.5 -31.5t-31.5 -12.5q-20 0 -32 12.5t-12 31.5zM478 477q0 19 12.5 32t31.5 13t31.5 -12.5t12.5 -32.5q0 -19 -12.5 -31.5t-31.5 -12.5t-31.5 12.5t-12.5 31.5zM383 545
q0 19 12.5 32t32.5 13q19 0 31 -12.5t12 -32.5q0 -18 -12.5 -31t-30.5 -13q-19 0 -32 13t-13 31zM257 560q0 20 12.5 32t31.5 12t31.5 -12t12.5 -32t-12.5 -32t-31.5 -12t-31.5 12t-12.5 32z" />
    <glyph glyph-name="dvK_SSA" horiz-adv-x="764" 
d="M273 578q-35 0 -58 -22.5t-23 -55.5q0 -76 88 -95q74 30 74 97q0 30 -23.5 53t-57.5 23zM581 650h209v-80h-111v-570h-98v321h-239q-44 0 -83 9q-53 -19 -85.5 -49.5t-32.5 -71.5q0 -40 27 -63.5t70 -23.5q48 0 83.5 30t46.5 82h91v-234h-95v105q-15 -27 -54.5 -45
t-84.5 -18q-83 0 -133 44.5t-50 117.5q0 111 126 164q-69 49 -69 134q0 63 48 109t123 46q79 0 127.5 -42t48.5 -106q0 -71 -54 -111h189v252z" />
    <glyph glyph-name="dvJ_NYA" horiz-adv-x="732" 
d="M-30 650h820v-80h-123v-570h-97v415h-317q-81 0 -81 -50q0 -27 25 -39.5t89 -13.5q87 -1 135 -36.5t48 -106.5q0 -70 -52 -113t-125 -43q-82 0 -138 45v-107h-95v231h88q16 -40 54 -67t82 -27q40 0 64.5 22t24.5 59t-30 52t-87 15q-89 0 -135.5 32.5t-46.5 94.5
q0 65 49.5 98.5t126.5 33.5h321v75h-600v80z" />
    <glyph glyph-name="dvK" horiz-adv-x="527" 
d="M440 570v-133q45 45 113 45q85 0 137 -52l-68 -69q-26 43 -83 43q-41 0 -70 -29.5t-29 -73.5v-301h-97v137q-47 -45 -114 -45q-84 0 -136 51.5t-52 133.5q0 89 58.5 142t146.5 53q16 0 23 -2v-80q-10 2 -19 2q-49 0 -80.5 -31t-31.5 -83q0 -47 29 -77.5t76 -30.5
q41 0 70.5 29.5t29.5 73.5v297h-367v80h575v-80h-111z" />
    <glyph glyph-name="dvKH" horiz-adv-x="596" 
d="M537 291v-71q-27 -10 -52 -10q-58 0 -98 37t-40 97q0 64 47 107.5t119 43.5q87 0 141 -52t54 -143q0 -112 -84.5 -188.5t-217.5 -76.5q-127 0 -217 74t-130 193v78h67q45 0 58.5 19t13.5 70v101h-222v80h644v-80h-326v-118q0 -67 -23.5 -103.5t-80.5 -42.5q-12 -3 -19 -3
q22 -79 88 -130.5t155 -51.5q93 0 149.5 48.5t56.5 130.5q0 54 -26.5 87t-77.5 33q-36 0 -57 -21.5t-21 -52.5q0 -29 17.5 -46t45.5 -17q20 0 36 8z" />
    <glyph glyph-name="dvG" horiz-adv-x="310" 
d="M334 650v-80h-95v-228q0 -66 -35 -100.5t-96 -34.5q-42 0 -78 13v82q28 -14 57 -14q56 0 56 61v221h-167v80h358z" />
    <glyph glyph-name="dvGH" horiz-adv-x="359" 
d="M428 241l33 -69q-73 -86 -201 -86q-89 0 -144.5 42.5t-55.5 114.5q0 54 34.5 88t93.5 43q-51 3 -85.5 31.5t-34.5 78.5q0 51 38 86h-130v80h407v-80h-170q-48 -29 -48 -80q0 -74 115 -74h46v-83h-56q-52 0 -82.5 -22.5t-30.5 -62.5t32.5 -60.5t79.5 -20.5q105 0 159 74z
" />
    <glyph glyph-name="dvNG" horiz-adv-x="598" 
d="M220 -67h99l141 -168h-117zM520 410q25 0 42.5 -17.5t17.5 -42.5t-17 -42t-43 -17t-42.5 16.5t-16.5 42.5q0 25 17 42.5t42 17.5zM-24 650h646v-80h-213v-151v-1h-184q-75 0 -75 -56q0 -31 29.5 -44t100.5 -15q185 -5 185 -143q0 -71 -57.5 -116t-155.5 -45
q-109 0 -197 46v93q92 -58 198 -58q54 0 84.5 20.5t30.5 56.5q0 35 -28 49t-95 16q-191 7 -191 138q0 68 48 103t121 35h90v72h-337v80z" />
    <glyph glyph-name="dvC" horiz-adv-x="399" 
d="M423 650v-80h-447v80h447zM485 302l45 -55q-24 -61 -89.5 -105.5t-153.5 -44.5q-89 0 -143.5 42.5t-54.5 118.5q0 83 71 121h-134v81h346v-81q-100 0 -144.5 -31t-44.5 -80q0 -42 31.5 -67.5t81.5 -25.5q64 0 115 37t74 90z" />
    <glyph glyph-name="dvCH" horiz-adv-x="633" 
d="M657 570h-430q-56 -36 -56 -96q0 -38 26.5 -61.5t66.5 -23.5h31v-82h-37q-50 0 -76 -21t-26 -59q0 -42 40 -67t101 -25q87 0 141 46t54 127q0 48 -26.5 75.5t-75.5 27.5q-25 0 -45 -6v78q20 7 60 7q87 0 136 -48t49 -129q0 -114 -83 -186t-210 -72q-103 0 -170.5 45
t-67.5 124q0 54 33 88t89 39q-44 5 -75 38.5t-31 84.5q0 59 41 96h-140v80h681v-80z" />
    <glyph glyph-name="dvJ" horiz-adv-x="421" 
d="M446 650v-80h-470v80h470zM554 455v-81h-270q69 -41 69 -134q0 -81 -55 -130t-145 -49q-68 0 -123 22v86q50 -26 109 -26q55 0 87.5 28t32.5 79q0 60 -43.5 92t-121.5 32v81h460z" />
    <glyph glyph-name="dvJH" horiz-adv-x="535" 
d="M660 322v-77h-216q20 -32 20 -77q0 -69 -48 -112.5t-126 -43.5q-79 0 -136 43v-104h-95v229h88q17 -40 54.5 -66t80.5 -26q39 0 62.5 20.5t23.5 56.5q0 70 -110 76q-88 3 -138 31t-50 96q0 67 48.5 101.5t127.5 34.5h78v66h-348v80h584v-80h-140v-144v-2h-169
q-84 0 -84 -52q0 -26 23.5 -36.5t76.5 -12.5l17 -1h376z" />
    <glyph glyph-name="dvNY" horiz-adv-x="462" 
d="M486 650v-80h-510v80h510zM578 331v-80h-183q-9 -79 -67 -128t-150 -52q-82 0 -154 36v89q71 -42 147 -42q61 0 94 34t33 89q0 50 -30.5 81.5t-82.5 31.5q-46 0 -82 -16v82q36 15 86 15q82 0 134 -37t67 -103h188z" />
    <glyph glyph-name="dvTT" horiz-adv-x="502" 
d="M420 570v-191q-28 6 -78 6q-87 0 -138.5 -38t-51.5 -108q0 -67 47 -103t124 -36q38 0 78.5 12t64.5 27v-88q-64 -33 -148 -33q-121 0 -193 59.5t-72 164.5q0 96 69 158t182 63h20v107h-348v80h550v-80h-106zM508 -217h-117l-123 168h99z" />
    <glyph glyph-name="dvTTH" horiz-adv-x="567" 
d="M238 -7h99l141 -168h-117zM420 262q0 58 -36.5 88.5t-99.5 31.5q-57 0 -97 -30t-40 -89q0 -56 38 -90t100 -34q61 0 98 34t37 89zM592 570h-239v-117q75 -17 120.5 -66t45.5 -125q0 -89 -64.5 -145t-170.5 -57q-105 0 -170 55.5t-65 147.5q0 88 60.5 138.5t147.5 57.5
v111h-281v80h616v-80z" />
    <glyph glyph-name="dvDD" horiz-adv-x="524" 
d="M214 -67h99l141 -168h-117zM409 570v-151v-1h-184q-75 0 -75 -56q0 -31 29.5 -44t100.5 -15q185 -5 185 -143q0 -71 -57.5 -116t-155.5 -45q-109 0 -197 46v93q92 -58 198 -58q54 0 84.5 20.5t30.5 56.5q0 35 -28 49t-95 16q-191 7 -191 138q0 68 48 103t121 35h90v72
h-337v80h573v-80h-140z" />
    <glyph glyph-name="dvDDH" horiz-adv-x="558" 
d="M494 -218h-117l-123 168h99zM266 208v75q41 22 96 22q69 0 108 -35t39 -93q0 -70 -56.5 -115t-152.5 -45q-110 0 -181.5 64t-71.5 165q0 102 72.5 164t190.5 64q11 0 35 -2v98h-369v80h607v-80h-142v-185q-57 10 -102 10q-87 0 -140 -40t-53 -110q0 -65 43.5 -107
t113.5 -42q49 0 81 21t32 59q0 24 -18.5 40t-49.5 16q-49 0 -82 -24z" />
    <glyph glyph-name="dvNN" horiz-adv-x="498" 
d="M325 346v224h-164v-224q0 -96 80 -96q84 0 84 96zM522 650v-80h-101v-219q0 -89 -47 -136t-134 -47q-175 0 -175 182v220h-89v80h546z" />
    <glyph glyph-name="dvT" horiz-adv-x="385" 
d="M538 377h-215q-166 0 -166 -146q0 -69 33 -108.5t99 -39.5q16 0 21 1v-82q-18 -2 -33 -2q-101 0 -159.5 65t-58.5 167q0 103 65 164.5t191 61.5h223v-81zM-24 570v80h434v-80h-434z" />
    <glyph glyph-name="dvTH" horiz-adv-x="442" 
d="M375 507q0 -152 -237 -213q14 -53 59.5 -80.5t105.5 -27.5q63 0 120.5 30.5t95.5 81.5l48 -68q-112 -127 -264 -127q-111 0 -187.5 61t-89.5 185q134 31 195 66.5t61 92.5q0 30 -15 49.5t-44 19.5q-30 0 -45.5 -18t-15.5 -46q0 -22 13 -56h-94q-12 32 -12 65
q0 57 41.5 96t112.5 39q70 0 111 -42t41 -108z" />
    <glyph glyph-name="dvD" horiz-adv-x="558" 
d="M628 -245h-117l-123 168h99zM-24 650h607v-80h-118v-169h-185q-63 0 -100.5 -33.5t-37.5 -90.5q0 -60 33 -94t88 -34q54 0 87.5 30.5t37.5 81.5h93v-271h-95v131q-19 -25 -56.5 -39t-78.5 -14q-95 0 -152.5 59t-57.5 147q0 91 61 148.5t171 57.5h95v90h-392v80z" />
    <glyph glyph-name="dvDH" horiz-adv-x="425" 
d="M512 278l45 -72q-46 -61 -119 -100.5t-167 -39.5q-97 0 -156 44.5t-59 116.5q0 57 37 91t99 40q-60 5 -94 34t-34 82q0 67 57 96h-145v80h314v-80h-1q-61 0 -94.5 -25t-33.5 -66t33.5 -61t88.5 -20h48v-81h-56q-57 0 -89 -22.5t-32 -62.5q0 -39 33.5 -62t91.5 -23
q136 0 233 131z" />
    <glyph glyph-name="dvN" horiz-adv-x="280" 
d="M-24 570v80h329v-80h-329zM119 404h275v-79h-238q-18 0 -25.5 -9.5t-7.5 -31.5q0 -31 12 -72h-79q-30 51 -30 112q0 37 23 58.5t70 21.5z" />
    <glyph glyph-name="dvP" horiz-adv-x="342" 
d="M409 358l53 -51q-29 -57 -84.5 -95t-128.5 -38q-183 0 -183 201v195h-90v80h390v-80h-203v-198q0 -63 24 -91t73 -28t89 29t60 76z" />
    <glyph glyph-name="dvPH" horiz-adv-x="625" 
d="M163 570v-198q0 -63 24 -90t73 -27t82.5 33t33.5 92v190h-213zM473 570v-127q46 46 121 46q119 0 173 -105l-74 -54q-33 80 -111 80q-47 0 -78 -29t-31 -75v-306h-97v229q-47 -52 -128 -52q-90 0 -136 46t-46 149v198h-90v80h674v-80h-177z" />
    <glyph glyph-name="dvB" horiz-adv-x="384" 
d="M408 650v-80h-432v80h432zM372 180l-203 189q-24 -34 -24 -82q0 -58 38 -94t96 -36q50 0 93 23zM463 272l54 -50q-87 -143 -243 -143q-94 0 -159.5 58.5t-65.5 151.5q0 92 62.5 151.5t160.5 59.5q40 0 82 -10v-84q-39 12 -75 12q-38 0 -68 -14l205 -190q19 18 47 58z" />
    <glyph glyph-name="dvBH" horiz-adv-x="335" 
d="M431 356v-79h-232v-134h-84l-28 62q-27 57 -27 89q0 22 12 38t31 20v162q0 60 -46 60q-31 0 -55 -14v78q31 17 74 17q123 0 123 -127v-172h232z" />
    <glyph glyph-name="dvM" horiz-adv-x="352" 
d="M466 356v-85h-267v-130h-83l-28 63q-28 63 -28 90q0 22 12 37.5t32 20.5v218h-128v80h401v-80h-178v-214h267z" />
    <glyph glyph-name="dvY" horiz-adv-x="384" 
d="M409 570h-134q23 -37 23 -90q0 -118 -143 -166q14 -51 53 -81t96 -30q52 0 94.5 28t62.5 75l56 -54q-24 -54 -82 -93.5t-141 -39.5q-100 0 -167.5 64.5t-84.5 185.5q79 12 119.5 43t40.5 72q0 52 -30 86h-196v80h433v-80z" />
    <glyph glyph-name="dvR" horiz-adv-x="388" 
d="M356 -235h-117l-123 168h99zM32 272v78h70q113 0 113 91v129h-239v80h436v-80h-101v-137q0 -70 -41 -111.5t-112 -46.5q-2 -1 -12 -1l211 -274h-117z" />
    <glyph glyph-name="dvL" horiz-adv-x="489" 
d="M344 83v-79q-17 -4 -43 -4q-115 0 -183.5 74t-68.5 190q0 93 48 150.5t129 57.5q56 0 92 -25t45 -67q25 97 143 97q84 0 135 -61l-51 -58q-27 41 -79 41q-100 0 -100 -119v-70h-97v72q0 110 -78 110q-40 0 -65.5 -33t-25.5 -97q0 -81 42 -131t126 -50q20 0 31 2zM-24 570
v80h537v-80h-537z" />
    <glyph glyph-name="dvV" horiz-adv-x="346" 
d="M314 475v-85q-23 9 -59 9q-49 0 -81.5 -32t-32.5 -83q0 -52 36 -84t92 -32q95 0 162 99l47 -59q-33 -52 -88.5 -85.5t-130.5 -33.5q-91 0 -153.5 52t-62.5 144q0 85 57 141t148 56q36 0 66 -7zM370 570h-394v80h394v-80z" />
    <glyph glyph-name="dvSH" horiz-adv-x="448" 
d="M163 251h-17l231 -251h-126l-221 247v84h102q82 0 127 37t45 104q0 99 -79 99q-32 0 -48 -20.5t-16 -50.5q0 -29 15 -59h-93q-15 33 -15 67q0 60 42.5 102.5t113.5 42.5q80 0 128 -52t48 -129q0 -105 -71 -163t-166 -58z" />
    <glyph glyph-name="dvSS" horiz-adv-x="358" 
d="M165 504v-132q0 -63 31.5 -94t85.5 -31q57 0 104 40zM436 346l44 -55q-77 -122 -208 -122q-93 0 -147 50.5t-54 152.5v198h-95v80h407v-80h-202l243 -242z" />
    <glyph glyph-name="dvS" horiz-adv-x="403" 
d="M511 259h-208q-96 0 -157 9l185 -268h-117l-188 278v73h67q54 0 75 22t21 67v130h-213v80h451v-80h-142v-134q0 -60 -24 -97h250v-80z" />
    <glyph glyph-name="dvH" horiz-adv-x="536" 
d="M247 -101h99l141 -168h-117zM-24 650h585v-80h-108v-157h-245q-51 0 -51 -40q0 -44 41 -67q42 12 94 12q84 0 132 -40.5t48 -97.5q0 -34 -10 -57h-95q13 21 13 51q0 28 -23 46.5t-67 18.5q-62 0 -96 -26.5t-34 -64.5q0 -46 39.5 -74.5t123.5 -28.5q58 0 129 18v-81
q-73 -16 -135 -16q-122 0 -188 55t-66 128q0 75 65 123q-69 41 -69 113q0 51 36.5 78.5t95.5 27.5h166v79h-381v80z" />
    <glyph glyph-name="dvLL" horiz-adv-x="799" 
d="M555 90q-101 0 -168 69q-50 -69 -145 -69q-89 0 -145 52t-56 139q0 86 56 139.5t142 53.5q98 0 165 -65q52 64 149 64q91 0 148 -52.5t57 -136.5q0 -87 -58 -140.5t-145 -53.5zM552 395q-18 0 -32.5 -4.5t-26 -16.5t-19 -20t-15 -29t-10.5 -29t-10.5 -34t-8.5 -31
q53 -62 123 -62q49 0 78 31.5t29 83.5q0 50 -29 80.5t-79 30.5zM243 169q24 0 42 10t30.5 31t19 37.5t15.5 47.5t13 43q-54 58 -120 58q-48 0 -76 -32.5t-28 -83.5q0 -50 28 -80.5t76 -30.5zM-24 570v80h848v-80h-848z" />
    <glyph glyph-name="dvK_SS" horiz-adv-x="541" 
d="M273 578q-35 0 -58 -22.5t-23 -55.5q0 -76 88 -95q74 30 74 97q0 30 -23.5 53t-57.5 23zM657 321h-315q-44 0 -83 9q-53 -19 -85.5 -49.5t-32.5 -71.5q0 -40 27 -63.5t70 -23.5q48 0 83.5 30t46.5 82h91v-234h-95v105q-15 -27 -54.5 -45t-84.5 -18q-83 0 -133 44.5
t-50 117.5q0 111 126 164q-69 49 -69 134q0 63 48 109t123 46q79 0 127.5 -42t48.5 -106q0 -71 -54 -111h265v-77z" />
    <glyph glyph-name="dvJ_NY" horiz-adv-x="522" 
d="M546 650v-80h-576v80h576zM704 397h-451q-81 0 -81 -48q0 -25 23.5 -34t90.5 -10q183 -3 183 -141q0 -69 -51.5 -110t-125.5 -41q-82 0 -138 45v-107h-95v231h88q16 -40 54 -67t82 -27q40 0 64.5 20t24.5 56q0 37 -29 50.5t-88 13.5q-182 0 -182 119q0 64 49.5 97
t126.5 33h455v-80z" />
    <glyph glyph-name="dvKx" horiz-adv-x="544" 
d="M161 17q25 0 42.5 -17.5t17.5 -42.5t-17.5 -42t-42.5 -17t-42 17t-17 42t17 42.5t42 17.5zM440 570v-133q45 45 113 45q85 0 137 -52l-68 -69q-26 43 -83 43q-41 0 -70 -29.5t-29 -73.5v-301h-97v137q-47 -45 -114 -45q-84 0 -136 51.5t-52 133.5q0 89 58.5 142t146.5 53
q16 0 23 -2v-80q-10 2 -19 2q-49 0 -80.5 -31t-31.5 -83q0 -47 29 -77.5t76 -30.5q41 0 70.5 29.5t29.5 73.5v297h-367v80h575v-80h-111z" />
    <glyph glyph-name="dvKHx" horiz-adv-x="595" 
d="M91 43q25 0 42.5 -17.5t17.5 -42.5t-17.5 -42t-42.5 -17t-42 17t-17 42t17 42.5t42 17.5zM537 291v-71q-27 -10 -52 -10q-58 0 -98 37t-40 97q0 64 47 107.5t119 43.5q87 0 141 -52t54 -143q0 -112 -84.5 -188.5t-217.5 -76.5q-127 0 -217 74t-130 193v78h67
q45 0 58.5 19t13.5 70v101h-222v80h644v-80h-326v-118q0 -67 -23.5 -103.5t-80.5 -42.5q-12 -3 -19 -3q22 -79 88 -130.5t155 -51.5q93 0 149.5 48.5t56.5 130.5q0 54 -26.5 87t-77.5 33q-36 0 -57 -21.5t-21 -52.5q0 -29 17.5 -46t45.5 -17q20 0 36 8z" />
    <glyph glyph-name="dvGx" horiz-adv-x="320" 
d="M139 87q25 0 42.5 -17.5t17.5 -42.5t-17.5 -42t-42.5 -17t-42 17t-17 42t17 42.5t42 17.5zM345 650v-80h-106v-228q0 -66 -35 -100.5t-96 -34.5q-42 0 -78 13v82q28 -14 57 -14q56 0 56 61v221h-167v80h369z" />
    <glyph glyph-name="dvJx" horiz-adv-x="429" 
d="M446 650v-80h-470v80h470zM160 -25q25 0 42.5 -17.5t17.5 -42.5t-17.5 -42t-42.5 -17q-26 0 -42.5 17t-16.5 42t17 42.5t42 17.5zM554 455v-81h-270q69 -41 69 -134q0 -81 -55 -130t-145 -49q-68 0 -123 22v86q50 -26 109 -26q55 0 87.5 28t32.5 79q0 60 -43.5 92
t-121.5 32v81h460z" />
    <glyph glyph-name="dvPHx" horiz-adv-x="613" 
d="M142 78q25 0 42.5 -17.5t17.5 -42.5t-17.5 -42t-42.5 -17q-26 0 -42.5 16.5t-16.5 42.5q0 25 17 42.5t42 17.5zM163 570v-198q0 -63 24 -90t73 -27t82.5 33t33.5 92v190h-213zM473 570v-127q46 46 121 46q119 0 173 -105l-74 -54q-33 80 -111 80q-47 0 -78 -29t-31 -75
v-306h-97v229q-47 -52 -128 -52q-90 0 -136 46t-46 149v198h-90v80h674v-80h-177z" />
    <glyph glyph-name="itfLogo" horiz-adv-x="1648" 
d="M147 0v634h196v-634h-196zM383 449v185h196v-185h-196zM619 0v634h196v-634h-196zM855 449v185h196v-185h-196zM1091 0v634h196v-634h-196zM1327 449v185h196v-185h-196zM1327 224v185h196v-185h-196z" />
    <glyph glyph-name="dvReph" horiz-adv-x="0" 
d="M-56 807q-33 0 -53.5 -20t-20.5 -54q0 -52 46 -94h-101q-15 12 -29 40.5t-14 66.5q0 65 43.5 106t112.5 41q51 0 86 -17v-86q-36 17 -70 17z" />
    <glyph glyph-name="dvEyelash" horiz-adv-x="194" 
d="M9 382q51 -34 123 -34q75 0 153 45l23 -80q-80 -43 -174 -43q-73 0 -125 27v85zM218 570h-242v80h242v-80z" />
    <glyph glyph-name="dvRashtrasign" horiz-adv-x="0" 
d="M-203 0h134l144 -175h-117l-94 124l-95 -124h-116z" />
    <glyph glyph-name="dvK_RA" horiz-adv-x="792" 
d="M816 570h-366v-133q45 45 113 45q84 0 136 -51t52 -134q0 -89 -58.5 -142t-146.5 -53q-11 0 -23 2v80q5 -1 19 -1q50 0 81 30.5t31 82.5q0 47 -28.5 77.5t-76.5 30.5q-41 0 -70 -29.5t-29 -73.5v-301h-98v138l-166 -183h-116l134 142q-69 10 -111 58.5t-42 121.5
q0 89 58.5 142t146.5 53q16 0 23 -2v-80q-12 2 -19 2q-49 0 -80.5 -31t-31.5 -83q0 -47 28.5 -77.5t76.5 -30.5q41 0 70 29.5t29 73.5v297h-376v80h840v-80z" />
    <glyph glyph-name="dvKH_RA" horiz-adv-x="795" 
d="M611 462v108h-324v-115q0 -71 -24.5 -106t-85.5 -41l-12 -1q22 -78 86.5 -128t153.5 -50q91 0 151.5 46.5t60.5 126.5q0 54 -28 86t-78 32q-36 0 -58 -20.5t-22 -50.5q0 -28 17 -45t45 -17q20 0 37 8v-70q-27 -11 -53 -11q-58 0 -98 37t-40 97q0 63 47 105t116 42
q63 0 109 -33zM819 650v-80h-111v-570h-97v132q-16 -16 -35.5 -33t-52 -43t-54 -43t-75.5 -59l-81 -63h-144l199 157q-115 8 -194.5 75.5t-120.5 183.5v78h67q45 0 58 18t13 68v99h-215v80h843z" />
    <glyph glyph-name="dvG_RA" horiz-adv-x="587" 
d="M-24 650h635v-80h-111v-570h-96v175l-230 -195h-133l363 314v276h-156v-228q0 -66 -34.5 -100.5t-96.5 -34.5q-41 0 -78 13v82q28 -14 58 -14q55 0 55 61v221h-176v80z" />
    <glyph glyph-name="dvGH_RA" horiz-adv-x="646" 
d="M464 333v237h-245q-48 -29 -48 -80q0 -74 115 -74h46v-83h-56q-53 0 -83.5 -22.5t-30.5 -62.5t33 -60.5t80 -20.5q80 0 134.5 47.5t54.5 118.5zM671 650v-80h-112v-570h-95v170l-243 -215h-130l154 136q-75 1 -127.5 41t-52.5 111q0 54 34.5 88t94.5 43q-51 3 -85.5 31.5
t-34.5 78.5q0 51 38 86h-136v80h695z" />
    <glyph glyph-name="dvNG_RA" horiz-adv-x="594" 
d="M523 412q27 0 45 -18t18 -44t-18 -44t-45 -18q-26 0 -44 18t-18 44t18 44t44 18zM-24 650h642v-80h-207v-152h-184q-75 0 -75 -56q0 -31 29.5 -44t100.5 -15q186 -5 186 -143q-1 -52 -33 -91.5t-90 -57.5l119 -153h-117l-90 128l-90 -128h-117l115 150q-58 11 -108 37v93
q92 -58 198 -58q54 0 84.5 20.5t30.5 56.5q0 35 -28 49t-95 16q-191 7 -191 138q0 68 48 103t121 35h90v72h-339v80z" />
    <glyph glyph-name="dvC_RA" horiz-adv-x="644" 
d="M669 650v-80h-111v-570h-97v174l-249 -219h-131l165 146q-70 8 -112.5 50.5t-42.5 107.5q0 82 72 120h-135v81h347v-81q-100 0 -145 -31t-45 -80q0 -45 30.5 -69t80.5 -24q72 0 118.5 43.5t46.5 97.5v254h-485v80h693z" />
    <glyph glyph-name="dvCH_RA" horiz-adv-x="644" 
d="M429 489v81h-197q-56 -36 -56 -96q0 -38 26.5 -61.5t66.5 -23.5h32v-82h-38q-50 0 -76 -21t-26 -59q0 -42 40 -67t101 -25q87 0 141 46t54 127q0 48 -26.5 75.5t-75.5 27.5q-25 0 -45 -6v78q20 7 60 7q13 0 19 -1zM668 570h-149v-107q76 -47 76 -150q0 -89 -51.5 -153.5
t-138.5 -90.5l121 -156h-117l-89 128l-91 -128h-117l115 149q-74 15 -118.5 57t-44.5 105q0 54 33 88t89 39q-44 5 -75 38.5t-31 84.5q0 59 41 96h-145v80h692v-80z" />
    <glyph glyph-name="dvJ_RA" horiz-adv-x="657" 
d="M-24 650h706v-80h-111v-570h-97v100l-234 -200h-129l363 310v164h-182q66 -38 66 -118q0 -71 -55.5 -118t-144.5 -47q-69 0 -122 22v86q50 -26 108 -26q56 0 88 24t32 70q0 107 -165 107v81h375v115h-498v80z" />
    <glyph glyph-name="dvJH_RA" horiz-adv-x="854" 
d="M274 323h396v247h-239v-145l-5 1v-1h-168q-84 0 -84 -53q0 -26 23.5 -36.5t76.5 -12.5zM879 650v-80h-112v-570h-97v93l-223 -217h-130l353 324v46h-221q21 -33 21 -78q0 -69 -48 -112.5t-125 -43.5q-80 0 -137 43v-104h-95v231h88v-3q18 -40 55.5 -65.5t80.5 -25.5
q39 0 62 20.5t23 56.5q0 70 -109 76q-89 3 -139 31t-50 96q0 67 48.5 102t127.5 35h83v65h-359v80h903z" />
    <glyph glyph-name="dvNY_RA" horiz-adv-x="694" 
d="M718 650v-80h-111v-570h-97v106l-230 -206h-132l362 314v52h-115q-11 -74 -70 -122.5t-146 -48.5q-92 0 -153 36v90q69 -42 146 -42q62 0 95 32t33 86q0 50 -30.5 79.5t-83.5 29.5q-46 0 -82 -16v82q33 14 86 14q82 0 134.5 -36.5t67.5 -102.5h118v223h-534v80h742z" />
    <glyph glyph-name="dvTT_RA" horiz-adv-x="504" 
d="M420 570v-191q-32 6 -77 6q-87 0 -138.5 -38t-51.5 -108q0 -67 46.5 -103t123.5 -36t143 40v-88q-34 -19 -88 -29l114 -147h-116l-89 129l-92 -129h-116l123 160q-70 24 -109.5 77t-39.5 129q0 96 69 158t182 63h20v107h-348v80h553v-80h-109z" />
    <glyph glyph-name="dvTTH_RA" horiz-adv-x="567" 
d="M420 262q0 58 -36.5 88.5t-99.5 31.5q-57 0 -97 -30t-40 -89q0 -56 38 -90t100 -34q61 0 98 34t37 89zM592 570h-239v-117q75 -17 120.5 -66t45.5 -125q0 -68 -38 -117t-105 -71l120 -155h-117l-90 128l-90 -128h-117l117 152q-69 20 -109.5 70.5t-40.5 121.5
q0 88 60.5 138.5t147.5 57.5v111h-281v80h616v-80z" />
    <glyph glyph-name="dvDD_RA" horiz-adv-x="527" 
d="M411 570v-151v-1h-184q-75 0 -75 -56q0 -60 99 -62q3 0 32 1.5t31 1.5q77 -3 115.5 -42t38.5 -101q-1 -52 -33 -91.5t-90 -56.5l119 -154h-117l-90 128l-90 -128h-117l115 150q-58 11 -108 37v93q92 -58 198 -58q54 0 84.5 20.5t30.5 56.5q0 63 -82 65q-2 0 -31 -2
t-31 -2q-71 1 -120.5 36.5t-49.5 105.5q0 68 48 103t121 35h90v72h-339v80h575v-80h-140z" />
    <glyph glyph-name="dvDDH_RA" horiz-adv-x="560" 
d="M441 570v-185q-57 10 -102 10q-87 0 -140 -40t-53 -110q0 -65 43.5 -107t113.5 -42q49 0 81 21t32 59q0 24 -18.5 40t-49.5 16q-49 0 -82 -24v75q41 22 96 22q69 0 108 -35t39 -93q0 -52 -33 -92t-92 -57l118 -152h-117l-90 128l-91 -128h-116l119 155q-73 23 -116.5 80
t-43.5 135q0 102 72.5 164t190.5 64q11 0 35 -2v98h-369v80h608v-80h-143z" />
    <glyph glyph-name="dvNN_RA" horiz-adv-x="756" 
d="M328 359v211h-164v-211q0 -96 81 -96q83 0 83 96zM781 650v-80h-112v-570h-96v175l-230 -198h-141l371 316v277h-149v-206q0 -89 -47 -136t-134 -47q-175 0 -175 183v206h-92v80h805z" />
    <glyph glyph-name="dvT_RA" horiz-adv-x="586" 
d="M610 650v-80h-111v-570h-97v215l-275 -171l-51 73l294 181q-57 90 -160 91q-78 0 -153 -43v89q62 38 156 38q118 0 189 -85v182h-426v80h634z" />
    <glyph glyph-name="dvTH_RA" horiz-adv-x="652" 
d="M378 507q0 -152 -237 -213q28 -104 151 -104q71 0 124 46t53 135v279h208v-80h-112v-570h-96v185l-252 -230h-133l173 157q-92 9 -155.5 69.5t-73.5 167.5q135 31 196 66.5t61 92.5q0 30 -15 49.5t-45 19.5t-45 -18t-15 -46q0 -17 12 -56h-93q-12 32 -12 65
q0 56 41.5 95.5t111.5 39.5t111.5 -42t41.5 -108z" />
    <glyph glyph-name="dvD_RA" horiz-adv-x="563" 
d="M-24 650h612v-80h-118v-169h-185q-63 0 -100.5 -33.5t-37.5 -90.5q0 -60 33 -94t88 -34q54 0 87.5 30.5t37.5 81.5h93v-271h-95v131l-184 -177h-125l135 130q-79 12 -125 67t-46 133q0 91 61 148.5t171 57.5h95v90h-397v80z" />
    <glyph glyph-name="dvDH_RA" horiz-adv-x="642" 
d="M667 650v-80h-112v-570h-95v160l-237 -205h-134l151 129q-81 7 -129.5 47t-48.5 104q0 54 38 88.5t98 39.5q-129 10 -129 111q0 66 57 96h-150v80h319v-80h-1q-61 0 -94.5 -25t-33.5 -66q0 -76 123 -76h47v-81h-56q-53 0 -86.5 -22t-33.5 -60q0 -37 31.5 -57.5
t88.5 -20.5q81 0 130.5 47.5t49.5 114.5v326h207z" />
    <glyph glyph-name="dvN_RA" horiz-adv-x="520" 
d="M-24 650h568v-80h-111v-570h-97v252l-177 -192h-119l296 314h-188q-18 0 -25 -9t-7 -31q0 -36 11 -72h-79q-30 53 -30 111q0 38 23.5 59.5t70.5 21.5h224v116h-360v80z" />
    <glyph glyph-name="dvP_RA" horiz-adv-x="565" 
d="M381 396v174h-213v-182q0 -63 24 -91.5t73 -28.5t82.5 34t33.5 94zM590 650v-80h-112v-570h-97v246l-225 -246h-124l178 196q-139 21 -139 195v179h-95v80h614z" />
    <glyph glyph-name="dvPH_RA" horiz-adv-x="818" 
d="M381 396v174h-213v-182q0 -63 24 -91.5t73 -28.5t82.5 34t33.5 94zM842 570h-364v-126q46 46 119 46q83 0 132.5 -52t49.5 -132q0 -92 -58.5 -144t-145.5 -52q-10 0 -24 2v80q6 -1 19 -1q51 0 82 29.5t31 84.5q0 46 -28 76.5t-73 30.5q-44 0 -74 -29.5t-30 -75.5v-307
h-97v246l-225 -246h-124l178 196q-139 21 -139 195v179h-95v80h866v-80z" />
    <glyph glyph-name="dvB_RA" horiz-adv-x="626" 
d="M375 183l-200 186q-24 -33 -24 -82q0 -58 36.5 -94t93.5 -36q54 0 94 26zM651 650v-80h-112v-570h-96v153l-235 -218h-133l163 151q-77 9 -130 64.5t-53 138.5q0 92 62 151.5t161 59.5q40 0 82 -10v-84q-39 12 -75 12q-38 0 -68 -14l198 -184q27 37 27 82l1 -2v270h-467
v80h675z" />
    <glyph glyph-name="dvBH_RA" horiz-adv-x="577" 
d="M394 650h207v-80h-111v-570h-95v146l-211 -186h-134l345 303v60h-184v-134h-85l-28 62q-27 61 -27 89q0 22 12 37t32 20v117q0 60 -46 60q-30 0 -56 -14v78q32 17 75 17q123 0 123 -127v-126h184z" />
    <glyph glyph-name="dvM_RA" horiz-adv-x="587" 
d="M210 402h195v168h-195v-168zM-24 650h635v-80h-111v-570h-95v153l-214 -193h-137l351 313v44h-195v-130h-83l-28 63q-28 63 -28 90q0 47 44 57v173h-139v80z" />
    <glyph glyph-name="dvY_RA" horiz-adv-x="634" 
d="M451 188l-252 -233h-138l191 177q-80 12 -135.5 73.5t-68.5 165.5q80 13 120.5 42.5t40.5 70.5q0 52 -30 86h-203v80h683v-80h-111v-570h-97v188zM306 208q66 0 105.5 36.5t39.5 102.5v223h-170q24 -36 24 -90q0 -118 -144 -163q14 -50 53 -79.5t92 -29.5z" />
    <glyph glyph-name="dvL_RA" horiz-adv-x="742" 
d="M766 650v-80h-111v-570h-97v113l-162 -177h-112l274 285v171q-23 7 -44 7q-103 0 -103 -119v-70h-97v72q0 110 -78 110q-40 0 -65.5 -33t-25.5 -97q0 -68 31.5 -120.5t91.5 -58.5q7 -2 27 -2v-79q-23 -2 -36 -1q-101 6 -155.5 79t-54.5 184q0 93 48 150.5t129 57.5
q56 0 92 -25t45 -67q25 97 144 97q27 0 51 -8v101h-582v80h790z" />
    <glyph glyph-name="dvV_RA" horiz-adv-x="592" 
d="M616 650v-80h-111v-570h-97v154l-222 -219h-133l165 159q-71 10 -118 60.5t-47 130.5q0 85 57 141t148 56q34 0 66 -7v-85q-27 9 -59 9q-49 0 -81.5 -31t-32.5 -82q0 -54 33 -86t85 -32q61 0 100 41t39 98v263h-432v80h640z" />
    <glyph glyph-name="dvSH_RA" horiz-adv-x="716" 
d="M273 578q-36 0 -57.5 -22.5t-21.5 -55.5q0 -63 82 -112q74 46 74 109q0 32 -21.5 56.5t-55.5 24.5zM532 650h209v-80h-112v-570h-97v206l-253 -213l-76 55l227 186q-83 25 -144 52l-180 -129l-77 58l172 118q-103 72 -103 169q0 63 47 109t124 46q81 0 129 -45t48 -113
q0 -86 -88 -150q68 -27 174 -54v355z" />
    <glyph glyph-name="dvSS_RA" horiz-adv-x="589" 
d="M406 382v188h-224l221 -218q3 14 3 30zM165 505v-123q0 -63 31.5 -94t85.5 -31q58 0 95 43zM613 650v-80h-111v-570h-96v232l-226 -232h-116l177 181q-80 7 -125 57t-45 144v188h-95v80h637z" />
    <glyph glyph-name="dvS_RA" horiz-adv-x="764" 
d="M302 436v-11q56 27 116 27q99 0 163 -64v182h-279v-134zM788 650v-80h-111v-570h-96v274l-147 -156h-121l218 215q-54 38 -112 38q-75 0 -160 -54q-35 -32 -94 -38h-10l175 -279h-112l-176 278v73h68q54 0 75 22t21 67v130h-230v80h812z" />
    <glyph glyph-name="dvH_RA" horiz-adv-x="619" 
d="M513 413h-292q-50 0 -50 -40q0 -44 40 -67q51 18 118 18q111 0 178 -55.5t67 -153.5q0 -42 -11 -75h-89q11 27 11 70q0 48 -21 79l-122 -153h-111l168 199q-30 10 -75 10q-78 0 -122 -41.5t-44 -106.5q0 -71 55.5 -118.5t158.5 -47.5q56 0 93 12v-77q-45 -10 -100 -10
q-130 0 -216.5 66.5t-86.5 179.5q0 108 81 168q-70 43 -70 115q0 51 36.5 78.5t94.5 27.5h214v79h-442v80h667v-80h-130v-157z" />
    <glyph glyph-name="dvLL_RA" horiz-adv-x="799" 
d="M660 284q0 50 -29 80.5t-79 30.5q-18 0 -32.5 -4.5t-26 -16.5t-19 -20t-15 -29t-10.5 -29t-10.5 -34t-8.5 -31q53 -62 123 -62q49 0 78 31.5t29 83.5zM243 169q24 0 42 10t30.5 31t19 37.5t15.5 47.5t13 43q-54 58 -120 58q-48 0 -76 -32.5t-28 -83.5q0 -50 28 -80.5
t76 -30.5zM824 570h-217v-102q70 -15 110.5 -64t40.5 -120q0 -65 -33.5 -112t-89.5 -68l128 -155h-117l-95 124l-94 -124h-117l128 156q-45 18 -81 54q-50 -69 -145 -69q-89 0 -145 52t-56 139q0 86 56 139.5t142 53.5q98 0 165 -65q43 52 111 61v100h-539v80h848v-80z" />
    <glyph glyph-name="dvKx_RA" horiz-adv-x="792" 
d="M293 -34q25 0 42.5 -17.5t17.5 -42.5t-17.5 -42t-42.5 -17t-42 16.5t-17 42.5q0 25 17 42.5t42 17.5zM816 570h-366v-133q45 45 113 45q84 0 136 -51t52 -134q0 -89 -58.5 -142t-146.5 -53q-11 0 -23 2v80q5 -1 19 -1q50 0 81 30.5t31 82.5q0 47 -28.5 77.5t-76.5 30.5
q-41 0 -70 -29.5t-29 -73.5v-301h-98v138l-166 -183h-116l134 142q-69 10 -111 58.5t-42 121.5q0 89 58.5 142t146.5 53q16 0 23 -2v-80q-12 2 -19 2q-49 0 -80.5 -31t-31.5 -83q0 -47 28.5 -77.5t76.5 -30.5q41 0 70 29.5t29 73.5v297h-376v80h840v-80z" />
    <glyph glyph-name="dvKHx_RA" horiz-adv-x="795" 
d="M530 -35q25 0 42.5 -17.5t17.5 -42.5t-17.5 -42t-42.5 -17q-26 0 -42.5 17t-16.5 42t17 42.5t42 17.5zM611 462v108h-324v-115q0 -71 -24.5 -106t-85.5 -41l-12 -1q22 -78 86.5 -128t153.5 -50q91 0 151.5 46.5t60.5 126.5q0 54 -28 86t-78 32q-36 0 -58 -20.5t-22 -50.5
q0 -28 17 -45t45 -17q20 0 37 8v-70q-27 -11 -53 -11q-58 0 -98 37t-40 97q0 63 47 105t116 42q63 0 109 -33zM819 650v-80h-111v-570h-97v132q-16 -16 -35.5 -33t-52 -43t-54 -43t-75.5 -59l-81 -63h-144l199 157q-115 8 -194.5 75.5t-120.5 183.5v78h67q45 0 58 18t13 68
v99h-215v80h843z" />
    <glyph glyph-name="dvGx_RA" horiz-adv-x="587" 
d="M311 -25q25 0 42.5 -17.5t17.5 -42.5t-17.5 -42t-42.5 -17t-42 17t-17 42t17 42.5t42 17.5zM-24 650h635v-80h-111v-570h-96v175l-230 -195h-133l363 314v276h-156v-228q0 -66 -34.5 -100.5t-96.5 -34.5q-41 0 -78 13v82q28 -14 58 -14q55 0 55 61v221h-176v80z" />
    <glyph glyph-name="dvJx_RA" horiz-adv-x="657" 
d="M409 -63q25 0 42.5 -17.5t17.5 -42.5t-17.5 -42t-42.5 -17t-42 17t-17 42t17 42.5t42 17.5zM-24 650h706v-80h-111v-570h-97v100l-234 -200h-129l363 310v164h-182q66 -38 66 -118q0 -71 -55.5 -118t-144.5 -47q-69 0 -122 22v86q50 -26 108 -26q56 0 88 24t32 70
q0 107 -165 107v81h375v115h-498v80z" />
    <glyph glyph-name="dvPHx_RA" horiz-adv-x="818" 
d="M267 -24q25 0 42.5 -17.5t17.5 -42.5t-17.5 -42t-42.5 -17t-42 16.5t-17 42.5q0 25 17 42.5t42 17.5zM381 396v174h-213v-182q0 -63 24 -91.5t73 -28.5t82.5 34t33.5 94zM842 570h-364v-126q46 46 119 46q83 0 132.5 -52t49.5 -132q0 -92 -58.5 -144t-145.5 -52
q-10 0 -24 2v80q6 -1 19 -1q51 0 82 29.5t31 84.5q0 46 -28 76.5t-73 30.5q-44 0 -74 -29.5t-30 -75.5v-307h-97v246l-225 -246h-124l178 196q-139 21 -139 195v179h-95v80h866v-80z" />
    <glyph glyph-name="dvK_R" horiz-adv-x="548" 
d="M450 570v-133q45 45 113 45q85 0 137 -52l-68 -69q-28 43 -83 43q-41 0 -70 -29.5t-29 -73.5v-301h-98v138l-166 -183h-116l134 142q-69 10 -111 58.5t-42 121.5q0 89 58.5 142t146.5 53q16 0 23 -2v-80q-12 2 -19 2q-49 0 -80.5 -31t-31.5 -83q0 -47 28.5 -77.5
t76.5 -30.5q41 0 70 29.5t29 73.5v297h-376v80h596v-80h-122z" />
    <glyph glyph-name="dvKH_R" horiz-adv-x="578" 
d="M530 295v-70q-27 -11 -53 -11q-58 0 -98 37t-40 97q0 63 47 105t116 42q93 0 145.5 -51.5t52.5 -133.5q0 -114 -116 -207l-266 -212h-145l199 157q-119 7 -198.5 74.5t-120.5 184.5v78h67q45 0 58 18t13 68v99h-215v80h626v-80h-315v-115q0 -71 -24.5 -106t-85.5 -41
l-12 -1q22 -78 86.5 -128t153.5 -50q90 0 148.5 46.5t58.5 126.5q0 55 -25.5 86.5t-75.5 31.5q-36 0 -58 -20.5t-22 -50.5q0 -28 17 -45t45 -17q20 0 37 8z" />
    <glyph glyph-name="dvG_R" horiz-adv-x="377" 
d="M39 220v82q28 -14 58 -14q55 0 55 61v221h-176v80h426v-80h-154v-228q0 -66 -34.5 -100.5t-96.5 -34.5q-41 0 -78 13zM457 341l45 -81l-328 -280h-133z" />
    <glyph glyph-name="dvGH_R" horiz-adv-x="401" 
d="M492 326l51 -95l-320 -276h-132l154 136q-75 1 -127.5 41t-52.5 111q0 54 34.5 88t94.5 43q-51 3 -85.5 31.5t-34.5 78.5q0 51 38 86h-136v80h449v-80h-206q-48 -29 -48 -80q0 -74 115 -74h46v-83h-56q-53 0 -83.5 -22.5t-30.5 -62.5t33 -60.5t80 -20.5q73 0 130.5 48.5
t86.5 110.5z" />
    <glyph glyph-name="dvNG_R" horiz-adv-x="594" 
d="M208 -209h99l141 -168h-117zM523 412q27 0 45 -18t18 -44t-18 -44t-45 -18q-26 0 -44 18t-18 44t18 44t44 18zM-24 650h642v-80h-207v-152h-184q-75 0 -75 -56q0 -31 29.5 -44t100.5 -15q186 -5 186 -143q-1 -52 -33 -91.5t-90 -57.5l119 -153h-117l-90 128l-90 -128
h-117l115 150q-58 11 -108 37v93q92 -58 198 -58q54 0 84.5 20.5t30.5 56.5q0 35 -28 49t-95 16q-191 7 -191 138q0 68 48 103t121 35h90v72h-339v80z" />
    <glyph glyph-name="dvC_R" horiz-adv-x="417" 
d="M442 650v-80h-466v80h466zM493 313l47 -75l-322 -283h-132l164 146q-69 5 -114 48t-45 110q0 82 72 120h-135v81h347v-81q-100 0 -145 -31t-45 -80q0 -45 30.5 -69t80.5 -24q58 0 110 39t87 99z" />
    <glyph glyph-name="dvCH_R" horiz-adv-x="644" 
d="M668 570h-436q-56 -36 -56 -96q0 -38 26.5 -61.5t66.5 -23.5h32v-82h-38q-50 0 -76 -21t-26 -59q0 -42 40 -67t101 -25q87 0 141 46t54 127q0 48 -26.5 75.5t-75.5 27.5q-25 0 -45 -6v78q20 7 60 7q87 0 136 -48t49 -129q0 -89 -51.5 -153.5t-138.5 -90.5l121 -156h-117
l-89 128l-91 -128h-117l115 149q-74 15 -118.5 57t-44.5 105q0 54 33 88t89 39q-44 5 -75 38.5t-31 84.5q0 59 41 96h-145v80h692v-80z" />
    <glyph glyph-name="dvJ_R" horiz-adv-x="477" 
d="M501 650v-80h-525v80h525zM111 -100l426 365l53 -64l-350 -301h-129zM99 455h538v-81h-345q66 -38 66 -118q0 -71 -55.5 -118t-144.5 -47q-69 0 -122 22v86q50 -26 108 -26q56 0 88 24t32 70q0 107 -165 107v81z" />
    <glyph glyph-name="dvJH_R" horiz-adv-x="613" 
d="M718 246h-269q21 -33 21 -78q0 -69 -48 -112.5t-125 -43.5q-80 0 -137 43v-104h-95v231h88v-3q18 -40 55.5 -65.5t80.5 -25.5q39 0 62 20.5t23 56.5q0 70 -109 76q-89 3 -139 31t-50 96q0 67 48.5 102t127.5 35h83v65h-359v80h662v-80h-207v-145l-5 1v-1h-168
q-84 0 -84 -53q0 -26 23.5 -36.5t76.5 -12.5h444v-77zM712 239l54 -69l-319 -294h-130z" />
    <glyph glyph-name="dvNY_R" horiz-adv-x="509" 
d="M534 650v-80h-558v80h558zM575 266h-180q-11 -74 -70 -122.5t-146 -48.5q-92 0 -153 36v90q69 -42 146 -42q62 0 95 32t33 86q0 50 -30.5 79.5t-83.5 29.5q-46 0 -82 -16v82q33 14 86 14q82 0 134.5 -36.5t67.5 -102.5h183v-81zM574 265l47 -65l-341 -300h-132z" />
    <glyph glyph-name="dvTT_R" horiz-adv-x="504" 
d="M240 -191h99l141 -168h-117zM420 570v-191q-32 6 -77 6q-87 0 -138.5 -38t-51.5 -108q0 -67 46.5 -103t123.5 -36t143 40v-88q-34 -19 -88 -29l114 -147h-116l-89 129l-92 -129h-116l123 160q-70 24 -109.5 77t-39.5 129q0 96 69 158t182 63h20v107h-348v80h553v-80h-109
z" />
    <glyph glyph-name="dvTTH_R" horiz-adv-x="567" 
d="M245 -148h99l141 -168h-117zM420 262q0 58 -36.5 88.5t-99.5 31.5q-57 0 -97 -30t-40 -89q0 -56 38 -90t100 -34q61 0 98 34t37 89zM592 570h-239v-117q75 -17 120.5 -66t45.5 -125q0 -68 -38 -117t-105 -71l120 -155h-117l-90 128l-90 -128h-117l117 152
q-69 20 -109.5 70.5t-40.5 121.5q0 88 60.5 138.5t147.5 57.5v111h-281v80h616v-80z" />
    <glyph glyph-name="dvDD_R" horiz-adv-x="527" 
d="M208 -209h99l141 -168h-117zM411 570v-151v-1h-184q-75 0 -75 -56q0 -60 99 -62q3 0 32 1.5t31 1.5q77 -3 115.5 -42t38.5 -101q-1 -52 -33 -91.5t-90 -56.5l119 -154h-117l-90 128l-90 -128h-117l115 150q-58 11 -108 37v93q92 -58 198 -58q54 0 84.5 20.5t30.5 56.5
q0 63 -82 65q-2 0 -31 -2t-31 -2q-71 1 -120.5 36.5t-49.5 105.5q0 68 48 103t121 35h90v72h-339v80h575v-80h-140z" />
    <glyph glyph-name="dvDDH_R" horiz-adv-x="560" 
d="M249 -191h99l141 -168h-117zM441 570v-185q-57 10 -102 10q-87 0 -140 -40t-53 -110q0 -65 43.5 -107t113.5 -42q49 0 81 21t32 59q0 24 -18.5 40t-49.5 16q-49 0 -82 -24v75q41 22 96 22q69 0 108 -35t39 -93q0 -52 -33 -92t-92 -57l118 -152h-117l-90 128l-91 -128
h-116l119 155q-73 23 -116.5 80t-43.5 135q0 102 72.5 164t190.5 64q11 0 35 -2v98h-369v80h608v-80h-143z" />
    <glyph glyph-name="dvNN_R" horiz-adv-x="497" 
d="M154 570v-211q0 -96 81 -96q83 0 83 96v211h-164zM414 570v-206q0 -89 -47 -136t-134 -47q-175 0 -175 183v206h-92v80h556v-80h-108zM597 322l37 -87l-301 -258h-141z" />
    <glyph glyph-name="dvT_R" horiz-adv-x="375" 
d="M400 650v-80h-424v80h424zM461 259l3 -6l-337 -209l-51 73l291 178q-55 93 -157 94q-78 0 -153 -43v89q62 38 156 38t161 -56.5t87 -157.5z" />
    <glyph glyph-name="dvTH_R" horiz-adv-x="444" 
d="M378 507q0 -152 -237 -213q28 -104 151 -104q132 0 218 141l62 -67l-349 -309h-130l174 157q-94 5 -161.5 66.5t-77.5 170.5q135 31 196 66.5t61 92.5q0 30 -15 49.5t-45 19.5t-45 -18t-15 -46q0 -17 12 -56h-93q-12 32 -12 65q0 56 41.5 95.5t111.5 39.5t111.5 -42
t41.5 -108z" />
    <glyph glyph-name="dvD_R" horiz-adv-x="563" 
d="M514 -291h-117l-123 168h99zM-24 650h612v-80h-118v-169h-185q-63 0 -100.5 -33.5t-37.5 -90.5q0 -60 33 -94t88 -34q54 0 87.5 30.5t37.5 81.5h93v-271h-95v131l-184 -177h-125l135 130q-79 12 -125 67t-46 133q0 91 61 148.5t171 57.5h95v90h-397v80z" />
    <glyph glyph-name="dvDH_R" horiz-adv-x="445" 
d="M511 314l63 -61l-340 -298h-136l155 129q-85 2 -138 43t-53 108q0 54 38 88.5t98 39.5q-129 10 -129 111q0 66 57 96h-150v80h319v-80h-1q-61 0 -94.5 -25t-33.5 -66q0 -76 123 -76h47v-81h-56q-53 0 -86.5 -22t-33.5 -60q0 -37 31.5 -57.5t88.5 -20.5q131 0 231 152z
" />
    <glyph glyph-name="dvN_R" horiz-adv-x="298" 
d="M322 650v-80h-346v80h346zM447 385l15 -21l-303 -304h-119l317 314h-209q-18 0 -25 -9t-7 -31q0 -36 11 -72h-79q-30 53 -30 111q0 38 23.5 59.5t70.5 21.5h335v-69z" />
    <glyph glyph-name="dvP_R" horiz-adv-x="331" 
d="M410 382l47 -57l-301 -325h-124l180 196q-141 17 -141 195v179h-95v80h380v-80h-188v-182q0 -63 24 -91.5t73 -28.5q82 0 145 114z" />
    <glyph glyph-name="dvPH_R" horiz-adv-x="607" 
d="M168 570v-182q0 -63 24 -91.5t73 -28.5t82.5 34t33.5 94v174h-213zM478 570v-126q46 46 121 46q119 0 173 -105l-74 -53q-33 80 -111 80q-47 0 -78 -29t-31 -76v-307h-97v246l-225 -246h-124l178 196q-139 21 -139 195v179h-95v80h655v-80h-153z" />
    <glyph glyph-name="dvB_R" horiz-adv-x="375" 
d="M399 650v-80h-423v80h423zM374 183l-199 186q-24 -33 -24 -82q0 -58 36.5 -94t93.5 -36q53 0 93 26zM455 281l53 -70l-300 -276h-133l165 151q-78 8 -131.5 64t-53.5 139q0 92 62 151.5t161 59.5q40 0 82 -10v-84q-39 12 -75 12q-38 0 -68 -14l198 -184q22 27 40 61z" />
    <glyph glyph-name="dvBH_R" horiz-adv-x="378" 
d="M211 402h309v-79l-323 -363h-130l341 363h-197v-134h-85l-28 62q-27 61 -27 89q0 22 12 37t32 20v117q0 60 -46 60q-30 0 -56 -14v78q32 17 75 17q123 0 123 -127v-126z" />
    <glyph glyph-name="dvM_R" horiz-adv-x="396" 
d="M210 402h317v-85l-314 -357h-132l328 357h-199v-130h-83l-28 63q-28 63 -28 90q0 47 44 57v173h-139v80h445v-80h-211v-168z" />
    <glyph glyph-name="dvY_R" horiz-adv-x="385" 
d="M409 570h-128q24 -36 24 -90q0 -118 -144 -163q14 -50 53 -79.5t92 -29.5q93 0 166 108l46 -65l-319 -296h-138l191 177q-80 12 -135.5 73.5t-68.5 165.5q80 13 120.5 42.5t40.5 70.5q0 52 -30 86h-203v80h433v-80z" />
    <glyph glyph-name="dvL_R" horiz-adv-x="505" 
d="M295 81v-79q-25 -2 -37 -1q-100 6 -154.5 79t-54.5 184q0 93 48 150.5t129 57.5q56 0 92 -25t45 -67q25 97 144 97q36 0 67.5 -13t41.5 -28l-19 -72q-6 11 -31.5 23t-54.5 12q-100 0 -100 -119v-70h-97v72q0 110 -78 110q-40 0 -65.5 -33t-25.5 -97q0 -68 32 -121t93 -59
q7 -1 25 -1zM-24 570v80h547v-80h-547zM577 241l51 -52l-232 -253h-112z" />
    <glyph glyph-name="dvV_R" horiz-adv-x="364" 
d="M324 475v-85q-27 9 -59 9q-49 0 -81.5 -31t-32.5 -82q0 -54 33 -86t85 -32q53 0 95 31.5t83 93.5l52 -65l-305 -293h-132l166 159q-75 6 -125 57.5t-50 133.5q0 85 57 141t148 56q34 0 66 -7zM389 570h-413v80h413v-80z" />
    <glyph glyph-name="dvSH_R" horiz-adv-x="506" 
d="M273 578q-36 0 -57.5 -21.5t-21.5 -54.5q0 -63 80 -115q76 44 76 110q0 32 -21.5 56.5t-55.5 24.5zM591 291v-81l-16 2l-285 -223l-74 54l241 187q-97 19 -174 54l-177 -127l-77 58l169 117q-100 73 -100 169q0 65 46.5 110.5t124.5 45.5q81 0 129 -45t48 -113
q0 -89 -92 -153q102 -38 237 -55z" />
    <glyph glyph-name="dvSS_R" horiz-adv-x="357" 
d="M165 505v-123q0 -63 31.5 -94t85.5 -31q55 0 98 40zM430 256l-3 -4l-1 1l-246 -253h-116l177 181q-80 7 -125 57t-45 144v188h-95v80h405v-80h-199l231 -226q3 6 7 18l46 -69z" />
    <glyph glyph-name="dvS_R" horiz-adv-x="537" 
d="M302 570v-134v-11q56 27 116 27q135 0 217 -125l-48 -54l-3 4l-150 -159h-121l217 214q-51 39 -111 39q-75 0 -160 -54q-35 -32 -94 -38h-10l175 -279h-112l-176 278v73h68q54 0 75 22t21 67v130h-230v80h703v-80h-377z" />
    <glyph glyph-name="dvH_R" horiz-adv-x="619" 
d="M278 -211h99l141 -168h-117zM513 413h-292q-50 0 -50 -40q0 -44 40 -67q51 18 118 18q111 0 178 -55.5t67 -153.5q0 -42 -11 -75h-89q11 27 11 70q0 48 -21 79l-122 -153h-111l168 199q-30 10 -75 10q-78 0 -122 -41.5t-44 -106.5q0 -71 55.5 -118.5t158.5 -47.5
q56 0 93 12v-77q-45 -10 -100 -10q-130 0 -216.5 66.5t-86.5 179.5q0 108 81 168q-70 43 -70 115q0 51 36.5 78.5t94.5 27.5h214v79h-442v80h667v-80h-130v-157z" />
    <glyph glyph-name="dvLL_R" horiz-adv-x="799" 
d="M430 231q53 -62 123 -62q49 0 78 31.5t29 83.5q0 50 -29 80.5t-79 30.5q-18 0 -32.5 -4.5t-26 -16.5t-19 -20t-15 -29t-10.5 -29t-10.5 -34t-8.5 -31zM243 169q24 0 42 10t30.5 31t19 37.5t15.5 47.5t13 43q-54 58 -120 58q-48 0 -76 -32.5t-28 -83.5q0 -50 28 -80.5
t76 -30.5zM340 -51l128 156q-45 18 -81 54q-50 -69 -145 -69q-89 0 -145 52t-56 139q0 86 56 139.5t142 53.5q98 0 165 -65q52 64 149 64q91 0 148 -52.5t57 -136.5q0 -65 -33.5 -112t-89.5 -68l128 -155h-117l-95 124l-94 -124h-117zM-24 650h848v-80h-848v80z" />
    <glyph glyph-name="dvKx_R" horiz-adv-x="548" 
d="M296 -69q25 0 42.5 -17.5t17.5 -42.5t-17.5 -42t-42.5 -17q-26 0 -42.5 17t-16.5 42t17 42.5t42 17.5zM450 570v-133q45 45 113 45q85 0 137 -52l-68 -69q-28 43 -83 43q-41 0 -70 -29.5t-29 -73.5v-301h-98v138l-166 -183h-116l134 142q-69 10 -111 58.5t-42 121.5
q0 89 58.5 142t146.5 53q16 0 23 -2v-80q-12 2 -19 2q-49 0 -80.5 -31t-31.5 -83q0 -47 28.5 -77.5t76.5 -30.5q41 0 70 29.5t29 73.5v297h-376v80h596v-80h-122z" />
    <glyph glyph-name="dvKHx_R" horiz-adv-x="578" 
d="M547 -60q25 0 42.5 -17.5t17.5 -42.5t-17.5 -42t-42.5 -17t-42 16.5t-17 42.5q0 25 17 42.5t42 17.5zM530 295v-70q-27 -11 -53 -11q-58 0 -98 37t-40 97q0 63 47 105t116 42q93 0 145.5 -51.5t52.5 -133.5q0 -114 -116 -207l-266 -212h-145l199 157q-119 7 -198.5 74.5
t-120.5 184.5v78h67q45 0 58 18t13 68v99h-215v80h626v-80h-315v-115q0 -71 -24.5 -106t-85.5 -41l-12 -1q22 -78 86.5 -128t153.5 -50q90 0 148.5 46.5t58.5 126.5q0 55 -25.5 86.5t-75.5 31.5q-36 0 -58 -20.5t-22 -50.5q0 -28 17 -45t45 -17q20 0 37 8z" />
    <glyph glyph-name="dvGx_R" horiz-adv-x="377" 
d="M39 220v82q28 -14 58 -14q55 0 55 61v221h-176v80h426v-80h-154v-228q0 -66 -34.5 -100.5t-96.5 -34.5q-41 0 -78 13zM457 341l45 -81l-328 -280h-133zM399 33q25 0 42.5 -17.5t17.5 -42.5t-17.5 -42t-42.5 -17t-42 17t-17 42t17 42.5t42 17.5z" />
    <glyph glyph-name="dvJx_R" horiz-adv-x="477" 
d="M501 650v-80h-525v80h525zM516 -3q25 0 42.5 -17.5t17.5 -42.5t-17.5 -42t-42.5 -17q-26 0 -42.5 17t-16.5 42t17 42.5t42 17.5zM111 -100l426 365l53 -64l-350 -301h-129zM99 455h538v-81h-345q66 -38 66 -118q0 -71 -55.5 -118t-144.5 -47q-69 0 -122 22v86
q50 -26 108 -26q56 0 88 24t32 70q0 107 -165 107v81z" />
    <glyph glyph-name="dvPHx_R" horiz-adv-x="607" 
d="M263 -54q25 0 42.5 -17.5t17.5 -42.5t-17.5 -42t-42.5 -17t-42 16.5t-17 42.5q0 25 17 42.5t42 17.5zM168 570v-182q0 -63 24 -91.5t73 -28.5t82.5 34t33.5 94v174h-213zM478 570v-126q46 46 121 46q119 0 173 -105l-74 -53q-33 80 -111 80q-47 0 -78 -29t-31 -76v-307
h-97v246l-225 -246h-124l178 196q-139 21 -139 195v179h-95v80h655v-80h-153z" />
    <glyph glyph-name="dvK_KA" horiz-adv-x="1309" 
d="M869 273v297h-429v-133q45 45 113 45q67 0 115 -34q45 24 104 24q16 0 23 -2v-80q-10 2 -19 2q-49 0 -80.5 -31t-31.5 -83q0 -47 29 -77.5t76 -30.5q41 0 70.5 29.5t29.5 73.5zM1333 570h-367v-133q45 45 113 45q85 0 136.5 -51t51.5 -134q0 -89 -58.5 -142t-146.5 -53
q-11 0 -23 2v80q6 -1 19 -1q50 0 81 30.5t31 82.5q0 47 -28.5 77.5t-76.5 30.5q-41 0 -70 -29.5t-29 -73.5v-301h-97v137q-47 -45 -114 -45q-84 0 -136 51.5t-52 133.5q0 63 31 110q-25 17 -59 17q-41 0 -70 -29.5t-29 -73.5v-301h-97v137q-47 -45 -114 -45q-84 0 -136 51.5
t-52 133.5q0 89 58.5 142t146.5 53q16 0 23 -2v-80q-10 2 -19 2q-49 0 -80.5 -31t-31.5 -83q0 -47 29 -77.5t76 -30.5q41 0 70.5 29.5t29.5 73.5v297h-367v80h1357v-80z" />
    <glyph glyph-name="dvKx_KxA" horiz-adv-x="1309" 
d="M161 17q25 0 42.5 -17.5t17.5 -42.5t-17.5 -42t-42.5 -17t-42 17t-17 42t17 42.5t42 17.5zM687 17q25 0 42.5 -17.5t17.5 -42.5t-17.5 -42t-42.5 -17t-42 17t-17 42t17 42.5t42 17.5zM869 273v297h-429v-133q45 45 113 45q67 0 115 -34q45 24 104 24q16 0 23 -2v-80
q-10 2 -19 2q-49 0 -80.5 -31t-31.5 -83q0 -47 29 -77.5t76 -30.5q41 0 70.5 29.5t29.5 73.5zM1333 570h-367v-133q45 45 113 45q85 0 136.5 -51t51.5 -134q0 -89 -58.5 -142t-146.5 -53q-11 0 -23 2v80q6 -1 19 -1q50 0 81 30.5t31 82.5q0 47 -28.5 77.5t-76.5 30.5
q-41 0 -70 -29.5t-29 -73.5v-301h-97v137q-47 -45 -114 -45q-84 0 -136 51.5t-52 133.5q0 63 31 110q-25 17 -59 17q-41 0 -70 -29.5t-29 -73.5v-301h-97v137q-47 -45 -114 -45q-84 0 -136 51.5t-52 133.5q0 89 58.5 142t146.5 53q16 0 23 -2v-80q-10 2 -19 2
q-49 0 -80.5 -31t-31.5 -83q0 -47 29 -77.5t76 -30.5q41 0 70.5 29.5t29.5 73.5v297h-367v80h1357v-80z" />
    <glyph glyph-name="dvK_KHA" horiz-adv-x="1385" 
d="M802 441v129h-362v-131q42 42 107 42q69 0 110.5 -36t51.5 -94q93 7 93 90zM1409 650v-80h-111v-570h-98v165q-44 -40 -112 -40q-72 0 -122 48t-50 125t51 124.5t125 47.5q20 0 42 -4v-76q-9 3 -29 3q-42 0 -69 -27.5t-27 -70.5t26.5 -69t68.5 -26q41 0 68.5 26.5
t27.5 72.5v271h-302v-136q0 -70 -41.5 -111.5t-112.5 -48.5l-11 -1l214 -273h-117l-211 272v54q-4 33 -26 55t-60 22q-39 0 -66 -29t-27 -73v-301h-97v137q-47 -45 -114 -45q-84 0 -136 51.5t-52 133.5q0 89 58.5 142t146.5 53q16 0 23 -2v-80q-10 2 -19 2q-49 0 -80.5 -31
t-31.5 -83q0 -47 29 -77.5t76 -30.5q41 0 70.5 29.5t29.5 73.5v297h-367v80h1433z" />
    <glyph glyph-name="dvK_CA" horiz-adv-x="1169" 
d="M986 316v254h-546v-127q37 39 102 39q59 0 101 -32h257v-81q-100 0 -145 -30.5t-45 -80.5q0 -44 30.5 -68t80.5 -24q77 0 121 47t44 103zM1194 650v-80h-112v-570h-96v172q-24 -37 -70 -60.5t-112 -24.5q-83 0 -135.5 45t-52.5 117q0 83 70 120h-89q-30 35 -72 35
q-40 0 -62.5 -28.5t-22.5 -74.5v-301h-97v137q-47 -45 -114 -45q-84 0 -136 51.5t-52 133.5q0 89 58.5 142t146.5 53q16 0 23 -2v-80q-10 2 -19 2q-49 0 -80.5 -31t-31.5 -83q0 -47 29 -77.5t76 -30.5q41 0 70.5 29.5t29.5 73.5v297h-367v80h1218z" />
    <glyph glyph-name="dvK_JA" horiz-adv-x="1181" 
d="M685 425h312v145h-557v-132q46 44 111 44q84 0 134 -57zM1205 650v-80h-111v-570h-97v344h-186q68 -35 68 -117q0 -79 -54.5 -122.5t-141.5 -43.5q-69 0 -125 22v86q55 -26 109 -26q55 0 86.5 23.5t31.5 69.5q0 52 -42 80t-121 28v1q-21 59 -88 59q-38 0 -66 -29.5
t-28 -73.5v-301h-97v137q-47 -45 -114 -45q-84 0 -136 51.5t-52 133.5q0 89 58.5 142t146.5 53q16 0 23 -2v-80q-10 2 -19 2q-49 0 -80.5 -31t-31.5 -83q0 -47 29 -77.5t76 -30.5q41 0 70.5 29.5t29.5 73.5v297h-367v80h1229z" />
    <glyph glyph-name="dvK_TTA" horiz-adv-x="1033" 
d="M440 570v-133q45 45 113 45q89 0 139 -55q61 35 143 36h20v107h-415zM951 570v-191q-28 6 -78 6q-87 0 -138.5 -38t-51.5 -108q0 -67 47 -103t124 -36q38 0 78.5 12t64.5 27v-88q-64 -33 -148 -33q-121 0 -193 59.5t-72 164.5q0 69 38 123q-28 39 -83 39q-41 0 -70 -29.5
t-29 -73.5v-301h-97v137q-47 -45 -114 -45q-84 0 -136 51.5t-52 133.5q0 89 58.5 142t146.5 53q16 0 23 -2v-80q-10 2 -19 2q-49 0 -80.5 -31t-31.5 -83q0 -47 29 -77.5t76 -30.5q41 0 70.5 29.5t29.5 73.5v297h-367v80h1081v-80h-106z" />
    <glyph glyph-name="dvK_NNA" horiz-adv-x="1307" 
d="M879 346v224h-164v-224q0 -96 81 -96q83 0 83 96zM440 570v-133q45 45 113 45q37 0 66 -10v98h-179zM1332 650v-80h-112v-570h-96v570h-149v-219q0 -89 -47 -136t-134 -47q-175 0 -175 182v16q-26 38 -80 38q-41 0 -70 -29.5t-29 -73.5v-301h-97v137q-47 -45 -114 -45
q-84 0 -136 51.5t-52 133.5q0 89 58.5 142t146.5 53q16 0 23 -2v-80q-10 2 -19 2q-49 0 -80.5 -31t-31.5 -83q0 -47 29 -77.5t76 -30.5q41 0 70.5 29.5t29.5 73.5v297h-367v80h1356z" />
    <glyph glyph-name="dvK_TA" horiz-adv-x="918" 
d="M942 570h-398v-164q47 47 126 47q100 0 155.5 -63.5t55.5 -161.5q0 -102 -56 -164t-150 -62q-27 0 -43 4v80q16 -3 35 -3q55 0 85.5 39t30.5 107q0 61 -32.5 103.5t-91.5 42.5q-50 0 -82.5 -31t-32.5 -80v-264h-97v375h-70q-172 0 -172 -151q0 -65 34 -102t98 -37
q11 0 21 2v-83q-16 -2 -32 -2q-98 0 -158.5 59t-60.5 160q0 99 64 153h-41h-64v81h381v115h-471v80h966v-80z" />
    <glyph glyph-name="dvKx_TA" horiz-adv-x="1125" 
d="M161 17q25 0 42.5 -17.5t17.5 -42.5t-17.5 -42t-42.5 -17t-42 17t-17 42t17 42.5t42 17.5zM942 458v112h-502v-133q45 45 113 45q83 0 143 -58q60 34 151 34h95zM1150 650v-80h-111v-570h-97v377h-87q-166 0 -166 -146q0 -69 33 -108.5t99 -39.5q16 0 21 1v-82
q-18 -2 -33 -2q-101 0 -159.5 65t-58.5 167q0 76 35 129q-33 43 -87 43q-41 0 -70 -29.5t-29 -73.5v-301h-97v137q-47 -45 -114 -45q-84 0 -136 51.5t-52 133.5q0 89 58.5 142t146.5 53q16 0 23 -2v-80q-10 2 -19 2q-49 0 -80.5 -31t-31.5 -83q0 -47 29 -77.5t76 -30.5
q41 0 70.5 29.5t29.5 73.5v297h-367v80h1174z" />
    <glyph glyph-name="dvK_T_YA" horiz-adv-x="1512" 
d="M1330 342v228h-170q23 -37 23 -90q0 -118 -143 -166q12 -49 50.5 -80t93.5 -31q66 0 106 37t40 102zM827 458h17q105 0 156 -71q87 34 87 97q0 52 -30 86h-617v-133q45 45 113 45q86 0 136 -57q57 33 138 33zM1537 650v-80h-111v-570h-96v187q-47 -68 -158 -68
q-82 0 -145.5 51t-88.5 143q-28 64 -92 64h-19q-65 0 -102 -37.5t-37 -108.5q0 -69 33 -108.5t99 -39.5q15 0 21 1v-82q-18 -2 -33 -2q-103 0 -160.5 64.5t-57.5 167.5q0 73 32 126q-28 46 -83 46q-41 0 -70 -29.5t-29 -73.5v-301h-97v137q-47 -45 -114 -45q-84 0 -136 51.5
t-52 133.5q0 89 58.5 142t146.5 53q16 0 23 -2v-80q-10 2 -19 2q-49 0 -80.5 -31t-31.5 -83q0 -47 29 -77.5t76 -30.5q41 0 70.5 29.5t29.5 73.5v297h-367v80h1561z" />
    <glyph glyph-name="dvK_T_RA" horiz-adv-x="1112" 
d="M943 385v185h-503v-133q42 40 101 40q57 0 97 -35q53 25 116 25q118 0 189 -82zM1151 650v-80h-111v-570h-97v216l-270 -167l-50 73l287 175q-57 85 -158 86q-76 0 -141 -45q-26 61 -83 61q-35 0 -61.5 -27.5t-26.5 -70.5v-301h-97v137q-47 -45 -114 -45q-84 0 -136 51.5
t-52 133.5q0 89 58.5 142t146.5 53q16 0 23 -2v-80q-10 2 -19 2q-49 0 -80.5 -31t-31.5 -83q0 -47 29 -77.5t76 -30.5q41 0 70.5 29.5t29.5 73.5v297h-367v80h1175z" />
    <glyph glyph-name="dvK_T_VA" horiz-adv-x="1471" 
d="M1277 307v263h-837v-134q45 45 114 45q81 0 137 -54q59 31 146 31h186q46 24 103 24q36 0 66 -7v-85q-27 9 -59 9q-48 0 -81 -31t-33 -82q0 -54 33 -86t85 -32q61 0 100.5 41t39.5 98zM1485 650v-80h-112v-570h-96v155q-54 -66 -154 -66q-84 0 -143 52.5t-59 143.5
q0 51 21 92h-97q-166 0 -166 -146q0 -69 33 -108.5t99 -39.5q16 0 21 1v-82q-18 -2 -33 -2q-101 0 -159.5 65t-58.5 167q0 80 39 135q-32 36 -80 36q-42 0 -71 -28.5t-29 -73.5v-301h-97v137q-47 -45 -114 -45q-84 0 -136 51.5t-52 133.5q0 89 58.5 142t146.5 53q16 0 23 -2
v-80q-10 2 -19 2q-49 0 -80.5 -31t-31.5 -83q0 -47 29 -77.5t76 -30.5q41 0 70.5 29.5t29.5 73.5v297h-367v80h1509z" />
    <glyph glyph-name="dvK_THA" horiz-adv-x="1243" 
d="M1059 650h204v-80h-107v-570h-97v189q-19 -33 -70.5 -59.5t-113.5 -26.5q-69 0 -117 22t-71 55t-41 72t-28 72t-31 55t-52 22q-42 0 -68.5 -27.5t-26.5 -72.5v-301h-97v137q-47 -45 -114 -45q-84 0 -136 51.5t-52 133.5q0 89 58.5 142t146.5 53q16 0 23 -2v-80
q-10 2 -19 2q-49 0 -80.5 -31t-31.5 -83q0 -47 29 -77.5t76 -30.5q41 0 70.5 29.5t29.5 73.5v297h-367v80h597v-80h-133v-131q41 41 106 41q105 0 153 -111q91 26 134 58.5t43 80.5q0 30 -15.5 49.5t-44.5 19.5q-30 0 -45.5 -18t-15.5 -46q0 -7 8 -43h-92q-9 30 -9 52
q0 57 41.5 96t112.5 39q70 0 111 -42t41 -108q0 -152 -237 -213q18 -55 54 -81.5t97 -26.5q72 0 124.5 45t52.5 133v286z" />
    <glyph glyph-name="dvK_DA" horiz-adv-x="1071" 
d="M770 498h90v72h-420v-133q45 45 113 45q53 0 94 -21q46 37 123 37zM956 570v-151v-1h-184q-75 0 -75 -56q0 -31 29.5 -44t100.5 -15q185 -5 185 -143q0 -71 -57.5 -116t-155.5 -45q-109 0 -197 46v93q92 -58 198 -58q54 0 84.5 20.5t30.5 56.5q0 35 -28 49t-95 16
q-191 7 -191 138q0 9 2 23q-27 21 -64 21q-41 0 -70 -29.5t-29 -73.5v-301h-97v137q-47 -45 -114 -45q-84 0 -136 51.5t-52 133.5q0 89 58.5 142t146.5 53q16 0 23 -2v-80q-10 2 -19 2q-49 0 -80.5 -31t-31.5 -83q0 -47 29 -77.5t76 -30.5q41 0 70.5 29.5t29.5 73.5v297
h-367v80h1120v-80h-140z" />
    <glyph glyph-name="dvK_NA" horiz-adv-x="795" 
d="M819 570h-367v-134q46 46 114 46q84 0 136 -51t52 -134q0 -89 -58.5 -142t-146.5 -53q-11 0 -23 2v80q5 -1 19 -1q50 0 81 30.5t31 82.5q0 47 -29 77.5t-76 30.5q-41 0 -70.5 -29.5t-29.5 -73.5v-301h-97v141q-9 -9 -20 -17l-147 -108q-16 -13 -16 -27q0 -27 57 -79
l-56 -43q-39 19 -71 52.5t-32 68.5q0 41 47 72l64 44q-59 16 -93.5 62.5t-34.5 112.5q0 88 59 140.5t147 52.5q16 0 23 -2v-80q-12 2 -19 2q-50 0 -81 -30.5t-31 -82.5q0 -46 28.5 -75t76.5 -29q41 0 70 29t29 74v292h-379v80h843v-80z" />
    <glyph glyph-name="dvK_PA" horiz-adv-x="1107" 
d="M923 380v190h-213v-198q0 -63 24 -91t73 -28t82.5 34t33.5 93zM440 570v-133q45 45 113 45q30 0 60 -8v96h-173zM1132 650v-80h-112v-570h-97v228q-48 -53 -128 -54q-181 0 -182 199q-28 31 -74 31q-41 0 -70 -29.5t-29 -73.5v-301h-97v137q-47 -45 -114 -45
q-84 0 -136 51.5t-52 133.5q0 89 58.5 142t146.5 53q16 0 23 -2v-80q-10 2 -19 2q-49 0 -80.5 -31t-31.5 -83q0 -47 29 -77.5t76 -30.5q41 0 70.5 29.5t29.5 73.5v297h-367v80h1156z" />
    <glyph glyph-name="dvK_P_RA" horiz-adv-x="1109" 
d="M925 396v174h-213v-182q0 -63 24 -91.5t73 -28.5t82.5 34t33.5 94zM440 570v-133q45 45 113 45q33 0 62 -9v97h-175zM1134 650v-80h-112v-570h-97v246l-225 -246h-124l178 196q-131 19 -138 174q-28 34 -77 34q-41 0 -70 -29.5t-29 -73.5v-301h-97v137q-47 -45 -114 -45
q-84 0 -136 51.5t-52 133.5q0 89 58.5 142t146.5 53q16 0 23 -2v-80q-10 2 -19 2q-49 0 -80.5 -31t-31.5 -83q0 -47 29 -77.5t76 -30.5q41 0 70.5 29.5t29.5 73.5v297h-367v80h1158z" />
    <glyph glyph-name="dvK_PHA" horiz-adv-x="1354" 
d="M923 380v190h-213v-198q0 -63 24 -90t73 -27t82.5 33t33.5 92zM440 570v-133q45 45 113 45q30 0 60 -8v96h-173zM1378 570h-358v-127q46 46 119 46q83 0 132.5 -52t49.5 -133q0 -92 -58.5 -143.5t-145.5 -51.5q-10 0 -24 2v80q12 -2 19 -2q51 0 82 30t31 85q0 46 -28 76
t-73 30q-44 0 -74 -29t-30 -75v-306h-97v229q-47 -52 -128 -52q-90 0 -136 46t-46 149v1q-28 31 -74 31q-41 0 -70 -29.5t-29 -73.5v-301h-97v137q-47 -45 -114 -45q-84 0 -136 51.5t-52 133.5q0 89 58.5 142t146.5 53q16 0 23 -2v-80q-10 2 -19 2q-49 0 -80.5 -31
t-31.5 -83q0 -47 29 -77.5t76 -30.5q41 0 70.5 29.5t29.5 73.5v297h-367v80h1402v-80z" />
    <glyph glyph-name="dvKx_PHA" horiz-adv-x="1353" 
d="M161 17q25 0 42.5 -17.5t17.5 -42.5t-17.5 -42t-42.5 -17t-42 17t-17 42t17 42.5t42 17.5zM922 380v190h-213v-198q0 -63 24 -90t73 -27t82.5 33t33.5 92zM440 570v-133q45 45 113 45q30 0 59 -8v96h-172zM1377 570h-358v-127q46 46 119 46q83 0 132.5 -52t49.5 -133
q0 -92 -58.5 -143.5t-145.5 -51.5q-10 0 -24 2v80q12 -2 19 -2q51 0 82 30t31 85q0 46 -28 76t-73 30q-44 0 -74 -29t-30 -75v-306h-97v229q-47 -52 -128 -52q-90 0 -136 46t-46 149v2q-27 30 -73 30q-41 0 -70 -29.5t-29 -73.5v-301h-97v137q-47 -45 -114 -45
q-84 0 -136 51.5t-52 133.5q0 89 58.5 142t146.5 53q16 0 23 -2v-80q-10 2 -19 2q-49 0 -80.5 -31t-31.5 -83q0 -47 29 -77.5t76 -30.5q41 0 70.5 29.5t29.5 73.5v297h-367v80h1401v-80z" />
    <glyph glyph-name="dvKx_PHxA" horiz-adv-x="1353" 
d="M161 17q25 0 42.5 -17.5t17.5 -42.5t-17.5 -42t-42.5 -17t-42 17t-17 42t17 42.5t42 17.5zM688 78q25 0 42.5 -17.5t17.5 -42.5t-17.5 -42t-42.5 -17q-26 0 -42.5 16.5t-16.5 42.5q0 25 17 42.5t42 17.5zM922 380v190h-213v-198q0 -63 24 -90t73 -27t82.5 33t33.5 92z
M440 570v-133q45 45 113 45q30 0 59 -8v96h-172zM1377 570h-358v-127q46 46 119 46q83 0 132.5 -52t49.5 -133q0 -92 -58.5 -143.5t-145.5 -51.5q-10 0 -24 2v80q12 -2 19 -2q51 0 82 30t31 85q0 46 -28 76t-73 30q-44 0 -74 -29t-30 -75v-306h-97v229q-47 -52 -128 -52
q-90 0 -136 46t-46 149v2q-27 30 -73 30q-41 0 -70 -29.5t-29 -73.5v-301h-97v137q-47 -45 -114 -45q-84 0 -136 51.5t-52 133.5q0 89 58.5 142t146.5 53q16 0 23 -2v-80q-10 2 -19 2q-49 0 -80.5 -31t-31.5 -83q0 -47 29 -77.5t76 -30.5q41 0 70.5 29.5t29.5 73.5v297h-367
v80h1401v-80z" />
    <glyph glyph-name="dvKx_BA" horiz-adv-x="1162" 
d="M161 17q25 0 42.5 -17.5t17.5 -42.5t-17.5 -42t-42.5 -17t-42 17t-17 42t17 42.5t42 17.5zM979 302v268h-539v-133q45 45 113 45q64 0 112 -31q60 49 149 49q40 0 82 -10v-84q-39 12 -75 12q-38 0 -68 -14l199 -184q27 37 27 82zM911 183l-200 186q-24 -34 -24 -82
q0 -58 36.5 -94t93.5 -36q54 0 94 26zM1187 650v-80h-112v-570h-96v153q-64 -74 -172 -74q-89 0 -152.5 59t-63.5 151q0 49 18 88q-27 27 -70 27q-41 0 -70 -29.5t-29 -73.5v-301h-97v137q-47 -45 -114 -45q-84 0 -136 51.5t-52 133.5q0 89 58.5 142t146.5 53q16 0 23 -2
v-80q-10 2 -19 2q-49 0 -80.5 -31t-31.5 -83q0 -47 29 -77.5t76 -30.5q41 0 70.5 29.5t29.5 73.5v297h-367v80h1211z" />
    <glyph glyph-name="dvK_MA" horiz-adv-x="1112" 
d="M930 347v223h-194v-223h194zM440 570v-132q46 44 117 44q46 0 83 -17v105h-200zM1137 650v-80h-112v-570h-95v268h-194v-132h-84l-28 63q-28 65 -28 91q0 43 44 53v27q-39 34 -93 34q-42 0 -74 -28.5t-33 -74.5v-301h-97v137q-47 -45 -114 -45q-84 0 -136 51.5t-52 133.5
q0 89 58.5 142t146.5 53q16 0 23 -2v-80q-10 2 -19 2q-49 0 -80.5 -31t-31.5 -83q0 -47 29 -77.5t76 -30.5q41 0 70.5 29.5t29.5 73.5v297h-367v80h1161z" />
    <glyph glyph-name="dvKx_MA" horiz-adv-x="1112" 
d="M161 17q25 0 42.5 -17.5t17.5 -42.5t-17.5 -42t-42.5 -17t-42 17t-17 42t17 42.5t42 17.5zM930 347v223h-194v-223h194zM440 570v-132q46 44 117 44q46 0 83 -17v105h-200zM1137 650v-80h-112v-570h-95v268h-194v-132h-84l-28 63q-28 65 -28 91q0 43 44 53v27
q-39 34 -93 34q-42 0 -74 -28.5t-33 -74.5v-301h-97v137q-47 -45 -114 -45q-84 0 -136 51.5t-52 133.5q0 89 58.5 142t146.5 53q16 0 23 -2v-80q-10 2 -19 2q-49 0 -80.5 -31t-31.5 -83q0 -47 29 -77.5t76 -30.5q41 0 70.5 29.5t29.5 73.5v297h-367v80h1161z" />
    <glyph glyph-name="dvK_YA" horiz-adv-x="1193" 
d="M1016 342v228h-170q23 -37 23 -90q0 -66 -41 -107.5t-105 -60.5q18 -56 51.5 -82.5t93.5 -26.5q67 1 107.5 37.5t40.5 101.5zM440 570v-134q41 39 104 39q94 0 143 -90q39 14 63 41t24 58q0 51 -31 86h-303zM1223 650v-80h-111v-570h-96v187q-21 -29 -63.5 -48.5
t-96.5 -19.5q-55 0 -95.5 15.5t-63 40t-38.5 54t-27 59t-22.5 54t-31 40t-47.5 15.5q-39 0 -65 -25.5t-26 -70.5v-301h-97v137q-47 -45 -114 -45q-84 0 -136 51.5t-52 133.5q0 89 58.5 142t146.5 53q16 0 23 -2v-80q-10 2 -19 2q-49 0 -80.5 -31t-31.5 -83q0 -47 29 -77.5
t76 -30.5q41 0 70.5 29.5t29.5 73.5v297h-367v80h1247z" />
    <glyph glyph-name="dvK_LA" horiz-adv-x="1287" 
d="M1103 469v101h-663v-133q45 45 113 45q70 0 121 -38q42 28 97 28q56 0 92 -25t45 -67q25 97 144 97q27 0 51 -8zM1311 650v-80h-111v-570h-97v392q-23 7 -44 7q-103 0 -103 -119v-70h-97v72q0 110 -78 110q-40 0 -65.5 -33t-25.5 -97q0 -81 42 -131t126 -50q20 0 31 2
v-79q-17 -4 -43 -4q-115 0 -183.5 74t-68.5 190q0 60 21 107q-28 33 -76 33q-41 0 -70 -29.5t-29 -73.5v-301h-97v137q-47 -45 -114 -45q-84 0 -136 51.5t-52 133.5q0 89 58.5 142t146.5 53q16 0 23 -2v-80q-10 2 -19 2q-49 0 -80.5 -31t-31.5 -83q0 -47 29 -77.5t76 -30.5
q41 0 70.5 29.5t29.5 73.5v297h-367v80h1335z" />
    <glyph glyph-name="dvK_VA" horiz-adv-x="1120" 
d="M937 307v263h-497v-133q45 45 113 45q65 0 114 -33q52 33 119 33q36 0 66 -7v-85q-27 9 -59 9q-48 0 -81 -31t-33 -82q0 -54 33 -86t85 -32q61 0 100.5 41t39.5 98zM1145 650v-80h-112v-570h-96v155q-54 -66 -154 -66q-84 0 -143 52.5t-59 143.5q0 54 24 96
q-26 23 -66 23q-41 0 -70 -29.5t-29 -73.5v-301h-97v137q-47 -45 -114 -45q-84 0 -136 51.5t-52 133.5q0 89 58.5 142t146.5 53q16 0 23 -2v-80q-10 2 -19 2q-49 0 -80.5 -31t-31.5 -83q0 -47 29 -77.5t76 -30.5q41 0 70.5 29.5t29.5 73.5v297h-367v80h1169z" />
    <glyph glyph-name="dvK_V_YA" horiz-adv-x="1455" 
d="M1272 342v228h-170q23 -37 23 -90q0 -118 -143 -166q12 -49 50.5 -80t93.5 -31q66 0 106 37t40 102zM846 475v-85q-23 9 -59 9q-49 0 -81.5 -32t-32.5 -83q0 -52 36 -84t92 -32q70 0 122 50q-42 63 -54 151q79 12 119.5 43t40.5 72q0 52 -30 86h-559v-133q45 45 113 45
q65 0 111 -31q50 31 116 31q36 0 66 -7zM1479 650v-80h-111v-570h-96v187q-47 -68 -158 -68q-79 0 -139 45q-73 -75 -184 -75q-91 0 -153.5 52t-62.5 144q0 55 25 100q-25 19 -61 19q-41 0 -70 -29.5t-29 -73.5v-301h-97v137q-47 -45 -114 -45q-84 0 -136 51.5t-52 133.5
q0 89 58.5 142t146.5 53q16 0 23 -2v-80q-10 2 -19 2q-49 0 -80.5 -31t-31.5 -83q0 -47 29 -77.5t76 -30.5q41 0 70.5 29.5t29.5 73.5v297h-367v80h1503z" />
    <glyph glyph-name="dvK_SHA" horiz-adv-x="1249" 
d="M440 570v-125q45 47 119 47q35 0 63 -9q-1 6 -1 17q0 62 43 107.5t117 45.5q83 0 128 -55.5t45 -139.5q0 -109 -63 -169t-158 -60h-14l212 -229h-126l-202 226v83h102q75 0 114 41t39 112q0 49 -19.5 79t-57.5 30q-34 0 -51.5 -25.5t-17.5 -59.5q0 -53 29 -100h-100
q-35 28 -81 28q-49 0 -83.5 -29.5t-36.5 -79.5v-305h-97v137q-47 -45 -114 -45q-84 0 -136 51.5t-52 133.5q0 89 58.5 142t146.5 53q16 0 23 -2v-80q-10 2 -19 2q-49 0 -80.5 -31t-31.5 -83q0 -47 29 -77.5t76 -30.5q41 0 70.5 29.5t29.5 73.5v297h-367v80h564v-80h-100z
M1053 650h209v-80h-112v-570h-97v650z" />
    <glyph glyph-name="dvK_SS_MA" horiz-adv-x="1096" 
d="M914 354v216h-195v-216h195zM273 578q-35 0 -58 -22.5t-23 -55.5q0 -76 88 -95q74 30 74 97q0 30 -23.5 53t-57.5 23zM496 650h624v-80h-111v-570h-95v274h-195v-132h-83l-28 64q-28 63 -28 90q0 13 5 25h-243q-44 0 -83 9q-53 -19 -85.5 -49.5t-32.5 -71.5
q0 -40 27 -63.5t70 -23.5q48 0 83.5 30t46.5 82h91v-234h-95v105q-15 -27 -54.5 -45t-84.5 -18q-83 0 -133 44.5t-50 117.5q0 111 126 164q-69 49 -69 134q0 63 48 109t123 46q79 0 127.5 -42t48.5 -106q0 -71 -54 -111h232v172h-128v80z" />
    <glyph glyph-name="dvK_SS_M_YA" horiz-adv-x="1467" 
d="M1284 342v228h-170q24 -36 24 -90q0 -60 -40 -104.5t-103 -64.5q12 -48 50.5 -78t93.5 -30q66 0 105.5 37t39.5 102zM714 356h61q267 0 267 132q0 52 -30 82h-298v-214zM273 578q-35 0 -58 -22.5t-23 -55.5q0 -76 88 -95q74 30 74 97q0 30 -23.5 53t-57.5 23zM491 650
h1001v-80h-112v-570h-96v187q-47 -68 -157 -68q-78 0 -137.5 42t-88.5 120q-66 -10 -147 -10h-40v-130h-83l-28 63q-28 63 -28 90q0 15 6 27h-239q-44 0 -83 9q-53 -19 -85.5 -49.5t-32.5 -71.5q0 -40 27 -63.5t70 -23.5q48 0 83.5 30t46.5 82h91v-234h-95v105
q-15 -27 -54.5 -45t-84.5 -18q-83 0 -133 44.5t-50 117.5q0 111 126 164q-69 49 -69 134q0 63 48 109t123 46q79 0 127.5 -42t48.5 -106q0 -71 -54 -111h227v172h-128v80z" />
    <glyph glyph-name="dvK_SS_YA" horiz-adv-x="1110" 
d="M927 342v228h-170q23 -39 23 -89q0 -119 -145 -157q14 -56 51 -88.5t95 -32.5q66 0 106 37t40 102zM273 578q-35 0 -58 -22.5t-23 -55.5q0 -66 77 -99q85 30 85 100q0 30 -23.5 53.5t-57.5 23.5zM509 650h625v-80h-111v-570h-96v187q-47 -68 -158 -68q-85 0 -146 49
t-84 134q-37 -5 -96 -5q-115 0 -196 28q-106 -41 -106 -116q0 -40 27 -63.5t70 -23.5q47 0 82.5 28t47.5 71h91v-221h-95v103q-17 -26 -55.5 -43.5t-83.5 -17.5q-83 0 -133 44.5t-50 117.5q0 111 125 163q-68 53 -68 135q0 63 48 109t123 46q79 0 127.5 -42t48.5 -106
q0 -88 -87 -131q43 -5 85 -5q240 0 240 121q0 46 -30 76h-145v80z" />
    <glyph glyph-name="dvK_SS_VA" horiz-adv-x="1090" 
d="M273 578q-35 0 -58 -22.5t-23 -55.5q0 -76 88 -95q74 30 74 97q0 30 -23.5 53t-57.5 23zM1114 650v-80h-111v-570h-97v155q-54 -66 -154 -66q-83 0 -142 52.5t-59 143.5q0 18 3 36h-212q-44 0 -83 9q-53 -19 -85.5 -49.5t-32.5 -71.5q0 -40 27 -63.5t70 -23.5
q48 0 83.5 30t46.5 82h91v-234h-95v105q-15 -27 -54.5 -45t-84.5 -18q-83 0 -133 44.5t-50 117.5q0 111 126 164q-69 49 -69 134q0 63 48 109t123 46q79 0 127.5 -42t48.5 -106q0 -71 -54 -111h193q58 84 171 84q34 0 66 -7v-85q-27 9 -59 9q-49 0 -81.5 -31t-32.5 -82
q0 -54 33 -86t85 -32q61 0 100 41t39 98v263h-393v80h601z" />
    <glyph glyph-name="dvK_SA" horiz-adv-x="1246" 
d="M858 339h205v231h-180v-134q0 -60 -25 -97zM440 570v-132q44 42 107 42q66 0 107.5 -35t55.5 -93q43 4 60 25.5t17 62.5v130h-347zM1271 650v-80h-111v-570h-97v259h-162q-96 0 -159 9l186 -268h-116l-189 278v20q0 43 -24.5 73.5t-66.5 30.5q-40 0 -66 -28.5t-26 -72.5
v-301h-97v137q-47 -45 -114 -45q-84 0 -136 51.5t-52 133.5q0 89 58.5 142t146.5 53q16 0 23 -2v-80q-10 2 -19 2q-49 0 -80.5 -31t-31.5 -83q0 -47 29 -77.5t76 -30.5q41 0 70.5 29.5t29.5 73.5v297h-367v80h1295z" />
    <glyph glyph-name="dvK_S_TTA" horiz-adv-x="1020" 
d="M273 578q-35 0 -58 -22.5t-23 -55.5q0 -76 88 -95q74 30 74 97q0 30 -23.5 53t-57.5 23zM938 570v-191q-30 6 -78 6q-87 0 -138.5 -38t-51.5 -108q0 -67 46.5 -103t124.5 -36q38 0 78.5 12t64.5 27v-88q-64 -33 -149 -33q-120 0 -192 59.5t-72 164.5q0 42 14 79h-243
q-44 0 -83 9q-53 -19 -85.5 -49.5t-32.5 -71.5q0 -40 27 -63.5t70 -23.5q48 0 83.5 30t46.5 82h91v-234h-95v105q-15 -27 -54.5 -45t-84.5 -18q-83 0 -133 44.5t-50 117.5q0 111 126 164q-69 49 -69 134q0 63 48 109t123 46q79 0 127.5 -42t48.5 -106q0 -71 -54 -111h246
q68 64 183 65h20v107h-322v80h525v-80h-106z" />
    <glyph glyph-name="dvK_S_DDA" horiz-adv-x="1056" 
d="M273 578q-35 0 -58 -22.5t-23 -55.5q0 -76 88 -95q74 30 74 97q0 30 -23.5 53t-57.5 23zM941 570v-151v-1h-184q-75 0 -75 -56q0 -31 29.5 -44t100.5 -15q185 -5 185 -143q0 -71 -57.5 -116t-155.5 -45q-109 0 -197 46v93q92 -58 198 -58q54 0 84.5 20.5t30.5 56.5
q0 35 -28 49t-95 16q-160 5 -186 99h-249q-44 0 -83 9q-53 -19 -85.5 -49.5t-32.5 -71.5q0 -40 27 -63.5t70 -23.5q48 0 83.5 30t46.5 82h91v-234h-95v105q-15 -27 -54.5 -45t-84.5 -18q-83 0 -133 44.5t-50 117.5q0 111 126 164q-69 49 -69 134q0 63 48 109t123 46
q79 0 127.5 -42t48.5 -106q0 -71 -54 -111h199q13 49 58 74.5t106 25.5h90v72h-337v80h573v-80h-140z" />
    <glyph glyph-name="dvK_S_TA" horiz-adv-x="1101" 
d="M273 578q-35 0 -58 -22.5t-23 -55.5q0 -76 88 -95q74 30 74 97q0 30 -23.5 53t-57.5 23zM1125 650v-80h-111v-570h-96v377h-88q-166 0 -166 -146q0 -69 33.5 -108.5t99.5 -39.5q15 0 21 1v-82q-18 -2 -33 -2q-101 0 -159.5 65t-58.5 167q0 48 15 89h-240q-44 0 -83 9
q-53 -19 -85.5 -49.5t-32.5 -71.5q0 -40 27 -63.5t70 -23.5q48 0 83.5 30t46.5 82h91v-234h-95v105q-15 -27 -54.5 -45t-84.5 -18q-83 0 -133 44.5t-50 117.5q0 111 126 164q-69 49 -69 134q0 63 48 109t123 46q79 0 127.5 -42t48.5 -106q0 -71 -54 -111h242q66 60 188 60
h96v112h-394v80h601z" />
    <glyph glyph-name="dvK_S_P_RA" horiz-adv-x="1568" 
d="M1384 396v174h-213v-182q0 -63 24 -91.5t73 -28.5t82.5 34t33.5 94zM858 339h220q-4 21 -4 52v179h-192v-134q0 -60 -24 -97zM440 570v-132q44 42 107 42q66 0 107.5 -35t55.5 -93q43 4 59.5 25.5t16.5 62.5v130h-346zM1593 650v-80h-112v-570h-97v246l-225 -246h-124
l178 196q-72 11 -107 63h-206q-96 0 -157 9l185 -268h-117l-188 278v20q0 43 -24.5 73.5t-66.5 30.5q-40 0 -66 -28.5t-26 -72.5v-301h-97v137q-47 -45 -114 -45q-84 0 -136 51.5t-52 133.5q0 89 58.5 142t146.5 53q16 0 23 -2v-80q-10 2 -19 2q-49 0 -80.5 -31t-31.5 -83
q0 -47 29 -77.5t76 -30.5q41 0 70.5 29.5t29.5 73.5v297h-367v80h1617z" />
    <glyph glyph-name="dvK_S_P_LA" horiz-adv-x="2058" 
d="M1874 469v101h-720v-198q0 -63 24 -91t73 -28q68 0 117 54q11 75 57 120t117 45q56 0 92 -25t45 -67q25 97 144 97q27 0 51 -8zM858 339h201q-2 22 -2 36v195h-174v-134q0 -60 -25 -97zM440 570v-132q44 42 107 42q66 0 107.5 -35t55.5 -93q43 4 60 25.5t17 62.5v130
h-347zM2082 650v-80h-111v-570h-97v392q-23 7 -44 7q-103 0 -103 -119v-70h-97v72q0 110 -78 110q-40 0 -65.5 -33t-25.5 -97q0 -81 42 -131t126 -50q20 0 31 2v-79q-17 -4 -43 -4q-101 0 -167 58t-81 154q-58 -38 -129 -38q-121 0 -161 85h-178q-96 0 -159 9l186 -268h-116
l-189 278v20q0 43 -24.5 73.5t-66.5 30.5q-40 0 -66 -28.5t-26 -72.5v-301h-97v137q-47 -45 -114 -45q-84 0 -136 51.5t-52 133.5q0 89 58.5 142t146.5 53q16 0 23 -2v-80q-10 2 -19 2q-49 0 -80.5 -31t-31.5 -83q0 -47 29 -77.5t76 -30.5q41 0 70.5 29.5t29.5 73.5v297
h-367v80h2106z" />
    <glyph glyph-name="dvKH_KHA" horiz-adv-x="1370" 
d="M1186 463v107h-324v-118q0 -70 -25 -106t-85 -42h-8l-5 -1q21 -79 86.5 -130.5t154.5 -51.5q90 0 151 50t61 131q0 54 -28 86t-78 32q-37 0 -58.5 -21.5t-21.5 -52.5q0 -29 17.5 -46t44.5 -17q20 0 37 8v-71q-28 -10 -53 -10q-58 0 -98 37t-40 97q0 64 47 107.5t119 43.5
q62 0 106 -32zM537 291v-71q-27 -10 -52 -10q-58 0 -98 37t-40 97q0 64 47 107.5t119 43.5q66 0 113.5 -30t68.5 -85q44 0 57.5 19.5t13.5 69.5v101h-472v-118q0 -67 -23.5 -103.5t-80.5 -42.5q-12 -3 -19 -3q22 -79 88 -130.5t155 -51.5q93 0 149.5 48.5t56.5 130.5
q0 54 -26.5 87t-77.5 33q-36 0 -57 -21.5t-21 -52.5q0 -29 17.5 -46t45.5 -17q20 0 36 8zM1394 650v-80h-111v-570h-97v123q-81 -88 -218 -88q-179 0 -286 154q-34 -70 -107 -112t-169 -42q-127 0 -217 74t-130 193v78h67q45 0 58.5 19t13.5 70v101h-222v80h1418z" />
    <glyph glyph-name="dvKH_TA" horiz-adv-x="1157" 
d="M973 458v112h-679v-118q0 -67 -23.5 -103.5t-80.5 -42.5q-12 -3 -19 -3q22 -79 88 -130.5t155 -51.5q93 0 149.5 48.5t56.5 130.5q0 54 -26.5 87t-77.5 33q-36 0 -57 -21.5t-21 -52.5q0 -29 17.5 -46t45.5 -17q20 0 36 8v-71q-27 -10 -52 -10q-58 0 -98 37t-40 97
q0 64 47 107.5t119 43.5q60 0 106 -25.5t68 -72.5q69 61 191 61h95zM1181 650v-80h-111v-570h-97v377h-87q-166 0 -166 -146q0 -69 33 -108.5t99 -39.5q16 0 21 1v-82q-18 -2 -33 -2q-73 0 -124 34.5t-75 94.5q-88 -94 -235 -94q-127 0 -217 74t-130 193v78h67q45 0 58.5 19
t13.5 70v101h-222v80h1205z" />
    <glyph glyph-name="dvKHx_TA" horiz-adv-x="1157" 
d="M91 43q25 0 42.5 -17.5t17.5 -42.5t-17.5 -42t-42.5 -17t-42 17t-17 42t17 42.5t42 17.5zM973 458v112h-679v-118q0 -67 -23.5 -103.5t-80.5 -42.5q-12 -3 -19 -3q22 -79 88 -130.5t155 -51.5q93 0 149.5 48.5t56.5 130.5q0 54 -26.5 87t-77.5 33q-36 0 -57 -21.5
t-21 -52.5q0 -29 17.5 -46t45.5 -17q20 0 36 8v-71q-27 -10 -52 -10q-58 0 -98 37t-40 97q0 64 47 107.5t119 43.5q60 0 106 -25.5t68 -72.5q69 61 191 61h95zM1181 650v-80h-111v-570h-97v377h-87q-166 0 -166 -146q0 -69 33 -108.5t99 -39.5q16 0 21 1v-82q-18 -2 -33 -2
q-73 0 -124 34.5t-75 94.5q-88 -94 -235 -94q-127 0 -217 74t-130 193v78h67q45 0 58.5 19t13.5 70v101h-222v80h1205z" />
    <glyph glyph-name="dvKH_NA" horiz-adv-x="802" 
d="M618 463v107h-324v-118q0 -70 -25 -106t-85 -42q-1 0 -6.5 -0.5t-6.5 -0.5q22 -79 87.5 -130.5t153.5 -51.5q90 0 151 50t61 131q0 54 -28 86t-78 32q-37 0 -58.5 -21.5t-21.5 -52.5q0 -29 17.5 -46t45.5 -17q20 0 36 8v-71q-27 -10 -52 -10q-58 0 -98 37t-40 97
q0 64 47 107.5t119 43.5q61 0 105 -32zM826 650v-80h-111v-570h-97v123q-38 -41 -89 -63l-276 -118q-25 -10 -25 -33q0 -28 34 -84l-67 -21q-26 23 -46 56.5t-20 65.5q0 55 68 77l109 45q-89 25 -152.5 92.5t-94.5 161.5v78h67q45 0 58.5 19t13.5 70v101h-222v80h850z" />
    <glyph glyph-name="dvKH_MA" horiz-adv-x="1170" 
d="M988 354v216h-195v-216h195zM537 291v-71q-27 -10 -52 -10q-58 0 -98 37t-40 97q0 64 47 107.5t119 43.5q68 0 117 -33t68 -92v200h-404v-118q0 -67 -23.5 -103.5t-80.5 -42.5q-12 -3 -19 -3q22 -79 88 -130.5t155 -51.5q93 0 149.5 48.5t56.5 130.5q0 54 -26.5 87
t-77.5 33q-36 0 -57 -21.5t-21 -52.5q0 -29 17.5 -46t45.5 -17q20 0 36 8zM1194 650v-80h-111v-570h-95v274h-195v-132h-83l-24 55q-33 -73 -107 -117.5t-173 -44.5q-127 0 -217 74t-130 193v78h67q45 0 58.5 19t13.5 70v101h-222v80h1218z" />
    <glyph glyph-name="dvKHx_MA" horiz-adv-x="1170" 
d="M91 43q25 0 42.5 -17.5t17.5 -42.5t-17.5 -42t-42.5 -17t-42 17t-17 42t17 42.5t42 17.5zM988 354v216h-195v-216h195zM537 291v-71q-27 -10 -52 -10q-58 0 -98 37t-40 97q0 64 47 107.5t119 43.5q68 0 117 -33t68 -92v200h-404v-118q0 -67 -23.5 -103.5t-80.5 -42.5
q-12 -3 -19 -3q22 -79 88 -130.5t155 -51.5q93 0 149.5 48.5t56.5 130.5q0 54 -26.5 87t-77.5 33q-36 0 -57 -21.5t-21 -52.5q0 -29 17.5 -46t45.5 -17q20 0 36 8zM1194 650v-80h-111v-570h-95v274h-195v-132h-83l-24 55q-33 -73 -107 -117.5t-173 -44.5q-127 0 -217 74
t-130 193v78h67q45 0 58.5 19t13.5 70v101h-222v80h1218z" />
    <glyph glyph-name="dvKH_YA" horiz-adv-x="1200" 
d="M1017 342v228h-170q23 -37 23 -90q0 -118 -143 -166q12 -49 50.5 -80t93.5 -31q66 0 106 37t40 102zM294 570v-118q0 -67 -23.5 -103.5t-80.5 -42.5q-12 -3 -19 -3q22 -79 88 -130.5t155 -51.5q93 0 149.5 48.5t56.5 130.5q0 54 -26.5 87t-77.5 33q-36 0 -57 -21.5
t-21 -52.5q0 -29 17.5 -46t45.5 -17q20 0 36 8v-71q-27 -10 -52 -10q-58 0 -98 37t-40 97q0 64 47 107.5t119 43.5q63 0 109.5 -27.5t68.5 -78.5q83 33 83 95q0 52 -30 86h-450zM1224 650v-80h-111v-570h-96v187q-47 -68 -158 -68q-104 0 -173 77q-33 -73 -107 -117
t-173 -44q-127 0 -217 74t-130 193v78h67q45 0 58.5 19t13.5 70v101h-222v80h1248z" />
    <glyph glyph-name="dvKHx_YA" horiz-adv-x="1200" 
d="M91 43q25 0 42.5 -17.5t17.5 -42.5t-17.5 -42t-42.5 -17t-42 17t-17 42t17 42.5t42 17.5zM1017 342v228h-170q23 -37 23 -90q0 -118 -143 -166q12 -49 50.5 -80t93.5 -31q66 0 106 37t40 102zM294 570v-118q0 -67 -23.5 -103.5t-80.5 -42.5q-12 -3 -19 -3
q22 -79 88 -130.5t155 -51.5q93 0 149.5 48.5t56.5 130.5q0 54 -26.5 87t-77.5 33q-36 0 -57 -21.5t-21 -52.5q0 -29 17.5 -46t45.5 -17q20 0 36 8v-71q-27 -10 -52 -10q-58 0 -98 37t-40 97q0 64 47 107.5t119 43.5q63 0 109.5 -27.5t68.5 -78.5q83 33 83 95q0 52 -30 86
h-450zM1224 650v-80h-111v-570h-96v187q-47 -68 -158 -68q-104 0 -173 77q-33 -73 -107 -117t-173 -44q-127 0 -217 74t-130 193v78h67q45 0 58.5 19t13.5 70v101h-222v80h1248z" />
    <glyph glyph-name="dvKH_VA" horiz-adv-x="1159" 
d="M976 307v263h-682v-118q0 -67 -23.5 -103.5t-80.5 -42.5q-12 -3 -19 -3q22 -79 88 -130.5t155 -51.5q93 0 149.5 48.5t56.5 130.5q0 54 -26.5 87t-77.5 33q-36 0 -57 -21.5t-21 -52.5q0 -29 17.5 -46t45.5 -17q20 0 36 8v-71q-27 -10 -52 -10q-58 0 -98 37t-40 97
q0 64 47 107.5t119 43.5q108 0 160 -74q58 61 152 61q36 0 66 -7v-85q-27 9 -59 9q-48 0 -81 -31t-33 -82q0 -54 33 -86t85 -32q61 0 100.5 41t39.5 98zM1184 650v-80h-112v-570h-96v155q-54 -66 -154 -66t-158 69q-39 -57 -106.5 -90t-151.5 -33q-127 0 -217 74t-130 193
v78h67q45 0 58.5 19t13.5 70v101h-222v80h1208z" />
    <glyph glyph-name="dvKHx_VA" horiz-adv-x="1159" 
d="M91 43q25 0 42.5 -17.5t17.5 -42.5t-17.5 -42t-42.5 -17t-42 17t-17 42t17 42.5t42 17.5zM976 307v263h-682v-118q0 -67 -23.5 -103.5t-80.5 -42.5q-12 -3 -19 -3q22 -79 88 -130.5t155 -51.5q93 0 149.5 48.5t56.5 130.5q0 54 -26.5 87t-77.5 33q-36 0 -57 -21.5
t-21 -52.5q0 -29 17.5 -46t45.5 -17q20 0 36 8v-71q-27 -10 -52 -10q-58 0 -98 37t-40 97q0 64 47 107.5t119 43.5q108 0 160 -74q58 61 152 61q36 0 66 -7v-85q-27 9 -59 9q-48 0 -81 -31t-33 -82q0 -54 33 -86t85 -32q61 0 100.5 41t39.5 98zM1184 650v-80h-112v-570h-96
v155q-54 -66 -154 -66t-158 69q-39 -57 -106.5 -90t-151.5 -33q-127 0 -217 74t-130 193v78h67q45 0 58.5 19t13.5 70v101h-222v80h1208z" />
    <glyph glyph-name="dvKH_SHA" horiz-adv-x="1318" 
d="M811 441h-93q-15 33 -15 67q0 60 42.5 102.5t113.5 42.5q80 0 128 -52t48 -129q0 -105 -71 -163t-166 -58h-17l231 -251h-126l-193 215q-28 -80 -105 -130t-182 -50q-127 0 -217 74t-130 193v78h67q45 0 58.5 19t13.5 70v101h-222v80h644v-80h-326v-118
q0 -67 -23.5 -103.5t-80.5 -42.5q-12 -3 -19 -3q22 -79 88 -130.5t155 -51.5q93 0 149.5 48.5t56.5 130.5q0 54 -26.5 87t-77.5 33q-36 0 -57 -21.5t-21 -52.5q0 -29 17.5 -46t45.5 -17q20 0 36 8v-71q-27 -10 -52 -10q-58 0 -98 37t-40 97q0 64 47 107.5t119 43.5
q79 0 131.5 -43.5t61.5 -120.5h61q82 0 127 37t45 104q0 99 -79 99q-32 0 -48 -20.5t-16 -50.5q0 -29 15 -59zM1134 650h208v-80h-111v-570h-97v650z" />
    <glyph glyph-name="dvKHx_SHA" horiz-adv-x="1318" 
d="M91 43q25 0 42.5 -17.5t17.5 -42.5t-17.5 -42t-42.5 -17t-42 17t-17 42t17 42.5t42 17.5zM811 441h-93q-15 33 -15 67q0 60 42.5 102.5t113.5 42.5q80 0 128 -52t48 -129q0 -105 -71 -163t-166 -58h-17l231 -251h-126l-193 215q-28 -80 -105 -130t-182 -50
q-127 0 -217 74t-130 193v78h67q45 0 58.5 19t13.5 70v101h-222v80h644v-80h-326v-118q0 -67 -23.5 -103.5t-80.5 -42.5q-12 -3 -19 -3q22 -79 88 -130.5t155 -51.5q93 0 149.5 48.5t56.5 130.5q0 54 -26.5 87t-77.5 33q-36 0 -57 -21.5t-21 -52.5q0 -29 17.5 -46t45.5 -17
q20 0 36 8v-71q-27 -10 -52 -10q-58 0 -98 37t-40 97q0 64 47 107.5t119 43.5q79 0 131.5 -43.5t61.5 -120.5h61q82 0 127 37t45 104q0 99 -79 99q-32 0 -48 -20.5t-16 -50.5q0 -29 15 -59zM1134 650h208v-80h-111v-570h-97v650z" />
    <glyph glyph-name="dvKHx_SA" horiz-adv-x="1261" 
d="M91 43q25 0 42.5 -17.5t17.5 -42.5t-17.5 -42t-42.5 -17t-42 17t-17 42t17 42.5t42 17.5zM873 339h205v231h-181v-134q0 -60 -24 -97zM537 291v-71q-27 -10 -52 -10q-58 0 -98 37t-40 97q0 64 47 107.5t119 43.5q74 0 125 -38t65 -106h2q54 0 75 22t21 67v130h-507v-118
q0 -67 -23.5 -103.5t-80.5 -42.5q-12 -3 -19 -3q22 -79 88 -130.5t155 -51.5q93 0 149.5 48.5t56.5 130.5q0 54 -26.5 87t-77.5 33q-36 0 -57 -21.5t-21 -52.5q0 -29 17.5 -46t45.5 -17q20 0 36 8zM1285 650v-80h-111v-570h-96v259h-163q-96 0 -157 9l185 -268h-117
l-137 203q-32 -76 -107 -122t-176 -46q-127 0 -217 74t-130 193v78h67q45 0 58.5 19t13.5 70v101h-222v80h1309z" />
    <glyph glyph-name="dvG_GA" horiz-adv-x="886" 
d="M911 650v-80h-112v-570h-95v570h-156v-228q0 -66 -35 -100.5t-96 -34.5q-42 0 -78 13v82q28 -14 57 -14q56 0 56 61v221h-213v-228q0 -66 -35 -100.5t-96 -34.5q-42 0 -78 13v82q28 -14 57 -14q56 0 56 61v221h-167v80h935z" />
    <glyph glyph-name="dvG_GHA" horiz-adv-x="943" 
d="M760 333v237h-245q-48 -29 -48 -80q0 -74 115 -74h46v-83h-56q-52 0 -82.5 -22.5t-30.5 -62.5t32.5 -60.5t79.5 -20.5q81 0 135 47.5t54 118.5zM967 650v-80h-111v-570h-96v172q-28 -38 -81.5 -62t-116.5 -24q-89 0 -144.5 42.5t-55.5 114.5q0 54 34.5 88t93.5 43
q-51 3 -85.5 31.5t-34.5 78.5q0 51 38 86h-169v-228q0 -66 -35 -100.5t-96 -34.5q-42 0 -78 13v82q28 -14 57 -14q56 0 56 61v221h-167v80h991z" />
    <glyph glyph-name="dvG_JA" horiz-adv-x="967" 
d="M991 650v-80h-111v-570h-97v374h-185q69 -41 69 -134q0 -81 -55 -130t-145 -49q-68 0 -123 22v86q50 -26 109 -26q55 0 87.5 28t32.5 79q0 60 -43.5 92t-121.5 32v81h375v115h-544v-228q0 -66 -35 -100.5t-96 -34.5q-42 0 -78 13v82q28 -14 57 -14q56 0 56 61v221h-167
v80h1015z" />
    <glyph glyph-name="dvG_NNA" horiz-adv-x="1070" 
d="M642 346v224h-164v-224q0 -96 81 -96q83 0 83 96zM1095 650v-80h-112v-570h-96v570h-149v-219q0 -89 -47 -136t-134 -47q-175 0 -175 182v220h-143v-228q0 -66 -35 -100.5t-96 -34.5q-42 0 -78 13v82q28 -14 57 -14q56 0 56 61v221h-167v80h1119z" />
    <glyph glyph-name="dvG_DA" horiz-adv-x="871" 
d="M778 401h-185q-63 0 -100.5 -33.5t-37.5 -90.5q0 -60 33 -94t88 -34q54 0 87.5 30.5t37.5 81.5h93v-271h-95v131q-19 -25 -56.5 -39t-78.5 -14q-95 0 -152.5 59t-57.5 147q0 91 61 148.5t171 57.5h95v90h-442v-228q0 -66 -35 -100.5t-96 -34.5q-42 0 -78 13v82
q28 -14 57 -14q56 0 56 61v221h-167v80h920v-80h-118v-169z" />
    <glyph glyph-name="dvG_DHA" horiz-adv-x="929" 
d="M953 650v-80h-111v-570h-96v151q-26 -38 -75.5 -61.5t-111.5 -23.5q-95 0 -153 44.5t-58 116.5q0 57 37 91t99 40q-60 5 -94 34t-34 82q0 67 57 96h-174v-228q0 -66 -35 -100.5t-96 -34.5q-42 0 -78 13v82q28 -14 57 -14q56 0 56 61v221h-167v80h606v-80h-1
q-61 0 -94.5 -25t-33.5 -66t33.5 -61t88.5 -20h48v-81h-56q-57 0 -89 -22.5t-32 -62.5q0 -39 32.5 -62t87.5 -23q81 0 130.5 47t49.5 114v342h207z" />
    <glyph glyph-name="dvG_DH_YA" horiz-adv-x="1330" 
d="M1147 342v228h-170q23 -37 23 -90q0 -118 -143 -166q12 -49 50.5 -80t93.5 -31q66 0 106 37t40 102zM744 650h610v-80h-111v-570h-96v187q-47 -68 -158 -68q-80 0 -143 48q-103 -101 -252 -101q-97 0 -156 44.5t-59 116.5q0 57 37 91t99 40q-60 5 -94 34t-34 82
q0 67 57 96h-205v-228q0 -66 -35 -100.5t-96 -34.5q-42 0 -78 13v82q28 -14 57 -14q56 0 56 61v221h-167v80h637v-80h-1q-61 0 -94.5 -25t-33.5 -66t33.5 -61t88.5 -20h48v-81h-56q-57 0 -89 -22.5t-32 -62.5q0 -39 33.5 -62t91.5 -23q109 0 190 81q-38 60 -48 141
q79 12 119.5 43t40.5 72q0 52 -30 86h-130v80z" />
    <glyph glyph-name="dvG_DH_VA" horiz-adv-x="1317" 
d="M1341 650v-80h-111v-570h-97v155q-54 -66 -154 -66q-94 0 -151 62q-97 -85 -234 -85q-97 0 -156 44.5t-59 116.5q0 57 37 91t99 40q-60 5 -94 34t-34 82q0 67 57 96h-205v-228q0 -66 -35 -100.5t-96 -34.5q-42 0 -78 13v82q28 -14 57 -14q56 0 56 61v221h-167v80h637v-80
h-1q-61 0 -94.5 -25t-33.5 -66t33.5 -61t88.5 -20h48v-81h-56q-57 0 -89 -22.5t-32 -62.5q0 -39 33.5 -62t91.5 -23q106 0 185 76q-9 29 -9 62q0 85 57 141t148 56q35 0 65 -7v-85q-25 9 -59 9q-48 0 -81 -31t-33 -82q0 -54 33 -86t86 -32q61 0 100 41t39 98v263h-362v80
h570z" />
    <glyph glyph-name="dvG_NA" horiz-adv-x="583" 
d="M-24 650h631v-80h-111v-570h-96v149l-168 -103q-18 -12 -18 -31q0 -28 51 -74l-58 -38q-37 20 -66.5 53t-29.5 68q0 42 51 73l238 146v327h-156v-228q0 -66 -34.5 -100.5t-96.5 -34.5q-41 0 -77 13v82q27 -14 57 -14q55 0 55 61v221h-172v80z" />
    <glyph glyph-name="dvG_N_YA" horiz-adv-x="1209" 
d="M1027 342v228h-170q23 -37 23 -90q0 -118 -143 -166q12 -49 50.5 -80t93.5 -31q66 0 106 37t40 102zM1234 650v-80h-111v-570h-96v187q-47 -68 -158 -68q-84 0 -148 52.5t-88 148.5q-29 26 -94 26h-60q-18 0 -25.5 -9t-7.5 -31q0 -32 12 -73h-79q-30 51 -30 112
q0 37 23.5 59t69.5 22h96q92 0 154 -41q92 34 92 99q0 52 -30 86h-515v-228q0 -66 -35 -100.5t-96 -34.5q-42 0 -78 13v82q28 -14 57 -14q56 0 56 61v221h-167v80h1258z" />
    <glyph glyph-name="dvG_BA" horiz-adv-x="921" 
d="M670 183l-200 186q-24 -34 -24 -82q0 -58 36.5 -94t93.5 -36q54 0 94 26zM946 650v-80h-112v-570h-96v153q-64 -74 -172 -74q-89 0 -152.5 59t-63.5 151t62.5 151.5t160.5 59.5q40 0 82 -10v-84q-39 12 -75 12q-38 0 -68 -14l199 -184q27 37 27 82v268h-499v-228
q0 -66 -35 -100.5t-96 -34.5q-42 0 -78 13v82q28 -14 57 -14q56 0 56 61v221h-167v80h970z" />
    <glyph glyph-name="dvG_BHA" horiz-adv-x="867" 
d="M685 650h207v-80h-112v-570h-95v277h-184v-134h-84l-28 62q-27 57 -27 89q0 22 12 38t31 20v157q0 32 -11 46.5t-41 14.5h-114v-228q0 -66 -35 -100.5t-96 -34.5q-42 0 -78 13v82q28 -14 57 -14q56 0 56 61v221h-167v80h396q69 0 99 -31t30 -95v-168h184v294z" />
    <glyph glyph-name="dvG_BH_YA" horiz-adv-x="1252" 
d="M1069 342v228h-170q23 -37 23 -90q0 -66 -40.5 -109.5t-102.5 -61.5q12 -49 50 -77.5t94 -28.5q66 0 106 37t40 102zM632 650h644v-80h-111v-570h-96v187q-47 -68 -158 -68q-79 0 -139 43t-87 124q-60 -9 -135 -9h-49v-134h-84l-28 62q-27 57 -27 89q0 22 12 38t31 20
v157q0 32 -11 46.5t-41 14.5h-114v-228q0 -66 -35 -100.5t-96 -34.5q-42 0 -78 13v82q28 -14 57 -14q56 0 56 61v221h-167v80h396q69 0 99 -31t30 -95v-168h52q273 0 273 131q0 49 -30 83h-164v80z" />
    <glyph glyph-name="dvG_MA" horiz-adv-x="874" 
d="M692 354v216h-195v-216h195zM898 650v-80h-111v-570h-95v274h-195v-132h-83l-28 64q-28 63 -28 90q0 43 44 54v220h-163v-228q0 -66 -35 -100.5t-96 -34.5q-42 0 -78 13v82q28 -14 57 -14q56 0 56 61v221h-167v80h922z" />
    <glyph glyph-name="dvG_YA" horiz-adv-x="950" 
d="M767 342v228h-170q23 -37 23 -90q0 -118 -143 -166q12 -49 50.5 -80t93.5 -31q66 0 106 37t40 102zM974 650v-80h-111v-570h-96v187q-47 -68 -158 -68q-95 0 -162.5 66t-82.5 184q79 12 119.5 43t40.5 72q0 52 -30 86h-255v-228q0 -66 -35 -100.5t-96 -34.5q-42 0 -78 13
v82q28 -14 57 -14q56 0 56 61v221h-167v80h998z" />
    <glyph glyph-name="dvG_R_YA" horiz-adv-x="990" 
d="M807 342v228h-170q23 -37 23 -90q0 -118 -143 -166q12 -49 50.5 -80t93.5 -31q66 0 106 37t40 102zM1014 650v-80h-111v-570h-96v187q-47 -68 -158 -68q-123 0 -193 102l-282 -241h-133l376 326q-8 27 -13 63q79 12 119.5 43t40.5 72q0 52 -30 86h-286v-228
q0 -66 -34.5 -100.5t-96.5 -34.5q-41 0 -78 13v82q28 -14 58 -14q55 0 55 61v221h-176v80h1038z" />
    <glyph glyph-name="dvG_LA" horiz-adv-x="1050" 
d="M1074 650v-80h-111v-570h-97v392q-23 7 -44 7q-103 0 -103 -119v-70h-97v72q0 110 -78 110q-40 0 -65.5 -33t-25.5 -97q0 -81 42 -131t126 -50q20 0 31 2v-79q-17 -4 -43 -4q-115 0 -183.5 74t-68.5 190q0 93 48 150.5t129 57.5q56 0 92 -25t45 -67q25 97 144 97
q27 0 51 -8v101h-627v-228q0 -66 -35 -100.5t-96 -34.5q-42 0 -78 13v82q28 -14 57 -14q56 0 56 61v221h-167v80h1098z" />
    <glyph glyph-name="dvG_VA" horiz-adv-x="895" 
d="M920 650v-80h-112v-570h-96v155q-54 -66 -154 -66q-84 0 -143 52.5t-59 143.5q0 85 57 141t148 56q36 0 66 -7v-85q-27 9 -59 9q-48 0 -81 -31t-33 -82q0 -54 33 -86t85 -32q61 0 100.5 41t39.5 98v263h-473v-228q0 -66 -35 -100.5t-96 -34.5q-42 0 -78 13v82
q28 -14 57 -14q56 0 56 61v221h-167v80h944z" />
    <glyph glyph-name="dvG_SA" horiz-adv-x="982" 
d="M594 339h205v231h-181v-134q0 -60 -24 -97zM1006 650v-80h-111v-570h-96v259h-163q-96 0 -157 9l185 -268h-117l-188 278v73h67q54 0 75 22t21 67v130h-283v-228q0 -66 -35 -100.5t-96 -34.5q-42 0 -78 13v82q28 -14 57 -14q56 0 56 61v221h-167v80h1030z" />
    <glyph glyph-name="dvGH_NA" horiz-adv-x="644" 
d="M461 333v237h-245q-48 -30 -48 -78q0 -76 115 -76h46v-83h-56q-52 0 -82.5 -22.5t-30.5 -62.5t32.5 -60.5t79.5 -20.5q81 0 135 47.5t54 118.5zM668 650v-80h-111v-570h-96v172q-23 -31 -59 -50l-170 -112q-20 -13 -20 -34q0 -30 50 -80l-60 -39q-37 21 -65 54.5
t-28 68.5q0 43 49 73l62 36q-71 10 -114 50.5t-43 103.5q0 54 35 89t93 42q-51 3 -85.5 32t-34.5 78q0 51 38 86h-133v80h692z" />
    <glyph glyph-name="dvGH_MA" horiz-adv-x="920" 
d="M738 354v216h-195v-216h195zM326 333h-56q-52 0 -82.5 -22.5t-30.5 -62.5t32.5 -60.5t79.5 -20.5q98 0 152 65q-17 41 -17 64q0 43 44 54v220h-235q-48 -29 -48 -80q0 -74 115 -74h46v-83zM944 650v-80h-111v-570h-95v274h-195v-132h-83l-9 19q-73 -75 -191 -75
q-89 0 -144.5 42.5t-55.5 114.5q0 54 34.5 88t93.5 43q-51 3 -85.5 31.5t-34.5 78.5q0 51 38 86h-130v80h968z" />
    <glyph glyph-name="dvGH_YA" horiz-adv-x="987" 
d="M804 342v228h-170q23 -37 23 -90q0 -118 -143 -166q12 -49 50.5 -80t93.5 -31q66 0 106 37t40 102zM326 333h-56q-52 0 -82.5 -22.5t-30.5 -62.5t32.5 -60.5t79.5 -20.5q103 0 168 82q-27 51 -36 120q79 12 119.5 43t40.5 72q0 52 -30 86h-318q-48 -29 -48 -80
q0 -74 115 -74h46v-83zM1011 650v-80h-111v-570h-96v187q-47 -68 -158 -68q-99 0 -166 70q-86 -103 -220 -103q-89 0 -144.5 42.5t-55.5 114.5q0 54 34.5 88t93.5 43q-51 3 -85.5 31.5t-34.5 78.5q0 51 38 86h-130v80h1035z" />
    <glyph glyph-name="dvC_CA" horiz-adv-x="1010" 
d="M1035 650v-80h-111v-570h-97v182q-24 -37 -70 -60.5t-112 -24.5q-114 0 -164 77q-79 -77 -194 -77q-89 0 -143.5 42.5t-54.5 118.5q0 83 71 121h-134v81h346v-81q-100 0 -144.5 -31t-44.5 -80q0 -42 31.5 -67.5t81.5 -25.5q98 0 161 81v3q0 82 72 120h-105v81h317v-81
q-100 0 -145 -31t-45 -80q0 -45 30.5 -69t80.5 -24q77 0 121 47.5t44 103.5v244h-851v80h1059z" />
    <glyph glyph-name="dvC_CHA" horiz-adv-x="1036" 
d="M821 489v81h-197q-56 -36 -56 -96q0 -38 26.5 -61.5t66.5 -23.5h31v-82h-37q-50 0 -76 -21t-26 -59q0 -42 40 -67t101 -25q87 0 141 46t54 127q0 48 -26.5 75.5t-75.5 27.5q-25 0 -45 -6v78q20 7 60 7q13 0 19 -1zM1060 570h-149v-107q76 -47 76 -150q0 -114 -83 -186
t-210 -72q-80 0 -140.5 28t-84.5 80q-76 -66 -182 -66q-89 0 -143.5 42.5t-54.5 118.5q0 83 71 121h-134v81h346v-81q-100 0 -144.5 -31t-44.5 -80q0 -42 31.5 -67.5t81.5 -25.5q51 0 94.5 24.5t70.5 61.5q10 39 40.5 62t76.5 28q-44 5 -75 38.5t-31 84.5q0 59 41 96h-537
v80h1084v-80z" />
    <glyph glyph-name="dvC_CH_VA" horiz-adv-x="1050" 
d="M846 489v81h-229q-55 -34 -55 -93q0 -38 26 -59t67 -21h32v-82h-38q-47 0 -74.5 -20t-27.5 -52q0 -46 45.5 -71.5t120.5 -25.5q87 0 144 45.5t57 118.5q0 48 -26.5 74.5t-75.5 26.5q-25 0 -45 -6v78q20 7 60 7q13 0 19 -1zM841 -7v96q-59 -24 -129 -24h-9
q-54 0 -87 -27.5t-33 -77.5q0 -51 32 -79t86 -28q61 0 100.5 41.5t39.5 98.5zM1074 570h-138v-107q76 -45 76 -148q0 -98 -76 -168v-456h-95v156q-50 -72 -154 -72q-84 0 -142.5 49.5t-58.5 136.5q0 84 71 134q-60 27 -87 70q-77 -68 -183 -68q-89 0 -143.5 42.5
t-54.5 118.5q0 83 71 121h-134v81h346v-81q-100 0 -144.5 -31t-44.5 -80q0 -42 31.5 -67.5t81.5 -25.5q91 0 155 73q4 46 37.5 75t83.5 34q-44 5 -75 37t-31 83q0 56 41 93h-531v80h1098v-80z" />
    <glyph glyph-name="dvC_NA" horiz-adv-x="647" 
d="M672 650v-80h-112v-570h-96v182q-21 -33 -58 -54l-168 -111q-19 -12 -19 -31q0 -33 47 -80l-59 -39q-36 21 -62.5 54t-26.5 68q0 45 49 74l68 38q-64 12 -102.5 54t-38.5 104q0 83 72 120h-135v81h347v-81q-100 0 -145 -31t-45 -80q0 -45 30.5 -69t80.5 -24
q77 0 121 47.5t44 103.5v244h-488v80h696z" />
    </font>
</defs>
</svg>
